%TF.GenerationSoftware,KiCad,Pcbnew,(6.0.1)*%
%TF.CreationDate,2022-06-01T15:29:15+03:00*%
%TF.ProjectId,Power,506f7765-722e-46b6-9963-61645f706362,rev?*%
%TF.SameCoordinates,Original*%
%TF.FileFunction,Soldermask,Top*%
%TF.FilePolarity,Negative*%
%FSLAX46Y46*%
G04 Gerber Fmt 4.6, Leading zero omitted, Abs format (unit mm)*
G04 Created by KiCad (PCBNEW (6.0.1)) date 2022-06-01 15:29:15*
%MOMM*%
%LPD*%
G01*
G04 APERTURE LIST*
G04 Aperture macros list*
%AMRoundRect*
0 Rectangle with rounded corners*
0 $1 Rounding radius*
0 $2 $3 $4 $5 $6 $7 $8 $9 X,Y pos of 4 corners*
0 Add a 4 corners polygon primitive as box body*
4,1,4,$2,$3,$4,$5,$6,$7,$8,$9,$2,$3,0*
0 Add four circle primitives for the rounded corners*
1,1,$1+$1,$2,$3*
1,1,$1+$1,$4,$5*
1,1,$1+$1,$6,$7*
1,1,$1+$1,$8,$9*
0 Add four rect primitives between the rounded corners*
20,1,$1+$1,$2,$3,$4,$5,0*
20,1,$1+$1,$4,$5,$6,$7,0*
20,1,$1+$1,$6,$7,$8,$9,0*
20,1,$1+$1,$8,$9,$2,$3,0*%
G04 Aperture macros list end*
%ADD10C,1.000000*%
%ADD11RoundRect,0.250001X-0.499999X0.499999X-0.499999X-0.499999X0.499999X-0.499999X0.499999X0.499999X0*%
%ADD12C,1.500000*%
%ADD13RoundRect,0.250001X0.499999X0.499999X-0.499999X0.499999X-0.499999X-0.499999X0.499999X-0.499999X0*%
%ADD14RoundRect,1.250000X3.750000X-1.250000X3.750000X1.250000X-3.750000X1.250000X-3.750000X-1.250000X0*%
%ADD15C,10.000000*%
%ADD16RoundRect,3.250000X-3.250000X-3.250000X3.250000X-3.250000X3.250000X3.250000X-3.250000X3.250000X0*%
%ADD17RoundRect,0.249999X-0.512501X-1.425001X0.512501X-1.425001X0.512501X1.425001X-0.512501X1.425001X0*%
%ADD18C,2.500000*%
%ADD19RoundRect,0.250001X-0.499999X-0.499999X0.499999X-0.499999X0.499999X0.499999X-0.499999X0.499999X0*%
%ADD20C,3.200000*%
%ADD21O,2.500000X2.000000*%
%ADD22O,1.500000X2.000000*%
G04 APERTURE END LIST*
D10*
%TO.C,J3*%
X214560000Y-84956000D03*
X214560000Y-99956000D03*
D11*
X218500000Y-87956000D03*
D12*
X218500000Y-90956000D03*
X218500000Y-93956000D03*
X218500000Y-96956000D03*
X215500000Y-87956000D03*
X215500000Y-90956000D03*
X215500000Y-93956000D03*
X215500000Y-96956000D03*
%TD*%
D10*
%TO.C,J9*%
X194746000Y-127886000D03*
X185746000Y-127886000D03*
D13*
X191746000Y-131826000D03*
D12*
X188746000Y-131826000D03*
X191746000Y-128826000D03*
X188746000Y-128826000D03*
%TD*%
D14*
%TO.C,L1*%
X69596000Y-76120000D03*
X69596000Y-66120000D03*
%TD*%
D10*
%TO.C,J10*%
X173300000Y-127886000D03*
X182300000Y-127886000D03*
D13*
X179300000Y-131826000D03*
D12*
X176300000Y-131826000D03*
X179300000Y-128826000D03*
X176300000Y-128826000D03*
%TD*%
D15*
%TO.C,D2*%
X81026000Y-69596000D03*
D16*
X81026000Y-86596000D03*
X81026000Y-109596000D03*
X81026000Y-132596000D03*
%TD*%
D17*
%TO.C,F1*%
X74228500Y-59182000D03*
X80203500Y-59182000D03*
%TD*%
D18*
%TO.C,C24*%
X200894000Y-65031000D03*
X180594000Y-65031000D03*
X180594000Y-117531000D03*
X200894000Y-117531000D03*
%TD*%
D10*
%TO.C,J1*%
X97440000Y-57940000D03*
X88440000Y-57940000D03*
D19*
X91440000Y-54000000D03*
D12*
X94440000Y-54000000D03*
X91440000Y-57000000D03*
X94440000Y-57000000D03*
%TD*%
D10*
%TO.C,J6*%
X177840000Y-57940000D03*
X162840000Y-57940000D03*
D19*
X165840000Y-54000000D03*
D12*
X168840000Y-54000000D03*
X171840000Y-54000000D03*
X174840000Y-54000000D03*
X165840000Y-57000000D03*
X168840000Y-57000000D03*
X171840000Y-57000000D03*
X174840000Y-57000000D03*
%TD*%
D20*
%TO.C,H3*%
X238948000Y-54356000D03*
%TD*%
D10*
%TO.C,J8*%
X207192000Y-127886000D03*
X198192000Y-127886000D03*
D13*
X204192000Y-131826000D03*
D12*
X201192000Y-131826000D03*
X204192000Y-128826000D03*
X201192000Y-128826000D03*
%TD*%
D18*
%TO.C,C21*%
X107462000Y-117595000D03*
X127762000Y-117595000D03*
X107462000Y-65095000D03*
X127762000Y-65095000D03*
%TD*%
D10*
%TO.C,J4*%
X214560000Y-66414000D03*
X214560000Y-81414000D03*
D11*
X218500000Y-69414000D03*
D12*
X218500000Y-72414000D03*
X218500000Y-75414000D03*
X218500000Y-78414000D03*
X215500000Y-69414000D03*
X215500000Y-72414000D03*
X215500000Y-75414000D03*
X215500000Y-78414000D03*
%TD*%
D15*
%TO.C,D1*%
X154178000Y-69474000D03*
D16*
X154178000Y-86474000D03*
X154178000Y-109474000D03*
X154178000Y-132474000D03*
%TD*%
D10*
%TO.C,J5*%
X233414000Y-57940000D03*
X218414000Y-57940000D03*
D19*
X221414000Y-54000000D03*
D12*
X224414000Y-54000000D03*
X227414000Y-54000000D03*
X230414000Y-54000000D03*
X221414000Y-57000000D03*
X224414000Y-57000000D03*
X227414000Y-57000000D03*
X230414000Y-57000000D03*
%TD*%
D10*
%TO.C,J2*%
X103262000Y-57940000D03*
X112262000Y-57940000D03*
D19*
X106262000Y-54000000D03*
D12*
X109262000Y-54000000D03*
X106262000Y-57000000D03*
X109262000Y-57000000D03*
%TD*%
D21*
%TO.C,D4*%
X186690000Y-83312000D03*
X186690000Y-85852000D03*
X186690000Y-88392000D03*
X186690000Y-90932000D03*
X173990000Y-83312000D03*
X173990000Y-85852000D03*
X173990000Y-88392000D03*
X173990000Y-90932000D03*
D22*
X184150000Y-101102000D03*
X182245000Y-101102000D03*
X180340000Y-101102000D03*
X178435000Y-101102000D03*
X176530000Y-101102000D03*
%TD*%
M02*
