%TF.GenerationSoftware,KiCad,Pcbnew,(6.0.1)*%
%TF.CreationDate,2022-06-01T15:29:14+03:00*%
%TF.ProjectId,Power,506f7765-722e-46b6-9963-61645f706362,rev?*%
%TF.SameCoordinates,Original*%
%TF.FileFunction,Copper,L3,Inr*%
%TF.FilePolarity,Positive*%
%FSLAX46Y46*%
G04 Gerber Fmt 4.6, Leading zero omitted, Abs format (unit mm)*
G04 Created by KiCad (PCBNEW (6.0.1)) date 2022-06-01 15:29:14*
%MOMM*%
%LPD*%
G01*
G04 APERTURE LIST*
G04 Aperture macros list*
%AMRoundRect*
0 Rectangle with rounded corners*
0 $1 Rounding radius*
0 $2 $3 $4 $5 $6 $7 $8 $9 X,Y pos of 4 corners*
0 Add a 4 corners polygon primitive as box body*
4,1,4,$2,$3,$4,$5,$6,$7,$8,$9,$2,$3,0*
0 Add four circle primitives for the rounded corners*
1,1,$1+$1,$2,$3*
1,1,$1+$1,$4,$5*
1,1,$1+$1,$6,$7*
1,1,$1+$1,$8,$9*
0 Add four rect primitives between the rounded corners*
20,1,$1+$1,$2,$3,$4,$5,0*
20,1,$1+$1,$4,$5,$6,$7,0*
20,1,$1+$1,$6,$7,$8,$9,0*
20,1,$1+$1,$8,$9,$2,$3,0*%
G04 Aperture macros list end*
%TA.AperFunction,ComponentPad*%
%ADD10RoundRect,0.250001X-0.499999X0.499999X-0.499999X-0.499999X0.499999X-0.499999X0.499999X0.499999X0*%
%TD*%
%TA.AperFunction,ComponentPad*%
%ADD11C,1.500000*%
%TD*%
%TA.AperFunction,ComponentPad*%
%ADD12RoundRect,0.250001X0.499999X0.499999X-0.499999X0.499999X-0.499999X-0.499999X0.499999X-0.499999X0*%
%TD*%
%TA.AperFunction,ComponentPad*%
%ADD13RoundRect,3.250000X-3.250000X-3.250000X3.250000X-3.250000X3.250000X3.250000X-3.250000X3.250000X0*%
%TD*%
%TA.AperFunction,ComponentPad*%
%ADD14C,2.500000*%
%TD*%
%TA.AperFunction,ComponentPad*%
%ADD15RoundRect,0.250001X-0.499999X-0.499999X0.499999X-0.499999X0.499999X0.499999X-0.499999X0.499999X0*%
%TD*%
%TA.AperFunction,ComponentPad*%
%ADD16O,2.500000X2.000000*%
%TD*%
%TA.AperFunction,ComponentPad*%
%ADD17O,1.500000X2.000000*%
%TD*%
%TA.AperFunction,ViaPad*%
%ADD18C,0.800000*%
%TD*%
%TA.AperFunction,Conductor*%
%ADD19C,1.500000*%
%TD*%
G04 APERTURE END LIST*
D10*
%TO.N,LPSR_IN*%
%TO.C,J3*%
X218500000Y-87956000D03*
D11*
X218500000Y-90956000D03*
X218500000Y-93956000D03*
X218500000Y-96956000D03*
X215500000Y-87956000D03*
X215500000Y-90956000D03*
X215500000Y-93956000D03*
X215500000Y-96956000D03*
%TD*%
D12*
%TO.N,GND*%
%TO.C,J9*%
X191746000Y-131826000D03*
D11*
%TO.N,Current_Measure*%
X188746000Y-131826000D03*
%TO.N,GND*%
X191746000Y-128826000D03*
%TO.N,Current_Measure*%
X188746000Y-128826000D03*
%TD*%
D12*
%TO.N,GNDPWR*%
%TO.C,J10*%
X179300000Y-131826000D03*
D11*
X176300000Y-131826000D03*
%TO.N,Voltage_IN*%
X179300000Y-128826000D03*
%TO.N,Voltage_OUT*%
X176300000Y-128826000D03*
%TD*%
D13*
%TO.N,Net-(D2-Pad1)*%
%TO.C,D2*%
X81026000Y-86596000D03*
%TO.N,Net-(C21-Pad1)*%
X81026000Y-109596000D03*
%TO.N,unconnected-(D2-Pad3)*%
X81026000Y-132596000D03*
%TD*%
D14*
%TO.N,Voltage_IN*%
%TO.C,C24*%
X200894000Y-65031000D03*
X180594000Y-65031000D03*
%TO.N,GNDPWR*%
X180594000Y-117531000D03*
X200894000Y-117531000D03*
%TD*%
D15*
%TO.N,Voltage_OUT*%
%TO.C,J1*%
X91440000Y-54000000D03*
D11*
X94440000Y-54000000D03*
X91440000Y-57000000D03*
X94440000Y-57000000D03*
%TD*%
D15*
%TO.N,GNDPWR*%
%TO.C,J6*%
X165840000Y-54000000D03*
D11*
X168840000Y-54000000D03*
X171840000Y-54000000D03*
X174840000Y-54000000D03*
X165840000Y-57000000D03*
X168840000Y-57000000D03*
X171840000Y-57000000D03*
X174840000Y-57000000D03*
%TD*%
D12*
%TO.N,+5V*%
%TO.C,J8*%
X204192000Y-131826000D03*
D11*
%TO.N,GND*%
X201192000Y-131826000D03*
%TO.N,+5V*%
X204192000Y-128826000D03*
%TO.N,GND*%
X201192000Y-128826000D03*
%TD*%
D14*
%TO.N,Net-(C21-Pad1)*%
%TO.C,C21*%
X107462000Y-117595000D03*
X127762000Y-117595000D03*
%TO.N,GNDPWR*%
X107462000Y-65095000D03*
X127762000Y-65095000D03*
%TD*%
D10*
%TO.N,Voltage_IN*%
%TO.C,J4*%
X218500000Y-69414000D03*
D11*
X218500000Y-72414000D03*
X218500000Y-75414000D03*
X218500000Y-78414000D03*
X215500000Y-69414000D03*
X215500000Y-72414000D03*
X215500000Y-75414000D03*
X215500000Y-78414000D03*
%TD*%
D13*
%TO.N,LPSR_OUT*%
%TO.C,D1*%
X154178000Y-86474000D03*
%TO.N,GNDPWR*%
X154178000Y-109474000D03*
%TO.N,Net-(C21-Pad1)*%
X154178000Y-132474000D03*
%TD*%
D15*
%TO.N,Voltage_IN*%
%TO.C,J5*%
X221414000Y-54000000D03*
D11*
X224414000Y-54000000D03*
X227414000Y-54000000D03*
X230414000Y-54000000D03*
X221414000Y-57000000D03*
X224414000Y-57000000D03*
X227414000Y-57000000D03*
X230414000Y-57000000D03*
%TD*%
D15*
%TO.N,GNDPWR*%
%TO.C,J2*%
X106262000Y-54000000D03*
D11*
X109262000Y-54000000D03*
X106262000Y-57000000D03*
X109262000Y-57000000D03*
%TD*%
D16*
%TO.N,LPSR_IN*%
%TO.C,D4*%
X186690000Y-83312000D03*
X186690000Y-85852000D03*
X186690000Y-88392000D03*
X186690000Y-90932000D03*
%TO.N,LPSR_OUT*%
X173990000Y-83312000D03*
X173990000Y-85852000D03*
X173990000Y-88392000D03*
X173990000Y-90932000D03*
D17*
%TO.N,+5V*%
X184150000Y-101102000D03*
%TO.N,GND*%
X182245000Y-101102000D03*
%TO.N,Net-(D4-Pad11)*%
X180340000Y-101102000D03*
%TO.N,unconnected-(D4-Pad12)*%
X178435000Y-101102000D03*
%TO.N,unconnected-(D4-Pad13)*%
X176530000Y-101102000D03*
%TD*%
D18*
%TO.N,Current_Measure*%
X182372000Y-108204000D03*
%TO.N,+5V*%
X186711500Y-108182500D03*
%TO.N,GND*%
X184658000Y-108204000D03*
%TD*%
D19*
%TO.N,Voltage_IN*%
X183134000Y-121920000D02*
X191516000Y-121920000D01*
X179300000Y-125754000D02*
X183134000Y-121920000D01*
X195326000Y-119126000D02*
X195326000Y-107188000D01*
X191516000Y-121920000D02*
X192532000Y-121920000D01*
X192532000Y-121920000D02*
X195072000Y-119380000D01*
X195072000Y-119380000D02*
X195326000Y-119126000D01*
X179300000Y-128826000D02*
X179300000Y-125754000D01*
%TO.N,Voltage_OUT*%
X176300000Y-128826000D02*
X176300000Y-125754000D01*
X143002000Y-122174000D02*
X136398000Y-122174000D01*
X172720000Y-122174000D02*
X143002000Y-122174000D01*
X176300000Y-125754000D02*
X172720000Y-122174000D01*
%TD*%
%TA.AperFunction,Conductor*%
%TO.N,Voltage_IN*%
G36*
X235136342Y-51550002D02*
G01*
X235182835Y-51603658D01*
X235192939Y-51673932D01*
X235172247Y-51727095D01*
X235031180Y-51933503D01*
X235031174Y-51933513D01*
X235029537Y-51935908D01*
X235028131Y-51938439D01*
X235028125Y-51938449D01*
X234824161Y-52305653D01*
X234824157Y-52305662D01*
X234822744Y-52308205D01*
X234821571Y-52310872D01*
X234821566Y-52310881D01*
X234652399Y-52695343D01*
X234651225Y-52698012D01*
X234516445Y-53101996D01*
X234419559Y-53516703D01*
X234361393Y-53938586D01*
X234342445Y-54364038D01*
X234362878Y-54789422D01*
X234422516Y-55211099D01*
X234423187Y-55213926D01*
X234423188Y-55213932D01*
X234480628Y-55455977D01*
X234476896Y-55526875D01*
X234435425Y-55584501D01*
X234369383Y-55610558D01*
X234319099Y-55604903D01*
X234037079Y-55513269D01*
X233728015Y-55454312D01*
X233634511Y-55448429D01*
X233494578Y-55439625D01*
X233494562Y-55439624D01*
X233492583Y-55439500D01*
X233335417Y-55439500D01*
X233333438Y-55439624D01*
X233333422Y-55439625D01*
X233193489Y-55448429D01*
X233099985Y-55454312D01*
X232790921Y-55513269D01*
X232787144Y-55514496D01*
X232787145Y-55514496D01*
X232508902Y-55604903D01*
X232491685Y-55610497D01*
X232488099Y-55612184D01*
X232488095Y-55612186D01*
X232210579Y-55742775D01*
X232210572Y-55742779D01*
X232206993Y-55744463D01*
X231941337Y-55913053D01*
X231698906Y-56113610D01*
X231483522Y-56342970D01*
X231298584Y-56597516D01*
X231147006Y-56873234D01*
X231031181Y-57165775D01*
X231030197Y-57169609D01*
X231030194Y-57169617D01*
X230981807Y-57358074D01*
X230952934Y-57470527D01*
X230913500Y-57782682D01*
X230913500Y-58097318D01*
X230952934Y-58409473D01*
X230953920Y-58413312D01*
X231030194Y-58710383D01*
X231030197Y-58710391D01*
X231031181Y-58714225D01*
X231147006Y-59006766D01*
X231298584Y-59282484D01*
X231483522Y-59537030D01*
X231698906Y-59766390D01*
X231941337Y-59966947D01*
X232206993Y-60135537D01*
X232210572Y-60137221D01*
X232210579Y-60137225D01*
X232488095Y-60267814D01*
X232488099Y-60267816D01*
X232491685Y-60269503D01*
X232790921Y-60366731D01*
X233099985Y-60425688D01*
X233193489Y-60431571D01*
X233333422Y-60440375D01*
X233333438Y-60440376D01*
X233335417Y-60440500D01*
X233492583Y-60440500D01*
X233494562Y-60440376D01*
X233494578Y-60440375D01*
X233634511Y-60431571D01*
X233728015Y-60425688D01*
X234037079Y-60366731D01*
X234336315Y-60269503D01*
X234339901Y-60267816D01*
X234339905Y-60267814D01*
X234617421Y-60137225D01*
X234617428Y-60137221D01*
X234621007Y-60135537D01*
X234886663Y-59966947D01*
X235129094Y-59766390D01*
X235344478Y-59537030D01*
X235529416Y-59282484D01*
X235680994Y-59006766D01*
X235796819Y-58714225D01*
X235797803Y-58710391D01*
X235797806Y-58710383D01*
X235874080Y-58413312D01*
X235875066Y-58409473D01*
X235914500Y-58097318D01*
X235914500Y-58084955D01*
X235934502Y-58016834D01*
X235988158Y-57970341D01*
X236058432Y-57960237D01*
X236120731Y-57987801D01*
X236180473Y-58037137D01*
X236180491Y-58037151D01*
X236182727Y-58038997D01*
X236185136Y-58040637D01*
X236185137Y-58040638D01*
X236532332Y-58277035D01*
X236532337Y-58277038D01*
X236534750Y-58278681D01*
X236537298Y-58280091D01*
X236537307Y-58280096D01*
X236764083Y-58405541D01*
X236907408Y-58484824D01*
X237297514Y-58655663D01*
X237701733Y-58789737D01*
X237704559Y-58790392D01*
X237704566Y-58790394D01*
X238113763Y-58885240D01*
X238113772Y-58885242D01*
X238116608Y-58885899D01*
X238538592Y-58943329D01*
X238541442Y-58943456D01*
X238541443Y-58943456D01*
X238832914Y-58956437D01*
X238832931Y-58956437D01*
X238834337Y-58956500D01*
X239057369Y-58956500D01*
X239058809Y-58956433D01*
X239058824Y-58956433D01*
X239197718Y-58950004D01*
X239373418Y-58941872D01*
X239795199Y-58882970D01*
X239798021Y-58882305D01*
X239798029Y-58882304D01*
X240206896Y-58786028D01*
X240206901Y-58786026D01*
X240209736Y-58785359D01*
X240403916Y-58720199D01*
X240474860Y-58717491D01*
X240536007Y-58753568D01*
X240567943Y-58816976D01*
X240570000Y-58839653D01*
X240570000Y-64930000D01*
X240549998Y-64998121D01*
X240496342Y-65044614D01*
X240444000Y-65056000D01*
X223867077Y-65056000D01*
X223856205Y-65055530D01*
X223805495Y-65051138D01*
X223801060Y-65051382D01*
X223801056Y-65051382D01*
X223720603Y-65055810D01*
X223713679Y-65056000D01*
X223701844Y-65056000D01*
X223699631Y-65056157D01*
X223699622Y-65056157D01*
X223682920Y-65057340D01*
X223649381Y-65059714D01*
X223647548Y-65059830D01*
X223522693Y-65066702D01*
X223518329Y-65067570D01*
X223518330Y-65067570D01*
X223514980Y-65068236D01*
X223499306Y-65070341D01*
X223498512Y-65070397D01*
X223495925Y-65070580D01*
X223495922Y-65070580D01*
X223491478Y-65070895D01*
X223396187Y-65091411D01*
X223369342Y-65097190D01*
X223367404Y-65097591D01*
X223249269Y-65121089D01*
X223249267Y-65121090D01*
X223244906Y-65121957D01*
X223240711Y-65123430D01*
X223240704Y-65123432D01*
X223237492Y-65124560D01*
X223222280Y-65128851D01*
X223214592Y-65130506D01*
X223210415Y-65132047D01*
X223097360Y-65173755D01*
X223095498Y-65174425D01*
X222981883Y-65214324D01*
X222981880Y-65214325D01*
X222977675Y-65215802D01*
X222973722Y-65217855D01*
X222973714Y-65217859D01*
X222970706Y-65219422D01*
X222956238Y-65225819D01*
X222948869Y-65228537D01*
X222870383Y-65270886D01*
X222838918Y-65287863D01*
X222837169Y-65288789D01*
X222726333Y-65346364D01*
X222722713Y-65348951D01*
X222719948Y-65350927D01*
X222706515Y-65359304D01*
X222699609Y-65363030D01*
X222696021Y-65365680D01*
X222696015Y-65365684D01*
X222599156Y-65437226D01*
X222597558Y-65438388D01*
X222495895Y-65511037D01*
X222492676Y-65514108D01*
X222492666Y-65514116D01*
X222490208Y-65516461D01*
X222478099Y-65526640D01*
X222475370Y-65528655D01*
X222475364Y-65528660D01*
X222471786Y-65531303D01*
X222382773Y-65618929D01*
X222381385Y-65620273D01*
X222294187Y-65703457D01*
X222294183Y-65703462D01*
X222290959Y-65706537D01*
X222286235Y-65712530D01*
X222286098Y-65712703D01*
X222275544Y-65724487D01*
X222269946Y-65729998D01*
X222194118Y-65829355D01*
X222193004Y-65830792D01*
X222115613Y-65928962D01*
X222113381Y-65932804D01*
X222113378Y-65932809D01*
X222111669Y-65935752D01*
X222102878Y-65948908D01*
X222098115Y-65955149D01*
X222095940Y-65959033D01*
X222037055Y-66064180D01*
X222036113Y-66065831D01*
X221973357Y-66173874D01*
X221971687Y-66177996D01*
X221971682Y-66178007D01*
X221970410Y-66181148D01*
X221963562Y-66195412D01*
X221959723Y-66202266D01*
X221937140Y-66260641D01*
X221914641Y-66318797D01*
X221913945Y-66320554D01*
X221867028Y-66436387D01*
X221865953Y-66440714D01*
X221865952Y-66440718D01*
X221865134Y-66444010D01*
X221860362Y-66459099D01*
X221857531Y-66466417D01*
X221856526Y-66470752D01*
X221856525Y-66470756D01*
X221829332Y-66588077D01*
X221828870Y-66590002D01*
X221799962Y-66706376D01*
X221764127Y-66767665D01*
X221700845Y-66799852D01*
X221677678Y-66802000D01*
X217174277Y-66802000D01*
X217106156Y-66781998D01*
X217059663Y-66728342D01*
X217049270Y-66660211D01*
X217060500Y-66571318D01*
X217060500Y-66256682D01*
X217021961Y-65951608D01*
X217021563Y-65948459D01*
X217021562Y-65948455D01*
X217021066Y-65944527D01*
X216991478Y-65829291D01*
X216943806Y-65643617D01*
X216943803Y-65643609D01*
X216942819Y-65639775D01*
X216934840Y-65619621D01*
X216828448Y-65350907D01*
X216826994Y-65347234D01*
X216794864Y-65288789D01*
X216707846Y-65130506D01*
X216675416Y-65071516D01*
X216672550Y-65067570D01*
X216492806Y-64820174D01*
X216492805Y-64820172D01*
X216490478Y-64816970D01*
X216275094Y-64587610D01*
X216032663Y-64387053D01*
X215767007Y-64218463D01*
X215763428Y-64216779D01*
X215763421Y-64216775D01*
X215485905Y-64086186D01*
X215485901Y-64086184D01*
X215482315Y-64084497D01*
X215183079Y-63987269D01*
X214874015Y-63928312D01*
X214780511Y-63922429D01*
X214640578Y-63913625D01*
X214640562Y-63913624D01*
X214638583Y-63913500D01*
X214481417Y-63913500D01*
X214479438Y-63913624D01*
X214479422Y-63913625D01*
X214339489Y-63922429D01*
X214245985Y-63928312D01*
X213936921Y-63987269D01*
X213637685Y-64084497D01*
X213634099Y-64086184D01*
X213634095Y-64086186D01*
X213356579Y-64216775D01*
X213356572Y-64216779D01*
X213352993Y-64218463D01*
X213087337Y-64387053D01*
X212844906Y-64587610D01*
X212629522Y-64816970D01*
X212627195Y-64820172D01*
X212627194Y-64820174D01*
X212447451Y-65067570D01*
X212444584Y-65071516D01*
X212412154Y-65130506D01*
X212325137Y-65288789D01*
X212293006Y-65347234D01*
X212291552Y-65350907D01*
X212185161Y-65619621D01*
X212177181Y-65639775D01*
X212176197Y-65643609D01*
X212176194Y-65643617D01*
X212128522Y-65829291D01*
X212098934Y-65944527D01*
X212098438Y-65948455D01*
X212098437Y-65948459D01*
X212098039Y-65951608D01*
X212059500Y-66256682D01*
X212059500Y-66571318D01*
X212070730Y-66660211D01*
X212059423Y-66730299D01*
X212012017Y-66783150D01*
X211945723Y-66802000D01*
X210058000Y-66802000D01*
X210058000Y-100776994D01*
X210037998Y-100845115D01*
X209984342Y-100891608D01*
X209958519Y-100900172D01*
X209907342Y-100911190D01*
X209905404Y-100911591D01*
X209787269Y-100935089D01*
X209787267Y-100935090D01*
X209782906Y-100935957D01*
X209778711Y-100937430D01*
X209778704Y-100937432D01*
X209775492Y-100938560D01*
X209760280Y-100942851D01*
X209752592Y-100944506D01*
X209748415Y-100946047D01*
X209635360Y-100987755D01*
X209633498Y-100988425D01*
X209519883Y-101028324D01*
X209519880Y-101028325D01*
X209515675Y-101029802D01*
X209511722Y-101031855D01*
X209511714Y-101031859D01*
X209508706Y-101033422D01*
X209494238Y-101039819D01*
X209486869Y-101042537D01*
X209408383Y-101084886D01*
X209376918Y-101101863D01*
X209375169Y-101102789D01*
X209264333Y-101160364D01*
X209260713Y-101162951D01*
X209257948Y-101164927D01*
X209244515Y-101173304D01*
X209237609Y-101177030D01*
X209234021Y-101179680D01*
X209234015Y-101179684D01*
X209137156Y-101251226D01*
X209135558Y-101252388D01*
X209033895Y-101325037D01*
X209030676Y-101328108D01*
X209030666Y-101328116D01*
X209028208Y-101330461D01*
X209016099Y-101340640D01*
X209013370Y-101342655D01*
X209013364Y-101342660D01*
X209009786Y-101345303D01*
X208920773Y-101432929D01*
X208919385Y-101434273D01*
X208832187Y-101517457D01*
X208832183Y-101517462D01*
X208828959Y-101520537D01*
X208824235Y-101526530D01*
X208824098Y-101526703D01*
X208813544Y-101538487D01*
X208807946Y-101543998D01*
X208732118Y-101643355D01*
X208731004Y-101644792D01*
X208653613Y-101742962D01*
X208651381Y-101746804D01*
X208651378Y-101746809D01*
X208649669Y-101749752D01*
X208640878Y-101762908D01*
X208636115Y-101769149D01*
X208633940Y-101773033D01*
X208575055Y-101878180D01*
X208574113Y-101879831D01*
X208511357Y-101987874D01*
X208509687Y-101991996D01*
X208509682Y-101992007D01*
X208508410Y-101995148D01*
X208501562Y-102009412D01*
X208497723Y-102016266D01*
X208496119Y-102020412D01*
X208452641Y-102132797D01*
X208451945Y-102134554D01*
X208405028Y-102250387D01*
X208403953Y-102254714D01*
X208403952Y-102254718D01*
X208403134Y-102258010D01*
X208398362Y-102273099D01*
X208395531Y-102280417D01*
X208394526Y-102284752D01*
X208394525Y-102284756D01*
X208367332Y-102402077D01*
X208366877Y-102403974D01*
X208336748Y-102525263D01*
X208335946Y-102533090D01*
X208333353Y-102548669D01*
X208331577Y-102556332D01*
X208331193Y-102560764D01*
X208331193Y-102560765D01*
X208320801Y-102680751D01*
X208320615Y-102682721D01*
X208312000Y-102766806D01*
X208312000Y-102776923D01*
X208311530Y-102787794D01*
X208307138Y-102838505D01*
X208307382Y-102842940D01*
X208307382Y-102842944D01*
X208311810Y-102923397D01*
X208312000Y-102930321D01*
X208312000Y-108078000D01*
X208291998Y-108146121D01*
X208238342Y-108192614D01*
X208186000Y-108204000D01*
X192404549Y-108204000D01*
X192336428Y-108183998D01*
X192289935Y-108130342D01*
X192278550Y-108077452D01*
X192301348Y-102834073D01*
X192457950Y-66815548D01*
X192495856Y-58097318D01*
X215913500Y-58097318D01*
X215952934Y-58409473D01*
X215953920Y-58413312D01*
X216030194Y-58710383D01*
X216030197Y-58710391D01*
X216031181Y-58714225D01*
X216147006Y-59006766D01*
X216298584Y-59282484D01*
X216483522Y-59537030D01*
X216698906Y-59766390D01*
X216941337Y-59966947D01*
X217206993Y-60135537D01*
X217210572Y-60137221D01*
X217210579Y-60137225D01*
X217488095Y-60267814D01*
X217488099Y-60267816D01*
X217491685Y-60269503D01*
X217790921Y-60366731D01*
X218099985Y-60425688D01*
X218193489Y-60431571D01*
X218333422Y-60440375D01*
X218333438Y-60440376D01*
X218335417Y-60440500D01*
X218492583Y-60440500D01*
X218494562Y-60440376D01*
X218494578Y-60440375D01*
X218634511Y-60431571D01*
X218728015Y-60425688D01*
X219037079Y-60366731D01*
X219336315Y-60269503D01*
X219339901Y-60267816D01*
X219339905Y-60267814D01*
X219617421Y-60137225D01*
X219617428Y-60137221D01*
X219621007Y-60135537D01*
X219886663Y-59966947D01*
X220129094Y-59766390D01*
X220344478Y-59537030D01*
X220529416Y-59282484D01*
X220680994Y-59006766D01*
X220796819Y-58714225D01*
X220797803Y-58710391D01*
X220797806Y-58710383D01*
X220874080Y-58413312D01*
X220875066Y-58409473D01*
X220914500Y-58097318D01*
X220914500Y-57782682D01*
X220875066Y-57470527D01*
X220846193Y-57358074D01*
X220797806Y-57169617D01*
X220797803Y-57169609D01*
X220796819Y-57165775D01*
X220680994Y-56873234D01*
X220529416Y-56597516D01*
X220344478Y-56342970D01*
X220129094Y-56113610D01*
X219886663Y-55913053D01*
X219621007Y-55744463D01*
X219617428Y-55742779D01*
X219617421Y-55742775D01*
X219339905Y-55612186D01*
X219339901Y-55612184D01*
X219336315Y-55610497D01*
X219319099Y-55604903D01*
X219040855Y-55514496D01*
X219040856Y-55514496D01*
X219037079Y-55513269D01*
X218728015Y-55454312D01*
X218634511Y-55448429D01*
X218494578Y-55439625D01*
X218494562Y-55439624D01*
X218492583Y-55439500D01*
X218335417Y-55439500D01*
X218333438Y-55439624D01*
X218333422Y-55439625D01*
X218193489Y-55448429D01*
X218099985Y-55454312D01*
X217790921Y-55513269D01*
X217787144Y-55514496D01*
X217787145Y-55514496D01*
X217508902Y-55604903D01*
X217491685Y-55610497D01*
X217488099Y-55612184D01*
X217488095Y-55612186D01*
X217210579Y-55742775D01*
X217210572Y-55742779D01*
X217206993Y-55744463D01*
X216941337Y-55913053D01*
X216698906Y-56113610D01*
X216483522Y-56342970D01*
X216298584Y-56597516D01*
X216147006Y-56873234D01*
X216031181Y-57165775D01*
X216030197Y-57169609D01*
X216030194Y-57169617D01*
X215981807Y-57358074D01*
X215952934Y-57470527D01*
X215913500Y-57782682D01*
X215913500Y-58097318D01*
X192495856Y-58097318D01*
X192523864Y-51655452D01*
X192544162Y-51587419D01*
X192598020Y-51541160D01*
X192649863Y-51530000D01*
X235068221Y-51530000D01*
X235136342Y-51550002D01*
G37*
%TD.AperFunction*%
%TD*%
%TA.AperFunction,Conductor*%
%TO.N,Voltage_OUT*%
G36*
X98240121Y-51550002D02*
G01*
X98286614Y-51603658D01*
X98298000Y-51656000D01*
X98298000Y-55416176D01*
X98277998Y-55484297D01*
X98224342Y-55530790D01*
X98154068Y-55540894D01*
X98133071Y-55536011D01*
X98063079Y-55513269D01*
X97754015Y-55454312D01*
X97660511Y-55448429D01*
X97520578Y-55439625D01*
X97520562Y-55439624D01*
X97518583Y-55439500D01*
X97361417Y-55439500D01*
X97359438Y-55439624D01*
X97359422Y-55439625D01*
X97219489Y-55448429D01*
X97125985Y-55454312D01*
X96816921Y-55513269D01*
X96517685Y-55610497D01*
X96514099Y-55612184D01*
X96514095Y-55612186D01*
X96236579Y-55742775D01*
X96236572Y-55742779D01*
X96232993Y-55744463D01*
X95967337Y-55913053D01*
X95724906Y-56113610D01*
X95509522Y-56342970D01*
X95324584Y-56597516D01*
X95173006Y-56873234D01*
X95057181Y-57165775D01*
X95056197Y-57169609D01*
X95056194Y-57169617D01*
X95007807Y-57358074D01*
X94978934Y-57470527D01*
X94939500Y-57782682D01*
X94939500Y-58097318D01*
X94978934Y-58409473D01*
X94979920Y-58413312D01*
X95056194Y-58710383D01*
X95056197Y-58710391D01*
X95057181Y-58714225D01*
X95173006Y-59006766D01*
X95324584Y-59282484D01*
X95509522Y-59537030D01*
X95724906Y-59766390D01*
X95967337Y-59966947D01*
X96232993Y-60135537D01*
X96236572Y-60137221D01*
X96236579Y-60137225D01*
X96514095Y-60267814D01*
X96514099Y-60267816D01*
X96517685Y-60269503D01*
X96816921Y-60366731D01*
X97125985Y-60425688D01*
X97219489Y-60431571D01*
X97359422Y-60440375D01*
X97359438Y-60440376D01*
X97361417Y-60440500D01*
X97518583Y-60440500D01*
X97520562Y-60440376D01*
X97520578Y-60440375D01*
X97660511Y-60431571D01*
X97754015Y-60425688D01*
X98063079Y-60366731D01*
X98133066Y-60343991D01*
X98204031Y-60341963D01*
X98264829Y-60378625D01*
X98296154Y-60442337D01*
X98298000Y-60463824D01*
X98298000Y-85852000D01*
X136527145Y-85852000D01*
X136595266Y-85872002D01*
X136641759Y-85925658D01*
X136653140Y-85976849D01*
X136708735Y-92064529D01*
X137142741Y-139588068D01*
X137142894Y-139604849D01*
X137123515Y-139673150D01*
X137070286Y-139720131D01*
X137016899Y-139732000D01*
X88122965Y-139732000D01*
X88054844Y-139711998D01*
X88008351Y-139658342D01*
X87998247Y-139588068D01*
X88030067Y-139520878D01*
X88301948Y-139224172D01*
X88581055Y-138860432D01*
X88827398Y-138473751D01*
X89039102Y-138067071D01*
X89214556Y-137643488D01*
X89352425Y-137206224D01*
X89451659Y-136758608D01*
X89511503Y-136304047D01*
X89526500Y-135960563D01*
X89526499Y-129231438D01*
X89511503Y-128887953D01*
X89451659Y-128433392D01*
X89352425Y-127985776D01*
X89214556Y-127548512D01*
X89039102Y-127124929D01*
X88827398Y-126718249D01*
X88581055Y-126331568D01*
X88301948Y-125967828D01*
X87992201Y-125629799D01*
X87670874Y-125335357D01*
X87634165Y-125274589D01*
X87630000Y-125242461D01*
X87630000Y-117583637D01*
X104206746Y-117583637D01*
X104224559Y-117935269D01*
X104225096Y-117938624D01*
X104225097Y-117938630D01*
X104250384Y-118096500D01*
X104280243Y-118282920D01*
X104373149Y-118622524D01*
X104502187Y-118950108D01*
X104665850Y-119261840D01*
X104667751Y-119264669D01*
X104667757Y-119264679D01*
X104848851Y-119534173D01*
X104862223Y-119554073D01*
X105089007Y-119823388D01*
X105091467Y-119825739D01*
X105091470Y-119825742D01*
X105341089Y-120064283D01*
X105341096Y-120064289D01*
X105343552Y-120066636D01*
X105622878Y-120280971D01*
X105625796Y-120282745D01*
X105920803Y-120462112D01*
X105920808Y-120462115D01*
X105923718Y-120463884D01*
X106242553Y-120613237D01*
X106245771Y-120614339D01*
X106245774Y-120614340D01*
X106572430Y-120726180D01*
X106572438Y-120726182D01*
X106575653Y-120727283D01*
X106919122Y-120804687D01*
X106967474Y-120810196D01*
X107265559Y-120844159D01*
X107265567Y-120844159D01*
X107268942Y-120844544D01*
X107272346Y-120844562D01*
X107272349Y-120844562D01*
X107464330Y-120845567D01*
X107621019Y-120846388D01*
X107624405Y-120846038D01*
X107624407Y-120846038D01*
X107967845Y-120810547D01*
X107967853Y-120810546D01*
X107971237Y-120810196D01*
X107974570Y-120809481D01*
X107974573Y-120809481D01*
X108144021Y-120773155D01*
X108315498Y-120736393D01*
X108649774Y-120625842D01*
X108970156Y-120479835D01*
X109063584Y-120424362D01*
X109269950Y-120301831D01*
X109269955Y-120301828D01*
X109272895Y-120300082D01*
X109298349Y-120280971D01*
X109551718Y-120090737D01*
X109551727Y-120090730D01*
X109554450Y-120088685D01*
X109811527Y-119848116D01*
X110041120Y-119581190D01*
X110145855Y-119428799D01*
X110238612Y-119293838D01*
X110238617Y-119293831D01*
X110240542Y-119291029D01*
X110242154Y-119288035D01*
X110242159Y-119288027D01*
X110405838Y-118984040D01*
X110407460Y-118981028D01*
X110539922Y-118654814D01*
X110550058Y-118619233D01*
X110635444Y-118319479D01*
X110636378Y-118316201D01*
X110695701Y-117969152D01*
X110697774Y-117935269D01*
X110717085Y-117619522D01*
X110717195Y-117617726D01*
X110717274Y-117595000D01*
X110716659Y-117583637D01*
X124506746Y-117583637D01*
X124524559Y-117935269D01*
X124525096Y-117938624D01*
X124525097Y-117938630D01*
X124550384Y-118096500D01*
X124580243Y-118282920D01*
X124673149Y-118622524D01*
X124802187Y-118950108D01*
X124965850Y-119261840D01*
X124967751Y-119264669D01*
X124967757Y-119264679D01*
X125148851Y-119534173D01*
X125162223Y-119554073D01*
X125389007Y-119823388D01*
X125391467Y-119825739D01*
X125391470Y-119825742D01*
X125641089Y-120064283D01*
X125641096Y-120064289D01*
X125643552Y-120066636D01*
X125922878Y-120280971D01*
X125925796Y-120282745D01*
X126220803Y-120462112D01*
X126220808Y-120462115D01*
X126223718Y-120463884D01*
X126542553Y-120613237D01*
X126545771Y-120614339D01*
X126545774Y-120614340D01*
X126872430Y-120726180D01*
X126872438Y-120726182D01*
X126875653Y-120727283D01*
X127219122Y-120804687D01*
X127267474Y-120810196D01*
X127565559Y-120844159D01*
X127565567Y-120844159D01*
X127568942Y-120844544D01*
X127572346Y-120844562D01*
X127572349Y-120844562D01*
X127764330Y-120845567D01*
X127921019Y-120846388D01*
X127924405Y-120846038D01*
X127924407Y-120846038D01*
X128267845Y-120810547D01*
X128267853Y-120810546D01*
X128271237Y-120810196D01*
X128274570Y-120809481D01*
X128274573Y-120809481D01*
X128444021Y-120773155D01*
X128615498Y-120736393D01*
X128949774Y-120625842D01*
X129270156Y-120479835D01*
X129363584Y-120424362D01*
X129569950Y-120301831D01*
X129569955Y-120301828D01*
X129572895Y-120300082D01*
X129598349Y-120280971D01*
X129851718Y-120090737D01*
X129851727Y-120090730D01*
X129854450Y-120088685D01*
X130111527Y-119848116D01*
X130341120Y-119581190D01*
X130445855Y-119428799D01*
X130538612Y-119293838D01*
X130538617Y-119293831D01*
X130540542Y-119291029D01*
X130542154Y-119288035D01*
X130542159Y-119288027D01*
X130705838Y-118984040D01*
X130707460Y-118981028D01*
X130839922Y-118654814D01*
X130850058Y-118619233D01*
X130935444Y-118319479D01*
X130936378Y-118316201D01*
X130995701Y-117969152D01*
X130997774Y-117935269D01*
X131017085Y-117619522D01*
X131017195Y-117617726D01*
X131017274Y-117595000D01*
X130998234Y-117243433D01*
X130941336Y-116895978D01*
X130847246Y-116556700D01*
X130845988Y-116553538D01*
X130845985Y-116553530D01*
X130718324Y-116232734D01*
X130718320Y-116232726D01*
X130717064Y-116229569D01*
X130715276Y-116226192D01*
X130553909Y-115921422D01*
X130553907Y-115921419D01*
X130552314Y-115918410D01*
X130354923Y-115626864D01*
X130347258Y-115617825D01*
X130222998Y-115471303D01*
X130127200Y-115358342D01*
X129871808Y-115115984D01*
X129869101Y-115113922D01*
X129869093Y-115113915D01*
X129711051Y-114993521D01*
X129591735Y-114902626D01*
X129561913Y-114884636D01*
X129293174Y-114722522D01*
X129293168Y-114722519D01*
X129290259Y-114720764D01*
X128970904Y-114572524D01*
X128804156Y-114516083D01*
X128640635Y-114460734D01*
X128640630Y-114460733D01*
X128637408Y-114459642D01*
X128413265Y-114409950D01*
X128297001Y-114384175D01*
X128296997Y-114384174D01*
X128293671Y-114383437D01*
X128150813Y-114367666D01*
X127947096Y-114345175D01*
X127947089Y-114345175D01*
X127943714Y-114344802D01*
X127940315Y-114344796D01*
X127940314Y-114344796D01*
X127774777Y-114344507D01*
X127591632Y-114344187D01*
X127461131Y-114358134D01*
X127244927Y-114381239D01*
X127244921Y-114381240D01*
X127241543Y-114381601D01*
X127238220Y-114382325D01*
X127238217Y-114382326D01*
X126900862Y-114455881D01*
X126900860Y-114455882D01*
X126897542Y-114456605D01*
X126563654Y-114568323D01*
X126243784Y-114715447D01*
X126240850Y-114717203D01*
X126240848Y-114717204D01*
X126152052Y-114770348D01*
X125941674Y-114896256D01*
X125660858Y-115108635D01*
X125404622Y-115350099D01*
X125175963Y-115617825D01*
X125174035Y-115620652D01*
X125174033Y-115620654D01*
X125008985Y-115862606D01*
X124977555Y-115908680D01*
X124975948Y-115911690D01*
X124975946Y-115911693D01*
X124970751Y-115921422D01*
X124811720Y-116219262D01*
X124680397Y-116545937D01*
X124679475Y-116549217D01*
X124679474Y-116549220D01*
X124677372Y-116556700D01*
X124585124Y-116884884D01*
X124527013Y-117232138D01*
X124506746Y-117583637D01*
X110716659Y-117583637D01*
X110698234Y-117243433D01*
X110641336Y-116895978D01*
X110547246Y-116556700D01*
X110545988Y-116553538D01*
X110545985Y-116553530D01*
X110418324Y-116232734D01*
X110418320Y-116232726D01*
X110417064Y-116229569D01*
X110415276Y-116226192D01*
X110253909Y-115921422D01*
X110253907Y-115921419D01*
X110252314Y-115918410D01*
X110054923Y-115626864D01*
X110047258Y-115617825D01*
X109922998Y-115471303D01*
X109827200Y-115358342D01*
X109571808Y-115115984D01*
X109569101Y-115113922D01*
X109569093Y-115113915D01*
X109411051Y-114993521D01*
X109291735Y-114902626D01*
X109261913Y-114884636D01*
X108993174Y-114722522D01*
X108993168Y-114722519D01*
X108990259Y-114720764D01*
X108670904Y-114572524D01*
X108504156Y-114516083D01*
X108340635Y-114460734D01*
X108340630Y-114460733D01*
X108337408Y-114459642D01*
X108113265Y-114409950D01*
X107997001Y-114384175D01*
X107996997Y-114384174D01*
X107993671Y-114383437D01*
X107850813Y-114367666D01*
X107647096Y-114345175D01*
X107647089Y-114345175D01*
X107643714Y-114344802D01*
X107640315Y-114344796D01*
X107640314Y-114344796D01*
X107474777Y-114344507D01*
X107291632Y-114344187D01*
X107161131Y-114358134D01*
X106944927Y-114381239D01*
X106944921Y-114381240D01*
X106941543Y-114381601D01*
X106938220Y-114382325D01*
X106938217Y-114382326D01*
X106600862Y-114455881D01*
X106600860Y-114455882D01*
X106597542Y-114456605D01*
X106263654Y-114568323D01*
X105943784Y-114715447D01*
X105940850Y-114717203D01*
X105940848Y-114717204D01*
X105852052Y-114770348D01*
X105641674Y-114896256D01*
X105360858Y-115108635D01*
X105104622Y-115350099D01*
X104875963Y-115617825D01*
X104874035Y-115620652D01*
X104874033Y-115620654D01*
X104708985Y-115862606D01*
X104677555Y-115908680D01*
X104675948Y-115911690D01*
X104675946Y-115911693D01*
X104670751Y-115921422D01*
X104511720Y-116219262D01*
X104380397Y-116545937D01*
X104379475Y-116549217D01*
X104379474Y-116549220D01*
X104377372Y-116556700D01*
X104285124Y-116884884D01*
X104227013Y-117232138D01*
X104206746Y-117583637D01*
X87630000Y-117583637D01*
X87630000Y-116949539D01*
X87650002Y-116881418D01*
X87670873Y-116856644D01*
X87992201Y-116562201D01*
X88301948Y-116224172D01*
X88308023Y-116216256D01*
X88398581Y-116098238D01*
X88581055Y-115860432D01*
X88827398Y-115473751D01*
X89039102Y-115067071D01*
X89214556Y-114643488D01*
X89237276Y-114571432D01*
X89351596Y-114208854D01*
X89351597Y-114208849D01*
X89352425Y-114206224D01*
X89451659Y-113758608D01*
X89511503Y-113304047D01*
X89526500Y-112960563D01*
X89526499Y-106231438D01*
X89511503Y-105887953D01*
X89451659Y-105433392D01*
X89352425Y-104985776D01*
X89214556Y-104548512D01*
X89039102Y-104124929D01*
X88827398Y-103718249D01*
X88581055Y-103331568D01*
X88301948Y-102967828D01*
X87992201Y-102629799D01*
X87670874Y-102335357D01*
X87634165Y-102274589D01*
X87630000Y-102242461D01*
X87630000Y-93949539D01*
X87650002Y-93881418D01*
X87670873Y-93856644D01*
X87992201Y-93562201D01*
X88301948Y-93224172D01*
X88581055Y-92860432D01*
X88827398Y-92473751D01*
X89039102Y-92067071D01*
X89214556Y-91643488D01*
X89352425Y-91206224D01*
X89451659Y-90758608D01*
X89511503Y-90304047D01*
X89526500Y-89960563D01*
X89526499Y-83231438D01*
X89511503Y-82887953D01*
X89451659Y-82433392D01*
X89352425Y-81985776D01*
X89214556Y-81548512D01*
X89039102Y-81124929D01*
X88827398Y-80718249D01*
X88581055Y-80331568D01*
X88301948Y-79967828D01*
X87992201Y-79629799D01*
X87670874Y-79335357D01*
X87634165Y-79274589D01*
X87630000Y-79242461D01*
X87630000Y-60479421D01*
X87650002Y-60411300D01*
X87703658Y-60364807D01*
X87773932Y-60354703D01*
X87794936Y-60359588D01*
X87813150Y-60365506D01*
X87813154Y-60365507D01*
X87816921Y-60366731D01*
X88125985Y-60425688D01*
X88219489Y-60431571D01*
X88359422Y-60440375D01*
X88359438Y-60440376D01*
X88361417Y-60440500D01*
X88518583Y-60440500D01*
X88520562Y-60440376D01*
X88520578Y-60440375D01*
X88660511Y-60431571D01*
X88754015Y-60425688D01*
X89063079Y-60366731D01*
X89362315Y-60269503D01*
X89365901Y-60267816D01*
X89365905Y-60267814D01*
X89643421Y-60137225D01*
X89643428Y-60137221D01*
X89647007Y-60135537D01*
X89912663Y-59966947D01*
X90155094Y-59766390D01*
X90370478Y-59537030D01*
X90555416Y-59282484D01*
X90706994Y-59006766D01*
X90822819Y-58714225D01*
X90823803Y-58710391D01*
X90823806Y-58710383D01*
X90900080Y-58413312D01*
X90901066Y-58409473D01*
X90940500Y-58097318D01*
X90940500Y-57782682D01*
X90901066Y-57470527D01*
X90872193Y-57358074D01*
X90823806Y-57169617D01*
X90823803Y-57169609D01*
X90822819Y-57165775D01*
X90706994Y-56873234D01*
X90555416Y-56597516D01*
X90370478Y-56342970D01*
X90155094Y-56113610D01*
X89912663Y-55913053D01*
X89647007Y-55744463D01*
X89643428Y-55742779D01*
X89643421Y-55742775D01*
X89365905Y-55612186D01*
X89365901Y-55612184D01*
X89362315Y-55610497D01*
X89063079Y-55513269D01*
X88754015Y-55454312D01*
X88660511Y-55448429D01*
X88520578Y-55439625D01*
X88520562Y-55439624D01*
X88518583Y-55439500D01*
X88361417Y-55439500D01*
X88359438Y-55439624D01*
X88359422Y-55439625D01*
X88219489Y-55448429D01*
X88125985Y-55454312D01*
X87816921Y-55513269D01*
X87813154Y-55514493D01*
X87813150Y-55514494D01*
X87794936Y-55520412D01*
X87723968Y-55522439D01*
X87663170Y-55485777D01*
X87631845Y-55422065D01*
X87630000Y-55400579D01*
X87630000Y-51656000D01*
X87650002Y-51587879D01*
X87703658Y-51541386D01*
X87756000Y-51530000D01*
X98172000Y-51530000D01*
X98240121Y-51550002D01*
G37*
%TD.AperFunction*%
%TD*%
M02*
