M48
; DRILL file {KiCad (6.0.1)} date Wed Jun  1 15:29:16 2022
; FORMAT={-:-/ absolute / metric / decimal}
; #@! TF.CreationDate,2022-06-01T15:29:16+03:00
; #@! TF.GenerationSoftware,Kicad,Pcbnew,(6.0.1)
; #@! TF.FileFunction,NonPlated,1,4,NPTH
FMAT,2
METRIC
; #@! TA.AperFunction,NonPlated,NPTH,ComponentDrill
T1C1.000
; #@! TA.AperFunction,NonPlated,NPTH,ComponentDrill
T2C3.200
; #@! TA.AperFunction,NonPlated,NPTH,ComponentDrill
T3C8.000
%
G90
G05
T1
X88.44Y-57.94
X97.44Y-57.94
X103.262Y-57.94
X112.262Y-57.94
X162.84Y-57.94
X173.3Y-127.886
X177.84Y-57.94
X182.3Y-127.886
X185.746Y-127.886
X194.746Y-127.886
X198.192Y-127.886
X207.192Y-127.886
X214.56Y-66.414
X214.56Y-81.414
X214.56Y-84.956
X214.56Y-99.956
X218.414Y-57.94
X233.414Y-57.94
T2
X238.948Y-54.356
T3
X81.026Y-69.596
X154.178Y-69.474
T0
M30
