M48
; DRILL file {KiCad (6.0.1)} date Wed Jun  1 15:29:16 2022
; FORMAT={-:-/ absolute / metric / decimal}
; #@! TF.CreationDate,2022-06-01T15:29:16+03:00
; #@! TF.GenerationSoftware,Kicad,Pcbnew,(6.0.1)
; #@! TF.FileFunction,Plated,1,4,PTH
FMAT,2
METRIC
; #@! TA.AperFunction,Plated,PTH,ViaDrill
T1C0.400
; #@! TA.AperFunction,Plated,PTH,ComponentDrill
T2C1.000
; #@! TA.AperFunction,Plated,PTH,ComponentDrill
T3C1.500
; #@! TA.AperFunction,Plated,PTH,ComponentDrill
T4C6.000
%
G90
G05
T1
X182.372Y-108.204
X184.658Y-108.204
X186.712Y-108.182
T2
X91.44Y-54.0
X91.44Y-57.0
X94.44Y-54.0
X94.44Y-57.0
X106.262Y-54.0
X106.262Y-57.0
X109.262Y-54.0
X109.262Y-57.0
X165.84Y-54.0
X165.84Y-57.0
X168.84Y-54.0
X168.84Y-57.0
X171.84Y-54.0
X171.84Y-57.0
X174.84Y-54.0
X174.84Y-57.0
X176.3Y-128.826
X176.3Y-131.826
X176.53Y-101.102
X178.435Y-101.102
X179.3Y-128.826
X179.3Y-131.826
X180.34Y-101.102
X182.245Y-101.102
X184.15Y-101.102
X188.746Y-128.826
X188.746Y-131.826
X191.746Y-128.826
X191.746Y-131.826
X201.192Y-128.826
X201.192Y-131.826
X204.192Y-128.826
X204.192Y-131.826
X215.5Y-69.414
X215.5Y-72.414
X215.5Y-75.414
X215.5Y-78.414
X215.5Y-87.956
X215.5Y-90.956
X215.5Y-93.956
X215.5Y-96.956
X218.5Y-69.414
X218.5Y-72.414
X218.5Y-75.414
X218.5Y-78.414
X218.5Y-87.956
X218.5Y-90.956
X218.5Y-93.956
X218.5Y-96.956
X221.414Y-54.0
X221.414Y-57.0
X224.414Y-54.0
X224.414Y-57.0
X227.414Y-54.0
X227.414Y-57.0
X230.414Y-54.0
X230.414Y-57.0
T3
X107.462Y-65.095
X107.462Y-117.595
X127.762Y-65.095
X127.762Y-117.595
X173.99Y-83.312
X173.99Y-85.852
X173.99Y-88.392
X173.99Y-90.932
X180.594Y-65.031
X180.594Y-117.531
X186.69Y-83.312
X186.69Y-85.852
X186.69Y-88.392
X186.69Y-90.932
X200.894Y-65.031
X200.894Y-117.531
T4
X81.026Y-86.596
X81.026Y-109.596
X81.026Y-132.596
X154.178Y-86.474
X154.178Y-109.474
X154.178Y-132.474
T0
M30
