%TF.GenerationSoftware,KiCad,Pcbnew,(6.0.1)*%
%TF.CreationDate,2022-06-01T15:29:14+03:00*%
%TF.ProjectId,Power,506f7765-722e-46b6-9963-61645f706362,rev?*%
%TF.SameCoordinates,Original*%
%TF.FileFunction,Copper,L2,Inr*%
%TF.FilePolarity,Positive*%
%FSLAX46Y46*%
G04 Gerber Fmt 4.6, Leading zero omitted, Abs format (unit mm)*
G04 Created by KiCad (PCBNEW (6.0.1)) date 2022-06-01 15:29:14*
%MOMM*%
%LPD*%
G01*
G04 APERTURE LIST*
G04 Aperture macros list*
%AMRoundRect*
0 Rectangle with rounded corners*
0 $1 Rounding radius*
0 $2 $3 $4 $5 $6 $7 $8 $9 X,Y pos of 4 corners*
0 Add a 4 corners polygon primitive as box body*
4,1,4,$2,$3,$4,$5,$6,$7,$8,$9,$2,$3,0*
0 Add four circle primitives for the rounded corners*
1,1,$1+$1,$2,$3*
1,1,$1+$1,$4,$5*
1,1,$1+$1,$6,$7*
1,1,$1+$1,$8,$9*
0 Add four rect primitives between the rounded corners*
20,1,$1+$1,$2,$3,$4,$5,0*
20,1,$1+$1,$4,$5,$6,$7,0*
20,1,$1+$1,$6,$7,$8,$9,0*
20,1,$1+$1,$8,$9,$2,$3,0*%
G04 Aperture macros list end*
%TA.AperFunction,ComponentPad*%
%ADD10RoundRect,0.250001X-0.499999X0.499999X-0.499999X-0.499999X0.499999X-0.499999X0.499999X0.499999X0*%
%TD*%
%TA.AperFunction,ComponentPad*%
%ADD11C,1.500000*%
%TD*%
%TA.AperFunction,ComponentPad*%
%ADD12RoundRect,0.250001X0.499999X0.499999X-0.499999X0.499999X-0.499999X-0.499999X0.499999X-0.499999X0*%
%TD*%
%TA.AperFunction,ComponentPad*%
%ADD13RoundRect,3.250000X-3.250000X-3.250000X3.250000X-3.250000X3.250000X3.250000X-3.250000X3.250000X0*%
%TD*%
%TA.AperFunction,ComponentPad*%
%ADD14C,2.500000*%
%TD*%
%TA.AperFunction,ComponentPad*%
%ADD15RoundRect,0.250001X-0.499999X-0.499999X0.499999X-0.499999X0.499999X0.499999X-0.499999X0.499999X0*%
%TD*%
%TA.AperFunction,ComponentPad*%
%ADD16O,2.500000X2.000000*%
%TD*%
%TA.AperFunction,ComponentPad*%
%ADD17O,1.500000X2.000000*%
%TD*%
%TA.AperFunction,ViaPad*%
%ADD18C,0.800000*%
%TD*%
%TA.AperFunction,Conductor*%
%ADD19C,1.000000*%
%TD*%
%TA.AperFunction,Conductor*%
%ADD20C,1.500000*%
%TD*%
G04 APERTURE END LIST*
D10*
%TO.N,LPSR_IN*%
%TO.C,J3*%
X218500000Y-87956000D03*
D11*
X218500000Y-90956000D03*
X218500000Y-93956000D03*
X218500000Y-96956000D03*
X215500000Y-87956000D03*
X215500000Y-90956000D03*
X215500000Y-93956000D03*
X215500000Y-96956000D03*
%TD*%
D12*
%TO.N,GND*%
%TO.C,J9*%
X191746000Y-131826000D03*
D11*
%TO.N,Current_Measure*%
X188746000Y-131826000D03*
%TO.N,GND*%
X191746000Y-128826000D03*
%TO.N,Current_Measure*%
X188746000Y-128826000D03*
%TD*%
D12*
%TO.N,GNDPWR*%
%TO.C,J10*%
X179300000Y-131826000D03*
D11*
X176300000Y-131826000D03*
%TO.N,Voltage_IN*%
X179300000Y-128826000D03*
%TO.N,Voltage_OUT*%
X176300000Y-128826000D03*
%TD*%
D13*
%TO.N,Net-(D2-Pad1)*%
%TO.C,D2*%
X81026000Y-86596000D03*
%TO.N,Net-(C21-Pad1)*%
X81026000Y-109596000D03*
%TO.N,unconnected-(D2-Pad3)*%
X81026000Y-132596000D03*
%TD*%
D14*
%TO.N,Voltage_IN*%
%TO.C,C24*%
X200894000Y-65031000D03*
X180594000Y-65031000D03*
%TO.N,GNDPWR*%
X180594000Y-117531000D03*
X200894000Y-117531000D03*
%TD*%
D15*
%TO.N,Voltage_OUT*%
%TO.C,J1*%
X91440000Y-54000000D03*
D11*
X94440000Y-54000000D03*
X91440000Y-57000000D03*
X94440000Y-57000000D03*
%TD*%
D15*
%TO.N,GNDPWR*%
%TO.C,J6*%
X165840000Y-54000000D03*
D11*
X168840000Y-54000000D03*
X171840000Y-54000000D03*
X174840000Y-54000000D03*
X165840000Y-57000000D03*
X168840000Y-57000000D03*
X171840000Y-57000000D03*
X174840000Y-57000000D03*
%TD*%
D12*
%TO.N,+5V*%
%TO.C,J8*%
X204192000Y-131826000D03*
D11*
%TO.N,GND*%
X201192000Y-131826000D03*
%TO.N,+5V*%
X204192000Y-128826000D03*
%TO.N,GND*%
X201192000Y-128826000D03*
%TD*%
D14*
%TO.N,Net-(C21-Pad1)*%
%TO.C,C21*%
X107462000Y-117595000D03*
X127762000Y-117595000D03*
%TO.N,GNDPWR*%
X107462000Y-65095000D03*
X127762000Y-65095000D03*
%TD*%
D10*
%TO.N,Voltage_IN*%
%TO.C,J4*%
X218500000Y-69414000D03*
D11*
X218500000Y-72414000D03*
X218500000Y-75414000D03*
X218500000Y-78414000D03*
X215500000Y-69414000D03*
X215500000Y-72414000D03*
X215500000Y-75414000D03*
X215500000Y-78414000D03*
%TD*%
D13*
%TO.N,LPSR_OUT*%
%TO.C,D1*%
X154178000Y-86474000D03*
%TO.N,GNDPWR*%
X154178000Y-109474000D03*
%TO.N,Net-(C21-Pad1)*%
X154178000Y-132474000D03*
%TD*%
D15*
%TO.N,Voltage_IN*%
%TO.C,J5*%
X221414000Y-54000000D03*
D11*
X224414000Y-54000000D03*
X227414000Y-54000000D03*
X230414000Y-54000000D03*
X221414000Y-57000000D03*
X224414000Y-57000000D03*
X227414000Y-57000000D03*
X230414000Y-57000000D03*
%TD*%
D15*
%TO.N,GNDPWR*%
%TO.C,J2*%
X106262000Y-54000000D03*
D11*
X109262000Y-54000000D03*
X106262000Y-57000000D03*
X109262000Y-57000000D03*
%TD*%
D16*
%TO.N,LPSR_IN*%
%TO.C,D4*%
X186690000Y-83312000D03*
X186690000Y-85852000D03*
X186690000Y-88392000D03*
X186690000Y-90932000D03*
%TO.N,LPSR_OUT*%
X173990000Y-83312000D03*
X173990000Y-85852000D03*
X173990000Y-88392000D03*
X173990000Y-90932000D03*
D17*
%TO.N,+5V*%
X184150000Y-101102000D03*
%TO.N,GND*%
X182245000Y-101102000D03*
%TO.N,Net-(D4-Pad11)*%
X180340000Y-101102000D03*
%TO.N,unconnected-(D4-Pad12)*%
X178435000Y-101102000D03*
%TO.N,unconnected-(D4-Pad13)*%
X176530000Y-101102000D03*
%TD*%
D18*
%TO.N,Current_Measure*%
X182372000Y-108204000D03*
%TO.N,+5V*%
X186711500Y-108182500D03*
%TO.N,GND*%
X184658000Y-108204000D03*
%TD*%
D19*
%TO.N,Current_Measure*%
X188746000Y-128826000D02*
X188746000Y-117626000D01*
X182372000Y-111252000D02*
X182372000Y-108204000D01*
X188746000Y-131826000D02*
X188746000Y-128826000D01*
X188746000Y-117626000D02*
X182372000Y-111252000D01*
%TO.N,+5V*%
X204192000Y-128826000D02*
X204192000Y-125706000D01*
X204192000Y-125706000D02*
X202692000Y-124206000D01*
D20*
X204192000Y-131826000D02*
X204192000Y-128826000D01*
D19*
X194818000Y-117348000D02*
X186711500Y-109241500D01*
X197612000Y-124206000D02*
X194818000Y-121412000D01*
X202692000Y-124206000D02*
X197612000Y-124206000D01*
X186711500Y-109241500D02*
X186711500Y-108182500D01*
X194818000Y-121412000D02*
X194818000Y-117348000D01*
%TO.N,GND*%
X184658000Y-110490000D02*
X184658000Y-108204000D01*
X191746000Y-128826000D02*
X191746000Y-117578000D01*
X191746000Y-117578000D02*
X184658000Y-110490000D01*
%TD*%
%TA.AperFunction,Conductor*%
%TO.N,GND*%
G36*
X193187395Y-127782002D02*
G01*
X193233888Y-127835658D01*
X193245265Y-127889538D01*
X193244025Y-127991028D01*
X193281347Y-128234930D01*
X193358003Y-128469460D01*
X193471935Y-128688321D01*
X193475038Y-128692454D01*
X193475040Y-128692457D01*
X193540806Y-128780049D01*
X193620083Y-128885636D01*
X193798468Y-129056104D01*
X193802740Y-129059018D01*
X193802741Y-129059019D01*
X193831893Y-129078905D01*
X194002300Y-129195149D01*
X194114202Y-129247092D01*
X194221409Y-129296856D01*
X194221413Y-129296857D01*
X194226104Y-129299035D01*
X194463871Y-129364974D01*
X194469008Y-129365523D01*
X194661957Y-129386144D01*
X194661965Y-129386144D01*
X194665292Y-129386500D01*
X194808554Y-129386500D01*
X194811127Y-129386288D01*
X194811138Y-129386288D01*
X194986760Y-129371849D01*
X194986766Y-129371848D01*
X194991911Y-129371425D01*
X195231217Y-129311316D01*
X195457493Y-129212928D01*
X195664661Y-129078905D01*
X195686516Y-129059019D01*
X195722536Y-129026243D01*
X195847158Y-128912846D01*
X195850357Y-128908795D01*
X195850361Y-128908791D01*
X195996881Y-128723264D01*
X195996884Y-128723259D01*
X196000082Y-128719210D01*
X196002577Y-128714691D01*
X196116830Y-128507722D01*
X196116832Y-128507718D01*
X196119327Y-128503198D01*
X196131275Y-128469460D01*
X196199965Y-128275485D01*
X196199966Y-128275481D01*
X196201691Y-128270610D01*
X196244961Y-128027694D01*
X196246686Y-127886460D01*
X196267519Y-127818590D01*
X196321738Y-127772756D01*
X196372677Y-127762000D01*
X196565274Y-127762000D01*
X196633395Y-127782002D01*
X196679888Y-127835658D01*
X196691265Y-127889538D01*
X196690025Y-127991028D01*
X196727347Y-128234930D01*
X196804003Y-128469460D01*
X196917935Y-128688321D01*
X196921038Y-128692454D01*
X196921040Y-128692457D01*
X196986806Y-128780049D01*
X197066083Y-128885636D01*
X197244468Y-129056104D01*
X197248740Y-129059018D01*
X197248741Y-129059019D01*
X197277893Y-129078905D01*
X197448300Y-129195149D01*
X197560202Y-129247092D01*
X197667409Y-129296856D01*
X197667413Y-129296857D01*
X197672104Y-129299035D01*
X197909871Y-129364974D01*
X197915008Y-129365523D01*
X198107957Y-129386144D01*
X198107965Y-129386144D01*
X198111292Y-129386500D01*
X198254554Y-129386500D01*
X198257127Y-129386288D01*
X198257138Y-129386288D01*
X198432760Y-129371849D01*
X198432766Y-129371848D01*
X198437911Y-129371425D01*
X198677217Y-129311316D01*
X198903493Y-129212928D01*
X199110661Y-129078905D01*
X199132516Y-129059019D01*
X199168536Y-129026243D01*
X199293158Y-128912846D01*
X199296357Y-128908795D01*
X199296361Y-128908791D01*
X199442881Y-128723264D01*
X199442884Y-128723259D01*
X199446082Y-128719210D01*
X199448577Y-128714691D01*
X199562830Y-128507722D01*
X199562832Y-128507718D01*
X199565327Y-128503198D01*
X199577275Y-128469460D01*
X199645965Y-128275485D01*
X199645966Y-128275481D01*
X199647691Y-128270610D01*
X199690961Y-128027694D01*
X199692686Y-127886460D01*
X199713519Y-127818590D01*
X199767738Y-127772756D01*
X199818677Y-127762000D01*
X202312000Y-127762000D01*
X202380121Y-127782002D01*
X202426614Y-127835658D01*
X202438000Y-127888000D01*
X202438000Y-128765717D01*
X202437749Y-128770723D01*
X202437785Y-128770724D01*
X202437662Y-128775397D01*
X202437194Y-128780049D01*
X202437418Y-128784715D01*
X202437418Y-128784720D01*
X202437855Y-128793810D01*
X202438000Y-128799855D01*
X202438000Y-132716000D01*
X202417998Y-132784121D01*
X202364342Y-132830614D01*
X202312000Y-132842000D01*
X190880000Y-132842000D01*
X190811879Y-132821998D01*
X190765386Y-132768342D01*
X190754000Y-132716000D01*
X190754000Y-127888000D01*
X190774002Y-127819879D01*
X190827658Y-127773386D01*
X190880000Y-127762000D01*
X193119274Y-127762000D01*
X193187395Y-127782002D01*
G37*
%TD.AperFunction*%
%TD*%
M02*
