%TF.GenerationSoftware,KiCad,Pcbnew,(6.0.1)*%
%TF.CreationDate,2022-06-01T15:29:14+03:00*%
%TF.ProjectId,Power,506f7765-722e-46b6-9963-61645f706362,rev?*%
%TF.SameCoordinates,Original*%
%TF.FileFunction,Copper,L1,Top*%
%TF.FilePolarity,Positive*%
%FSLAX46Y46*%
G04 Gerber Fmt 4.6, Leading zero omitted, Abs format (unit mm)*
G04 Created by KiCad (PCBNEW (6.0.1)) date 2022-06-01 15:29:14*
%MOMM*%
%LPD*%
G01*
G04 APERTURE LIST*
G04 Aperture macros list*
%AMRoundRect*
0 Rectangle with rounded corners*
0 $1 Rounding radius*
0 $2 $3 $4 $5 $6 $7 $8 $9 X,Y pos of 4 corners*
0 Add a 4 corners polygon primitive as box body*
4,1,4,$2,$3,$4,$5,$6,$7,$8,$9,$2,$3,0*
0 Add four circle primitives for the rounded corners*
1,1,$1+$1,$2,$3*
1,1,$1+$1,$4,$5*
1,1,$1+$1,$6,$7*
1,1,$1+$1,$8,$9*
0 Add four rect primitives between the rounded corners*
20,1,$1+$1,$2,$3,$4,$5,0*
20,1,$1+$1,$4,$5,$6,$7,0*
20,1,$1+$1,$6,$7,$8,$9,0*
20,1,$1+$1,$8,$9,$2,$3,0*%
G04 Aperture macros list end*
%TA.AperFunction,ComponentPad*%
%ADD10RoundRect,0.250001X-0.499999X0.499999X-0.499999X-0.499999X0.499999X-0.499999X0.499999X0.499999X0*%
%TD*%
%TA.AperFunction,ComponentPad*%
%ADD11C,1.500000*%
%TD*%
%TA.AperFunction,ComponentPad*%
%ADD12RoundRect,0.250001X0.499999X0.499999X-0.499999X0.499999X-0.499999X-0.499999X0.499999X-0.499999X0*%
%TD*%
%TA.AperFunction,SMDPad,CuDef*%
%ADD13RoundRect,1.250000X3.750000X-1.250000X3.750000X1.250000X-3.750000X1.250000X-3.750000X-1.250000X0*%
%TD*%
%TA.AperFunction,WasherPad*%
%ADD14C,10.000000*%
%TD*%
%TA.AperFunction,ComponentPad*%
%ADD15RoundRect,3.250000X-3.250000X-3.250000X3.250000X-3.250000X3.250000X3.250000X-3.250000X3.250000X0*%
%TD*%
%TA.AperFunction,SMDPad,CuDef*%
%ADD16RoundRect,0.249999X-0.512501X-1.425001X0.512501X-1.425001X0.512501X1.425001X-0.512501X1.425001X0*%
%TD*%
%TA.AperFunction,ComponentPad*%
%ADD17C,2.500000*%
%TD*%
%TA.AperFunction,ComponentPad*%
%ADD18RoundRect,0.250001X-0.499999X-0.499999X0.499999X-0.499999X0.499999X0.499999X-0.499999X0.499999X0*%
%TD*%
%TA.AperFunction,ComponentPad*%
%ADD19O,2.500000X2.000000*%
%TD*%
%TA.AperFunction,ComponentPad*%
%ADD20O,1.500000X2.000000*%
%TD*%
%TA.AperFunction,ViaPad*%
%ADD21C,0.800000*%
%TD*%
G04 APERTURE END LIST*
D10*
%TO.P,J3,1,Pin_1*%
%TO.N,LPSR_IN*%
X218500000Y-87956000D03*
D11*
%TO.P,J3,2,Pin_2*%
X218500000Y-90956000D03*
%TO.P,J3,3,Pin_3*%
X218500000Y-93956000D03*
%TO.P,J3,4,Pin_4*%
X218500000Y-96956000D03*
%TO.P,J3,5,Pin_5*%
X215500000Y-87956000D03*
%TO.P,J3,6,Pin_6*%
X215500000Y-90956000D03*
%TO.P,J3,7,Pin_7*%
X215500000Y-93956000D03*
%TO.P,J3,8,Pin_8*%
X215500000Y-96956000D03*
%TD*%
D12*
%TO.P,J9,1,Pin_1*%
%TO.N,GND*%
X191746000Y-131826000D03*
D11*
%TO.P,J9,2,Pin_2*%
%TO.N,Current_Measure*%
X188746000Y-131826000D03*
%TO.P,J9,3,Pin_3*%
%TO.N,GND*%
X191746000Y-128826000D03*
%TO.P,J9,4,Pin_4*%
%TO.N,Current_Measure*%
X188746000Y-128826000D03*
%TD*%
D13*
%TO.P,L1,1*%
%TO.N,Net-(D2-Pad1)*%
X69596000Y-76120000D03*
%TO.P,L1,2*%
%TO.N,Net-(F1-Pad1)*%
X69596000Y-66120000D03*
%TD*%
D12*
%TO.P,J10,1,Pin_1*%
%TO.N,GNDPWR*%
X179300000Y-131826000D03*
D11*
%TO.P,J10,2,Pin_2*%
X176300000Y-131826000D03*
%TO.P,J10,3,Pin_3*%
%TO.N,Voltage_IN*%
X179300000Y-128826000D03*
%TO.P,J10,4,Pin_4*%
%TO.N,Voltage_OUT*%
X176300000Y-128826000D03*
%TD*%
D14*
%TO.P,D2,*%
%TO.N,*%
X81026000Y-69596000D03*
D15*
%TO.P,D2,1,E1*%
%TO.N,Net-(D2-Pad1)*%
X81026000Y-86596000D03*
%TO.P,D2,2,E2*%
%TO.N,Net-(C21-Pad1)*%
X81026000Y-109596000D03*
%TO.P,D2,3,K1*%
%TO.N,unconnected-(D2-Pad3)*%
X81026000Y-132596000D03*
%TD*%
D16*
%TO.P,F1,1*%
%TO.N,Net-(F1-Pad1)*%
X74228500Y-59182000D03*
%TO.P,F1,2*%
%TO.N,Voltage_OUT*%
X80203500Y-59182000D03*
%TD*%
D17*
%TO.P,C24,1*%
%TO.N,Voltage_IN*%
X200894000Y-65031000D03*
X180594000Y-65031000D03*
%TO.P,C24,2*%
%TO.N,GNDPWR*%
X180594000Y-117531000D03*
X200894000Y-117531000D03*
%TD*%
D18*
%TO.P,J1,1,Pin_1*%
%TO.N,Voltage_OUT*%
X91440000Y-54000000D03*
D11*
%TO.P,J1,2,Pin_2*%
X94440000Y-54000000D03*
%TO.P,J1,3,Pin_3*%
X91440000Y-57000000D03*
%TO.P,J1,4,Pin_4*%
X94440000Y-57000000D03*
%TD*%
D18*
%TO.P,J6,1,Pin_1*%
%TO.N,GNDPWR*%
X165840000Y-54000000D03*
D11*
%TO.P,J6,2,Pin_2*%
X168840000Y-54000000D03*
%TO.P,J6,3,Pin_3*%
X171840000Y-54000000D03*
%TO.P,J6,4,Pin_4*%
X174840000Y-54000000D03*
%TO.P,J6,5,Pin_5*%
X165840000Y-57000000D03*
%TO.P,J6,6,Pin_6*%
X168840000Y-57000000D03*
%TO.P,J6,7,Pin_7*%
X171840000Y-57000000D03*
%TO.P,J6,8,Pin_8*%
X174840000Y-57000000D03*
%TD*%
D12*
%TO.P,J8,1,Pin_1*%
%TO.N,+5V*%
X204192000Y-131826000D03*
D11*
%TO.P,J8,2,Pin_2*%
%TO.N,GND*%
X201192000Y-131826000D03*
%TO.P,J8,3,Pin_3*%
%TO.N,+5V*%
X204192000Y-128826000D03*
%TO.P,J8,4,Pin_4*%
%TO.N,GND*%
X201192000Y-128826000D03*
%TD*%
D17*
%TO.P,C21,1*%
%TO.N,Net-(C21-Pad1)*%
X107462000Y-117595000D03*
X127762000Y-117595000D03*
%TO.P,C21,2*%
%TO.N,GNDPWR*%
X107462000Y-65095000D03*
X127762000Y-65095000D03*
%TD*%
D10*
%TO.P,J4,1,Pin_1*%
%TO.N,Voltage_IN*%
X218500000Y-69414000D03*
D11*
%TO.P,J4,2,Pin_2*%
X218500000Y-72414000D03*
%TO.P,J4,3,Pin_3*%
X218500000Y-75414000D03*
%TO.P,J4,4,Pin_4*%
X218500000Y-78414000D03*
%TO.P,J4,5,Pin_5*%
X215500000Y-69414000D03*
%TO.P,J4,6,Pin_6*%
X215500000Y-72414000D03*
%TO.P,J4,7,Pin_7*%
X215500000Y-75414000D03*
%TO.P,J4,8,Pin_8*%
X215500000Y-78414000D03*
%TD*%
D14*
%TO.P,D1,*%
%TO.N,*%
X154178000Y-69474000D03*
D15*
%TO.P,D1,1,E1*%
%TO.N,LPSR_OUT*%
X154178000Y-86474000D03*
%TO.P,D1,2,E2*%
%TO.N,GNDPWR*%
X154178000Y-109474000D03*
%TO.P,D1,3,K1*%
%TO.N,Net-(C21-Pad1)*%
X154178000Y-132474000D03*
%TD*%
D18*
%TO.P,J5,1,Pin_1*%
%TO.N,Voltage_IN*%
X221414000Y-54000000D03*
D11*
%TO.P,J5,2,Pin_2*%
X224414000Y-54000000D03*
%TO.P,J5,3,Pin_3*%
X227414000Y-54000000D03*
%TO.P,J5,4,Pin_4*%
X230414000Y-54000000D03*
%TO.P,J5,5,Pin_5*%
X221414000Y-57000000D03*
%TO.P,J5,6,Pin_6*%
X224414000Y-57000000D03*
%TO.P,J5,7,Pin_7*%
X227414000Y-57000000D03*
%TO.P,J5,8,Pin_8*%
X230414000Y-57000000D03*
%TD*%
D18*
%TO.P,J2,1,Pin_1*%
%TO.N,GNDPWR*%
X106262000Y-54000000D03*
D11*
%TO.P,J2,2,Pin_2*%
X109262000Y-54000000D03*
%TO.P,J2,3,Pin_3*%
X106262000Y-57000000D03*
%TO.P,J2,4,Pin_4*%
X109262000Y-57000000D03*
%TD*%
D19*
%TO.P,D4,1,INPUT_CURRENT*%
%TO.N,LPSR_IN*%
X186690000Y-83312000D03*
%TO.P,D4,2,INPUT_CURRENT*%
X186690000Y-85852000D03*
%TO.P,D4,3,INPUT_CURRENT*%
X186690000Y-88392000D03*
%TO.P,D4,4,INPUT_CURRENT*%
X186690000Y-90932000D03*
%TO.P,D4,5,OUTPUT_CURRENT*%
%TO.N,LPSR_OUT*%
X173990000Y-83312000D03*
%TO.P,D4,6,OUTPUT_CURRENT*%
X173990000Y-85852000D03*
%TO.P,D4,7,OUTPUT_CURRENT*%
X173990000Y-88392000D03*
%TO.P,D4,8,OUTPUT_CURRENT*%
X173990000Y-90932000D03*
D20*
%TO.P,D4,9,+Uc*%
%TO.N,+5V*%
X184150000Y-101102000D03*
%TO.P,D4,10,GND*%
%TO.N,GND*%
X182245000Y-101102000D03*
%TO.P,D4,11,Vout*%
%TO.N,Net-(D4-Pad11)*%
X180340000Y-101102000D03*
%TO.P,D4,12,Vref*%
%TO.N,unconnected-(D4-Pad12)*%
X178435000Y-101102000D03*
%TO.P,D4,13,OCD*%
%TO.N,unconnected-(D4-Pad13)*%
X176530000Y-101102000D03*
%TD*%
D21*
%TO.N,Current_Measure*%
X182372000Y-108204000D03*
%TO.N,+5V*%
X186711500Y-108182500D03*
%TO.N,GND*%
X184658000Y-108204000D03*
%TD*%
%TA.AperFunction,Conductor*%
%TO.N,Net-(D2-Pad1)*%
G36*
X76396605Y-73426002D02*
G01*
X76427093Y-73453563D01*
X76479965Y-73520032D01*
X76809311Y-73871980D01*
X76811175Y-73873676D01*
X77163943Y-74194670D01*
X77163952Y-74194678D01*
X77165823Y-74196380D01*
X77547202Y-74491144D01*
X77950993Y-74754372D01*
X77953215Y-74755579D01*
X77953221Y-74755582D01*
X78121790Y-74847107D01*
X78374594Y-74984368D01*
X78815276Y-75179652D01*
X78817640Y-75180480D01*
X78817653Y-75180485D01*
X79267824Y-75338132D01*
X79270200Y-75338964D01*
X79736435Y-75461278D01*
X80210978Y-75545807D01*
X80213484Y-75546048D01*
X80213489Y-75546049D01*
X80395103Y-75563536D01*
X80690771Y-75592006D01*
X80693306Y-75592046D01*
X80693309Y-75592046D01*
X80847996Y-75594476D01*
X81172724Y-75599577D01*
X81175243Y-75599414D01*
X81175247Y-75599414D01*
X81651198Y-75568636D01*
X81651201Y-75568636D01*
X81653732Y-75568472D01*
X81656235Y-75568107D01*
X81656243Y-75568106D01*
X81859177Y-75538501D01*
X82130696Y-75498890D01*
X82600543Y-75391281D01*
X83060247Y-75246337D01*
X83226987Y-75178631D01*
X83504513Y-75065939D01*
X83504514Y-75065938D01*
X83506845Y-75064992D01*
X83720468Y-74957551D01*
X83935213Y-74849546D01*
X83935220Y-74849542D01*
X83937461Y-74848415D01*
X84349321Y-74598000D01*
X84351355Y-74596528D01*
X84351362Y-74596523D01*
X84737717Y-74316848D01*
X84737719Y-74316846D01*
X84739771Y-74315361D01*
X85106296Y-74002319D01*
X85446535Y-73660891D01*
X85624956Y-73450505D01*
X85684269Y-73411488D01*
X85721051Y-73406000D01*
X88520000Y-73406000D01*
X88588121Y-73426002D01*
X88634614Y-73479658D01*
X88646000Y-73532000D01*
X88646000Y-93600000D01*
X88625998Y-93668121D01*
X88572342Y-93714614D01*
X88520000Y-93726000D01*
X64626000Y-93726000D01*
X64557879Y-93705998D01*
X64511386Y-93652342D01*
X64500000Y-93600000D01*
X64500000Y-73532000D01*
X64520002Y-73463879D01*
X64573658Y-73417386D01*
X64626000Y-73406000D01*
X76328484Y-73406000D01*
X76396605Y-73426002D01*
G37*
%TD.AperFunction*%
%TD*%
%TA.AperFunction,Conductor*%
%TO.N,LPSR_IN*%
G36*
X207968121Y-82062002D02*
G01*
X208014614Y-82115658D01*
X208026000Y-82168000D01*
X208026000Y-84074000D01*
X213119372Y-84074000D01*
X213187493Y-84094002D01*
X213233986Y-84147658D01*
X213244090Y-84217932D01*
X213229680Y-84260894D01*
X213189175Y-84334269D01*
X213186673Y-84338802D01*
X213184949Y-84343671D01*
X213184947Y-84343675D01*
X213172984Y-84377458D01*
X213104309Y-84571390D01*
X213061039Y-84814306D01*
X213058025Y-85061028D01*
X213095347Y-85304930D01*
X213172003Y-85539460D01*
X213285935Y-85758321D01*
X213434083Y-85955636D01*
X213612468Y-86126104D01*
X213616740Y-86129018D01*
X213616741Y-86129019D01*
X213645893Y-86148905D01*
X213816300Y-86265149D01*
X213928202Y-86317092D01*
X214035409Y-86366856D01*
X214035413Y-86366857D01*
X214040104Y-86369035D01*
X214277871Y-86434974D01*
X214283008Y-86435523D01*
X214475957Y-86456144D01*
X214475965Y-86456144D01*
X214479292Y-86456500D01*
X214622554Y-86456500D01*
X214625127Y-86456288D01*
X214625138Y-86456288D01*
X214800760Y-86441849D01*
X214800766Y-86441848D01*
X214805911Y-86441425D01*
X215045217Y-86381316D01*
X215271493Y-86282928D01*
X215478661Y-86148905D01*
X215500516Y-86129019D01*
X215536536Y-86096243D01*
X215661158Y-85982846D01*
X215664357Y-85978795D01*
X215664361Y-85978791D01*
X215810881Y-85793264D01*
X215810884Y-85793259D01*
X215814082Y-85789210D01*
X215816577Y-85784691D01*
X215930830Y-85577722D01*
X215930832Y-85577718D01*
X215933327Y-85573198D01*
X215945275Y-85539460D01*
X216013965Y-85345485D01*
X216013966Y-85345481D01*
X216015691Y-85340610D01*
X216058961Y-85097694D01*
X216061975Y-84850972D01*
X216024653Y-84607070D01*
X215947997Y-84372540D01*
X215928075Y-84334269D01*
X215888465Y-84258180D01*
X215874752Y-84188521D01*
X215900877Y-84122505D01*
X215958545Y-84081094D01*
X216000228Y-84074000D01*
X222648000Y-84074000D01*
X222716121Y-84094002D01*
X222762614Y-84147658D01*
X222774000Y-84200000D01*
X222774000Y-101744000D01*
X222753998Y-101812121D01*
X222700342Y-101858614D01*
X222648000Y-101870000D01*
X210341697Y-101870000D01*
X210335103Y-101869827D01*
X210269279Y-101866377D01*
X210269275Y-101866377D01*
X210262898Y-101866043D01*
X210256585Y-101866998D01*
X210256580Y-101866998D01*
X210189678Y-101877117D01*
X210183568Y-101877889D01*
X210116233Y-101884728D01*
X210116231Y-101884728D01*
X210109885Y-101885373D01*
X210095631Y-101889840D01*
X210076803Y-101894187D01*
X210062028Y-101896422D01*
X210056035Y-101898627D01*
X209992518Y-101921997D01*
X209986692Y-101923980D01*
X209916027Y-101946125D01*
X209910445Y-101949219D01*
X209910438Y-101949222D01*
X209902964Y-101953365D01*
X209885390Y-101961411D01*
X209877366Y-101964363D01*
X209877357Y-101964367D01*
X209871368Y-101966571D01*
X209846484Y-101982000D01*
X209808420Y-102005601D01*
X209803147Y-102008695D01*
X209738343Y-102044616D01*
X209727003Y-102054336D01*
X209711395Y-102065759D01*
X209704138Y-102070258D01*
X209704136Y-102070260D01*
X209698708Y-102073625D01*
X209694067Y-102078014D01*
X209689113Y-102081829D01*
X209622937Y-102107545D01*
X209612235Y-102108000D01*
X192912000Y-102108000D01*
X192843879Y-102087998D01*
X192797386Y-102034342D01*
X192786000Y-101982000D01*
X192786000Y-100061028D01*
X213058025Y-100061028D01*
X213095347Y-100304930D01*
X213172003Y-100539460D01*
X213285935Y-100758321D01*
X213289038Y-100762454D01*
X213289040Y-100762457D01*
X213305734Y-100784691D01*
X213434083Y-100955636D01*
X213612468Y-101126104D01*
X213616740Y-101129018D01*
X213616741Y-101129019D01*
X213645893Y-101148905D01*
X213816300Y-101265149D01*
X213928202Y-101317092D01*
X214035409Y-101366856D01*
X214035413Y-101366857D01*
X214040104Y-101369035D01*
X214277871Y-101434974D01*
X214283008Y-101435523D01*
X214475957Y-101456144D01*
X214475965Y-101456144D01*
X214479292Y-101456500D01*
X214622554Y-101456500D01*
X214625127Y-101456288D01*
X214625138Y-101456288D01*
X214800760Y-101441849D01*
X214800766Y-101441848D01*
X214805911Y-101441425D01*
X215045217Y-101381316D01*
X215271493Y-101282928D01*
X215478661Y-101148905D01*
X215500516Y-101129019D01*
X215536536Y-101096243D01*
X215661158Y-100982846D01*
X215664357Y-100978795D01*
X215664361Y-100978791D01*
X215810881Y-100793264D01*
X215810884Y-100793259D01*
X215814082Y-100789210D01*
X215828393Y-100763286D01*
X215930830Y-100577722D01*
X215930832Y-100577718D01*
X215933327Y-100573198D01*
X215945275Y-100539460D01*
X216013965Y-100345485D01*
X216013966Y-100345481D01*
X216015691Y-100340610D01*
X216022957Y-100299818D01*
X216058055Y-100102783D01*
X216058056Y-100102777D01*
X216058961Y-100097694D01*
X216061975Y-99850972D01*
X216024653Y-99607070D01*
X215947997Y-99372540D01*
X215834065Y-99153679D01*
X215827620Y-99145094D01*
X215689022Y-98960499D01*
X215689020Y-98960496D01*
X215685917Y-98956364D01*
X215507532Y-98785896D01*
X215479212Y-98766577D01*
X215307979Y-98649770D01*
X215307980Y-98649770D01*
X215303700Y-98646851D01*
X215191798Y-98594908D01*
X215084591Y-98545144D01*
X215084587Y-98545143D01*
X215079896Y-98542965D01*
X214842129Y-98477026D01*
X214836992Y-98476477D01*
X214644043Y-98455856D01*
X214644035Y-98455856D01*
X214640708Y-98455500D01*
X214497446Y-98455500D01*
X214494873Y-98455712D01*
X214494862Y-98455712D01*
X214319240Y-98470151D01*
X214319234Y-98470152D01*
X214314089Y-98470575D01*
X214074783Y-98530684D01*
X213848507Y-98629072D01*
X213641339Y-98763095D01*
X213637514Y-98766575D01*
X213637512Y-98766577D01*
X213616281Y-98785896D01*
X213458842Y-98929154D01*
X213455643Y-98933205D01*
X213455639Y-98933209D01*
X213309119Y-99118736D01*
X213309116Y-99118741D01*
X213305918Y-99122790D01*
X213303425Y-99127306D01*
X213303423Y-99127309D01*
X213198882Y-99316686D01*
X213186673Y-99338802D01*
X213184949Y-99343671D01*
X213184947Y-99343675D01*
X213106035Y-99566515D01*
X213104309Y-99571390D01*
X213061039Y-99814306D01*
X213058025Y-100061028D01*
X192786000Y-100061028D01*
X192786000Y-94996000D01*
X185038000Y-94996000D01*
X184969879Y-94975998D01*
X184923386Y-94922342D01*
X184912000Y-94870000D01*
X184912000Y-82168000D01*
X184932002Y-82099879D01*
X184985658Y-82053386D01*
X185038000Y-82042000D01*
X207900000Y-82042000D01*
X207968121Y-82062002D01*
G37*
%TD.AperFunction*%
%TD*%
%TA.AperFunction,Conductor*%
%TO.N,Net-(F1-Pad1)*%
G36*
X74618121Y-50550002D02*
G01*
X74664614Y-50603658D01*
X74676000Y-50656000D01*
X74676000Y-68708000D01*
X74655998Y-68776121D01*
X74602342Y-68822614D01*
X74550000Y-68834000D01*
X64626000Y-68834000D01*
X64557879Y-68813998D01*
X64511386Y-68760342D01*
X64500000Y-68708000D01*
X64500000Y-50656000D01*
X64520002Y-50587879D01*
X64573658Y-50541386D01*
X64626000Y-50530000D01*
X74550000Y-50530000D01*
X74618121Y-50550002D01*
G37*
%TD.AperFunction*%
%TD*%
%TA.AperFunction,Conductor*%
%TO.N,Voltage_IN*%
G36*
X236073039Y-50550002D02*
G01*
X236119532Y-50603658D01*
X236129636Y-50673932D01*
X236100142Y-50738512D01*
X236085490Y-50752871D01*
X235842459Y-50954998D01*
X235541583Y-51256399D01*
X235269835Y-51584304D01*
X235268192Y-51586708D01*
X235031180Y-51933503D01*
X235031174Y-51933513D01*
X235029537Y-51935908D01*
X235028131Y-51938439D01*
X235028125Y-51938449D01*
X234824161Y-52305653D01*
X234824157Y-52305662D01*
X234822744Y-52308205D01*
X234821571Y-52310872D01*
X234821566Y-52310881D01*
X234652399Y-52695343D01*
X234651225Y-52698012D01*
X234516445Y-53101996D01*
X234419559Y-53516703D01*
X234361393Y-53938586D01*
X234342445Y-54364038D01*
X234362878Y-54789422D01*
X234422516Y-55211099D01*
X234520850Y-55625465D01*
X234521781Y-55628223D01*
X234521784Y-55628234D01*
X234624651Y-55933015D01*
X234657038Y-56028976D01*
X234829917Y-56418182D01*
X234831340Y-56420723D01*
X234831342Y-56420727D01*
X234937904Y-56611007D01*
X235038008Y-56789756D01*
X235279532Y-57140519D01*
X235281395Y-57142751D01*
X235281401Y-57142759D01*
X235427898Y-57318278D01*
X235552424Y-57467473D01*
X235854349Y-57767821D01*
X235856591Y-57769672D01*
X235856596Y-57769677D01*
X236180486Y-58037147D01*
X236180494Y-58037153D01*
X236182727Y-58038997D01*
X236185136Y-58040637D01*
X236185137Y-58040638D01*
X236532332Y-58277035D01*
X236532337Y-58277038D01*
X236534750Y-58278681D01*
X236537298Y-58280091D01*
X236537307Y-58280096D01*
X236804375Y-58427829D01*
X236907408Y-58484824D01*
X236910074Y-58485992D01*
X236910075Y-58485992D01*
X237061545Y-58552325D01*
X237297514Y-58655663D01*
X237701733Y-58789737D01*
X237704559Y-58790392D01*
X237704566Y-58790394D01*
X238113763Y-58885240D01*
X238113772Y-58885242D01*
X238116608Y-58885899D01*
X238538592Y-58943329D01*
X238541442Y-58943456D01*
X238541443Y-58943456D01*
X238832914Y-58956437D01*
X238832931Y-58956437D01*
X238834337Y-58956500D01*
X239057369Y-58956500D01*
X239058809Y-58956433D01*
X239058824Y-58956433D01*
X239197718Y-58950004D01*
X239373418Y-58941872D01*
X239795199Y-58882970D01*
X239798021Y-58882305D01*
X239798029Y-58882304D01*
X240206896Y-58786028D01*
X240206901Y-58786026D01*
X240209736Y-58785359D01*
X240596236Y-58655663D01*
X240610728Y-58650800D01*
X240610731Y-58650799D01*
X240613484Y-58649875D01*
X240812883Y-58561722D01*
X241000344Y-58478847D01*
X241000350Y-58478844D01*
X241002992Y-58477676D01*
X241374928Y-58270233D01*
X241377330Y-58268585D01*
X241377603Y-58268416D01*
X241446039Y-58249518D01*
X241513827Y-58270620D01*
X241559446Y-58325021D01*
X241570000Y-58375502D01*
X241570000Y-65930000D01*
X241549998Y-65998121D01*
X241496342Y-66044614D01*
X241444000Y-66056000D01*
X223803697Y-66056000D01*
X223797103Y-66055827D01*
X223731279Y-66052377D01*
X223731275Y-66052377D01*
X223724898Y-66052043D01*
X223718585Y-66052998D01*
X223718580Y-66052998D01*
X223651678Y-66063117D01*
X223645568Y-66063889D01*
X223578233Y-66070728D01*
X223578231Y-66070728D01*
X223571885Y-66071373D01*
X223557631Y-66075840D01*
X223538803Y-66080187D01*
X223524028Y-66082422D01*
X223518035Y-66084627D01*
X223454518Y-66107997D01*
X223448692Y-66109980D01*
X223378027Y-66132125D01*
X223372445Y-66135219D01*
X223372438Y-66135222D01*
X223364964Y-66139365D01*
X223347390Y-66147411D01*
X223339366Y-66150363D01*
X223339357Y-66150367D01*
X223333368Y-66152571D01*
X223270420Y-66191601D01*
X223265147Y-66194695D01*
X223200343Y-66230616D01*
X223189003Y-66240336D01*
X223173395Y-66251759D01*
X223160708Y-66259625D01*
X223156072Y-66264009D01*
X223106897Y-66310511D01*
X223102322Y-66314630D01*
X223046094Y-66362824D01*
X223036936Y-66374631D01*
X223023954Y-66388947D01*
X223013101Y-66399210D01*
X223009439Y-66404440D01*
X223009438Y-66404441D01*
X222970618Y-66459881D01*
X222966965Y-66464836D01*
X222921579Y-66523348D01*
X222918759Y-66529079D01*
X222914986Y-66536745D01*
X222905147Y-66553382D01*
X222900239Y-66560392D01*
X222896576Y-66565624D01*
X222894043Y-66571478D01*
X222894041Y-66571481D01*
X222867167Y-66633583D01*
X222864585Y-66639171D01*
X222834704Y-66699899D01*
X222831884Y-66705630D01*
X222830274Y-66711812D01*
X222828117Y-66720090D01*
X222821826Y-66738362D01*
X222815894Y-66752071D01*
X222814590Y-66758310D01*
X222814589Y-66758315D01*
X222800752Y-66824548D01*
X222799347Y-66830540D01*
X222780675Y-66902225D01*
X222780341Y-66908595D01*
X222780341Y-66908596D01*
X222779893Y-66917143D01*
X222777404Y-66936309D01*
X222774349Y-66950932D01*
X222774000Y-66957592D01*
X222774000Y-67026303D01*
X222773827Y-67032897D01*
X222771233Y-67082404D01*
X222770043Y-67105102D01*
X222770999Y-67111422D01*
X222772583Y-67121898D01*
X222774000Y-67140739D01*
X222774000Y-82170000D01*
X222753998Y-82238121D01*
X222700342Y-82284614D01*
X222648000Y-82296000D01*
X216000628Y-82296000D01*
X215932507Y-82275998D01*
X215886014Y-82222342D01*
X215875910Y-82152068D01*
X215890320Y-82109106D01*
X215930825Y-82035731D01*
X215930827Y-82035728D01*
X215933327Y-82031198D01*
X215943649Y-82002052D01*
X216013965Y-81803485D01*
X216013966Y-81803481D01*
X216015691Y-81798610D01*
X216041593Y-81653199D01*
X216058055Y-81560783D01*
X216058056Y-81560777D01*
X216058961Y-81555694D01*
X216061975Y-81308972D01*
X216024653Y-81065070D01*
X215947997Y-80830540D01*
X215834065Y-80611679D01*
X215685917Y-80414364D01*
X215507532Y-80243896D01*
X215479212Y-80224577D01*
X215307979Y-80107770D01*
X215307980Y-80107770D01*
X215303700Y-80104851D01*
X215191798Y-80052908D01*
X215084591Y-80003144D01*
X215084587Y-80003143D01*
X215079896Y-80000965D01*
X214842129Y-79935026D01*
X214836992Y-79934477D01*
X214644043Y-79913856D01*
X214644035Y-79913856D01*
X214640708Y-79913500D01*
X214497446Y-79913500D01*
X214494873Y-79913712D01*
X214494862Y-79913712D01*
X214319240Y-79928151D01*
X214319234Y-79928152D01*
X214314089Y-79928575D01*
X214074783Y-79988684D01*
X213848507Y-80087072D01*
X213641339Y-80221095D01*
X213637514Y-80224575D01*
X213637512Y-80224577D01*
X213616281Y-80243896D01*
X213458842Y-80387154D01*
X213455643Y-80391205D01*
X213455639Y-80391209D01*
X213309119Y-80576736D01*
X213309116Y-80576741D01*
X213305918Y-80580790D01*
X213303425Y-80585306D01*
X213303423Y-80585309D01*
X213291150Y-80607543D01*
X213186673Y-80796802D01*
X213184949Y-80801671D01*
X213184947Y-80801675D01*
X213172984Y-80835458D01*
X213104309Y-81029390D01*
X213061039Y-81272306D01*
X213058025Y-81519028D01*
X213095347Y-81762930D01*
X213172003Y-81997460D01*
X213174391Y-82002048D01*
X213174393Y-82002052D01*
X213231535Y-82111820D01*
X213245248Y-82181479D01*
X213219123Y-82247495D01*
X213161455Y-82288906D01*
X213119772Y-82296000D01*
X209930000Y-82296000D01*
X209861879Y-82275998D01*
X209815386Y-82222342D01*
X209804000Y-82170000D01*
X209804000Y-79756000D01*
X179450000Y-79756000D01*
X179381879Y-79735998D01*
X179335386Y-79682342D01*
X179324000Y-79630000D01*
X179324000Y-66519028D01*
X213058025Y-66519028D01*
X213095347Y-66762930D01*
X213172003Y-66997460D01*
X213285935Y-67216321D01*
X213289038Y-67220454D01*
X213289040Y-67220457D01*
X213430978Y-67409501D01*
X213434083Y-67413636D01*
X213612468Y-67584104D01*
X213616740Y-67587018D01*
X213616741Y-67587019D01*
X213645893Y-67606905D01*
X213816300Y-67723149D01*
X213872371Y-67749176D01*
X214035409Y-67824856D01*
X214035413Y-67824857D01*
X214040104Y-67827035D01*
X214277871Y-67892974D01*
X214283008Y-67893523D01*
X214475957Y-67914144D01*
X214475965Y-67914144D01*
X214479292Y-67914500D01*
X214622554Y-67914500D01*
X214625127Y-67914288D01*
X214625138Y-67914288D01*
X214800760Y-67899849D01*
X214800766Y-67899848D01*
X214805911Y-67899425D01*
X215045217Y-67839316D01*
X215271493Y-67740928D01*
X215478661Y-67606905D01*
X215500516Y-67587019D01*
X215622982Y-67475583D01*
X215661158Y-67440846D01*
X215664357Y-67436795D01*
X215664361Y-67436791D01*
X215810881Y-67251264D01*
X215810884Y-67251259D01*
X215814082Y-67247210D01*
X215816577Y-67242691D01*
X215930830Y-67035722D01*
X215930832Y-67035718D01*
X215933327Y-67031198D01*
X215935061Y-67026303D01*
X216013965Y-66803485D01*
X216013966Y-66803481D01*
X216015691Y-66798610D01*
X216031152Y-66711812D01*
X216058055Y-66560783D01*
X216058056Y-66560777D01*
X216058961Y-66555694D01*
X216061975Y-66308972D01*
X216024653Y-66065070D01*
X215947997Y-65830540D01*
X215834065Y-65611679D01*
X215685917Y-65414364D01*
X215507532Y-65243896D01*
X215479212Y-65224577D01*
X215307979Y-65107770D01*
X215307980Y-65107770D01*
X215303700Y-65104851D01*
X215191798Y-65052908D01*
X215084591Y-65003144D01*
X215084587Y-65003143D01*
X215079896Y-65000965D01*
X214842129Y-64935026D01*
X214836992Y-64934477D01*
X214644043Y-64913856D01*
X214644035Y-64913856D01*
X214640708Y-64913500D01*
X214497446Y-64913500D01*
X214494873Y-64913712D01*
X214494862Y-64913712D01*
X214319240Y-64928151D01*
X214319234Y-64928152D01*
X214314089Y-64928575D01*
X214074783Y-64988684D01*
X213848507Y-65087072D01*
X213641339Y-65221095D01*
X213637514Y-65224575D01*
X213637512Y-65224577D01*
X213616281Y-65243896D01*
X213458842Y-65387154D01*
X213455643Y-65391205D01*
X213455639Y-65391209D01*
X213309119Y-65576736D01*
X213309116Y-65576741D01*
X213305918Y-65580790D01*
X213303425Y-65585306D01*
X213303423Y-65585309D01*
X213291150Y-65607543D01*
X213186673Y-65796802D01*
X213184949Y-65801671D01*
X213184947Y-65801675D01*
X213172984Y-65835458D01*
X213104309Y-66029390D01*
X213103402Y-66034483D01*
X213103401Y-66034486D01*
X213062517Y-66264009D01*
X213061039Y-66272306D01*
X213060528Y-66314142D01*
X213058748Y-66459881D01*
X213058025Y-66519028D01*
X179324000Y-66519028D01*
X179324000Y-62864000D01*
X179344002Y-62795879D01*
X179397658Y-62749386D01*
X179450000Y-62738000D01*
X192532000Y-62738000D01*
X192532000Y-58045028D01*
X216912025Y-58045028D01*
X216949347Y-58288930D01*
X217026003Y-58523460D01*
X217139935Y-58742321D01*
X217143038Y-58746454D01*
X217143040Y-58746457D01*
X217176029Y-58790394D01*
X217288083Y-58939636D01*
X217466468Y-59110104D01*
X217470740Y-59113018D01*
X217470741Y-59113019D01*
X217499893Y-59132905D01*
X217670300Y-59249149D01*
X217782202Y-59301092D01*
X217889409Y-59350856D01*
X217889413Y-59350857D01*
X217894104Y-59353035D01*
X218131871Y-59418974D01*
X218137008Y-59419523D01*
X218329957Y-59440144D01*
X218329965Y-59440144D01*
X218333292Y-59440500D01*
X218476554Y-59440500D01*
X218479127Y-59440288D01*
X218479138Y-59440288D01*
X218654760Y-59425849D01*
X218654766Y-59425848D01*
X218659911Y-59425425D01*
X218899217Y-59365316D01*
X219125493Y-59266928D01*
X219332661Y-59132905D01*
X219354516Y-59113019D01*
X219390536Y-59080243D01*
X219515158Y-58966846D01*
X219518357Y-58962795D01*
X219518361Y-58962791D01*
X219664881Y-58777264D01*
X219664884Y-58777259D01*
X219668082Y-58773210D01*
X219670577Y-58768691D01*
X219784830Y-58561722D01*
X219784832Y-58561718D01*
X219787327Y-58557198D01*
X219799275Y-58523460D01*
X219867965Y-58329485D01*
X219867966Y-58329481D01*
X219869691Y-58324610D01*
X219877620Y-58280096D01*
X219912055Y-58086783D01*
X219912056Y-58086777D01*
X219912961Y-58081694D01*
X219913409Y-58045028D01*
X231912025Y-58045028D01*
X231949347Y-58288930D01*
X232026003Y-58523460D01*
X232139935Y-58742321D01*
X232143038Y-58746454D01*
X232143040Y-58746457D01*
X232176029Y-58790394D01*
X232288083Y-58939636D01*
X232466468Y-59110104D01*
X232470740Y-59113018D01*
X232470741Y-59113019D01*
X232499893Y-59132905D01*
X232670300Y-59249149D01*
X232782202Y-59301092D01*
X232889409Y-59350856D01*
X232889413Y-59350857D01*
X232894104Y-59353035D01*
X233131871Y-59418974D01*
X233137008Y-59419523D01*
X233329957Y-59440144D01*
X233329965Y-59440144D01*
X233333292Y-59440500D01*
X233476554Y-59440500D01*
X233479127Y-59440288D01*
X233479138Y-59440288D01*
X233654760Y-59425849D01*
X233654766Y-59425848D01*
X233659911Y-59425425D01*
X233899217Y-59365316D01*
X234125493Y-59266928D01*
X234332661Y-59132905D01*
X234354516Y-59113019D01*
X234390536Y-59080243D01*
X234515158Y-58966846D01*
X234518357Y-58962795D01*
X234518361Y-58962791D01*
X234664881Y-58777264D01*
X234664884Y-58777259D01*
X234668082Y-58773210D01*
X234670577Y-58768691D01*
X234784830Y-58561722D01*
X234784832Y-58561718D01*
X234787327Y-58557198D01*
X234799275Y-58523460D01*
X234867965Y-58329485D01*
X234867966Y-58329481D01*
X234869691Y-58324610D01*
X234877620Y-58280096D01*
X234912055Y-58086783D01*
X234912056Y-58086777D01*
X234912961Y-58081694D01*
X234915975Y-57834972D01*
X234878653Y-57591070D01*
X234801997Y-57356540D01*
X234757027Y-57270153D01*
X234690454Y-57142268D01*
X234690453Y-57142267D01*
X234688065Y-57137679D01*
X234539917Y-56940364D01*
X234382314Y-56789756D01*
X234365269Y-56773467D01*
X234365268Y-56773466D01*
X234361532Y-56769896D01*
X234333212Y-56750577D01*
X234161979Y-56633770D01*
X234161980Y-56633770D01*
X234157700Y-56630851D01*
X234045798Y-56578908D01*
X233938591Y-56529144D01*
X233938587Y-56529143D01*
X233933896Y-56526965D01*
X233696129Y-56461026D01*
X233690992Y-56460477D01*
X233498043Y-56439856D01*
X233498035Y-56439856D01*
X233494708Y-56439500D01*
X233351446Y-56439500D01*
X233348873Y-56439712D01*
X233348862Y-56439712D01*
X233173240Y-56454151D01*
X233173234Y-56454152D01*
X233168089Y-56454575D01*
X232928783Y-56514684D01*
X232702507Y-56613072D01*
X232495339Y-56747095D01*
X232491514Y-56750575D01*
X232491512Y-56750577D01*
X232470281Y-56769896D01*
X232312842Y-56913154D01*
X232309643Y-56917205D01*
X232309639Y-56917209D01*
X232163119Y-57102736D01*
X232163116Y-57102741D01*
X232159918Y-57106790D01*
X232157425Y-57111306D01*
X232157423Y-57111309D01*
X232141299Y-57140519D01*
X232040673Y-57322802D01*
X232038949Y-57327671D01*
X232038947Y-57327675D01*
X231960035Y-57550515D01*
X231958309Y-57555390D01*
X231957402Y-57560483D01*
X231957401Y-57560486D01*
X231920139Y-57769677D01*
X231915039Y-57798306D01*
X231912025Y-58045028D01*
X219913409Y-58045028D01*
X219915975Y-57834972D01*
X219878653Y-57591070D01*
X219801997Y-57356540D01*
X219757027Y-57270153D01*
X219690454Y-57142268D01*
X219690453Y-57142267D01*
X219688065Y-57137679D01*
X219539917Y-56940364D01*
X219382314Y-56789756D01*
X219365269Y-56773467D01*
X219365268Y-56773466D01*
X219361532Y-56769896D01*
X219333212Y-56750577D01*
X219161979Y-56633770D01*
X219161980Y-56633770D01*
X219157700Y-56630851D01*
X219045798Y-56578908D01*
X218938591Y-56529144D01*
X218938587Y-56529143D01*
X218933896Y-56526965D01*
X218696129Y-56461026D01*
X218690992Y-56460477D01*
X218498043Y-56439856D01*
X218498035Y-56439856D01*
X218494708Y-56439500D01*
X218351446Y-56439500D01*
X218348873Y-56439712D01*
X218348862Y-56439712D01*
X218173240Y-56454151D01*
X218173234Y-56454152D01*
X218168089Y-56454575D01*
X217928783Y-56514684D01*
X217702507Y-56613072D01*
X217495339Y-56747095D01*
X217491514Y-56750575D01*
X217491512Y-56750577D01*
X217470281Y-56769896D01*
X217312842Y-56913154D01*
X217309643Y-56917205D01*
X217309639Y-56917209D01*
X217163119Y-57102736D01*
X217163116Y-57102741D01*
X217159918Y-57106790D01*
X217157425Y-57111306D01*
X217157423Y-57111309D01*
X217141299Y-57140519D01*
X217040673Y-57322802D01*
X217038949Y-57327671D01*
X217038947Y-57327675D01*
X216960035Y-57550515D01*
X216958309Y-57555390D01*
X216957402Y-57560483D01*
X216957401Y-57560486D01*
X216920139Y-57769677D01*
X216915039Y-57798306D01*
X216912025Y-58045028D01*
X192532000Y-58045028D01*
X192532000Y-50656000D01*
X192552002Y-50587879D01*
X192605658Y-50541386D01*
X192658000Y-50530000D01*
X236004918Y-50530000D01*
X236073039Y-50550002D01*
G37*
%TD.AperFunction*%
%TD*%
%TA.AperFunction,Conductor*%
%TO.N,LPSR_OUT*%
G36*
X152320769Y-62504002D02*
G01*
X152367262Y-62557658D01*
X152377366Y-62627932D01*
X152347872Y-62692512D01*
X152289697Y-62730430D01*
X151876361Y-62857589D01*
X151876354Y-62857591D01*
X151874158Y-62858267D01*
X151395821Y-63044763D01*
X150932426Y-63265790D01*
X150486464Y-63520163D01*
X150484561Y-63521442D01*
X150484559Y-63521443D01*
X150121955Y-63765103D01*
X150060330Y-63806513D01*
X150058530Y-63807924D01*
X150058525Y-63807928D01*
X149658134Y-64121874D01*
X149658124Y-64121882D01*
X149656311Y-64123304D01*
X149276579Y-64468834D01*
X149274997Y-64470501D01*
X149274992Y-64470506D01*
X148924770Y-64839564D01*
X148923173Y-64841247D01*
X148597990Y-65238542D01*
X148302778Y-65658586D01*
X148039122Y-66099123D01*
X147808438Y-66557787D01*
X147611966Y-67032114D01*
X147450760Y-67519556D01*
X147325686Y-68017496D01*
X147237416Y-68523258D01*
X147186425Y-69034127D01*
X147172985Y-69547359D01*
X147197170Y-70060197D01*
X147258849Y-70569886D01*
X147357691Y-71073689D01*
X147358304Y-71075928D01*
X147358304Y-71075930D01*
X147434827Y-71355648D01*
X147493166Y-71568900D01*
X147664545Y-72052859D01*
X147870908Y-72522968D01*
X148111147Y-72976699D01*
X148383971Y-73411618D01*
X148687915Y-73825388D01*
X149021346Y-74215786D01*
X149382474Y-74580716D01*
X149769360Y-74918218D01*
X149771195Y-74919596D01*
X149771199Y-74919599D01*
X150178068Y-75225085D01*
X150178077Y-75225091D01*
X150179924Y-75226478D01*
X150611962Y-75503841D01*
X150613992Y-75504943D01*
X151061130Y-75747720D01*
X151061139Y-75747724D01*
X151063153Y-75748818D01*
X151065246Y-75749763D01*
X151065248Y-75749764D01*
X151528963Y-75959140D01*
X151528977Y-75959146D01*
X151531075Y-75960093D01*
X152013213Y-76136530D01*
X152015440Y-76137164D01*
X152015445Y-76137166D01*
X152504755Y-76276550D01*
X152504761Y-76276551D01*
X152506978Y-76277183D01*
X152509239Y-76277651D01*
X152509238Y-76277651D01*
X153007466Y-76380830D01*
X153007476Y-76380832D01*
X153009718Y-76381296D01*
X153518734Y-76448309D01*
X153769249Y-76462754D01*
X154028993Y-76477731D01*
X154029005Y-76477731D01*
X154031290Y-76477863D01*
X154033590Y-76477827D01*
X154033596Y-76477827D01*
X154542302Y-76469835D01*
X154542312Y-76469834D01*
X154544634Y-76469798D01*
X154582376Y-76466430D01*
X155053706Y-76424365D01*
X155053718Y-76424363D01*
X155056009Y-76424159D01*
X155562669Y-76341191D01*
X156061891Y-76221338D01*
X156064089Y-76220636D01*
X156064098Y-76220634D01*
X156330123Y-76135734D01*
X156550994Y-76065245D01*
X157027352Y-75873750D01*
X157488407Y-75647882D01*
X157490382Y-75646728D01*
X157490393Y-75646722D01*
X157929698Y-75390012D01*
X157931680Y-75388854D01*
X158354793Y-75098057D01*
X158755472Y-74777052D01*
X159131565Y-74427565D01*
X159481052Y-74051472D01*
X159802057Y-73650793D01*
X160092854Y-73227680D01*
X160240718Y-72974642D01*
X160350722Y-72786393D01*
X160350728Y-72786382D01*
X160351882Y-72784407D01*
X160577750Y-72323352D01*
X160769245Y-71846994D01*
X160925338Y-71357891D01*
X161045191Y-70858669D01*
X161128159Y-70352009D01*
X161154410Y-70057878D01*
X161173621Y-69842615D01*
X161173798Y-69840634D01*
X161183399Y-69474000D01*
X161164586Y-68960937D01*
X161108247Y-68450630D01*
X161014686Y-67945820D01*
X160884405Y-67449217D01*
X160742343Y-67034288D01*
X160718849Y-66965668D01*
X160718846Y-66965661D01*
X160718103Y-66963490D01*
X160516675Y-66491246D01*
X160281200Y-66035023D01*
X160012946Y-65597271D01*
X159713351Y-65180342D01*
X159384026Y-64786473D01*
X159026739Y-64417782D01*
X158697975Y-64124863D01*
X158645130Y-64077780D01*
X158645124Y-64077775D01*
X158643409Y-64076247D01*
X158236096Y-63763705D01*
X158234175Y-63762443D01*
X157808914Y-63483098D01*
X157808905Y-63483093D01*
X157806986Y-63481832D01*
X157358385Y-63232144D01*
X157202096Y-63159597D01*
X156894787Y-63016949D01*
X156894780Y-63016946D01*
X156892701Y-63015981D01*
X156890559Y-63015171D01*
X156890548Y-63015167D01*
X156414586Y-62835316D01*
X156414585Y-62835316D01*
X156412437Y-62834504D01*
X156410236Y-62833852D01*
X156410230Y-62833850D01*
X156062376Y-62730811D01*
X156002741Y-62692286D01*
X155973402Y-62627635D01*
X155983673Y-62557385D01*
X156030294Y-62503840D01*
X156098162Y-62484000D01*
X175642000Y-62484000D01*
X175710121Y-62504002D01*
X175756614Y-62557658D01*
X175768000Y-62610000D01*
X175768000Y-94870000D01*
X175747998Y-94938121D01*
X175694342Y-94984614D01*
X175642000Y-94996000D01*
X137286000Y-94996000D01*
X137217879Y-94975998D01*
X137171386Y-94922342D01*
X137160000Y-94870000D01*
X137160000Y-62610000D01*
X137180002Y-62541879D01*
X137233658Y-62495386D01*
X137286000Y-62484000D01*
X152252648Y-62484000D01*
X152320769Y-62504002D01*
G37*
%TD.AperFunction*%
%TD*%
%TA.AperFunction,Conductor*%
%TO.N,Voltage_OUT*%
G36*
X98240121Y-50550002D02*
G01*
X98286614Y-50603658D01*
X98298000Y-50656000D01*
X98298000Y-56486507D01*
X98277998Y-56554628D01*
X98224342Y-56601121D01*
X98154068Y-56611225D01*
X98118950Y-56600795D01*
X97964591Y-56529144D01*
X97964587Y-56529143D01*
X97959896Y-56526965D01*
X97722129Y-56461026D01*
X97716992Y-56460477D01*
X97524043Y-56439856D01*
X97524035Y-56439856D01*
X97520708Y-56439500D01*
X97377446Y-56439500D01*
X97374873Y-56439712D01*
X97374862Y-56439712D01*
X97199240Y-56454151D01*
X97199234Y-56454152D01*
X97194089Y-56454575D01*
X96954783Y-56514684D01*
X96728507Y-56613072D01*
X96521339Y-56747095D01*
X96517514Y-56750575D01*
X96517512Y-56750577D01*
X96496281Y-56769896D01*
X96338842Y-56913154D01*
X96335643Y-56917205D01*
X96335639Y-56917209D01*
X96189119Y-57102736D01*
X96189116Y-57102741D01*
X96185918Y-57106790D01*
X96183425Y-57111306D01*
X96183423Y-57111309D01*
X96171150Y-57133543D01*
X96066673Y-57322802D01*
X96064949Y-57327671D01*
X96064947Y-57327675D01*
X96052984Y-57361458D01*
X95984309Y-57555390D01*
X95941039Y-57798306D01*
X95938025Y-58045028D01*
X95975347Y-58288930D01*
X96052003Y-58523460D01*
X96165935Y-58742321D01*
X96314083Y-58939636D01*
X96492468Y-59110104D01*
X96496740Y-59113018D01*
X96496741Y-59113019D01*
X96525893Y-59132905D01*
X96696300Y-59249149D01*
X96743454Y-59271037D01*
X96915409Y-59350856D01*
X96915413Y-59350857D01*
X96920104Y-59353035D01*
X97157871Y-59418974D01*
X97163008Y-59419523D01*
X97355957Y-59440144D01*
X97355965Y-59440144D01*
X97359292Y-59440500D01*
X97502554Y-59440500D01*
X97505127Y-59440288D01*
X97505138Y-59440288D01*
X97680760Y-59425849D01*
X97680766Y-59425848D01*
X97685911Y-59425425D01*
X97925217Y-59365316D01*
X98121759Y-59279857D01*
X98192204Y-59271037D01*
X98256236Y-59301704D01*
X98293524Y-59362120D01*
X98298000Y-59395407D01*
X98298000Y-62358000D01*
X98277998Y-62426121D01*
X98224342Y-62472614D01*
X98172000Y-62484000D01*
X79628000Y-62484000D01*
X79559879Y-62463998D01*
X79513386Y-62410342D01*
X79502000Y-62358000D01*
X79502000Y-58045028D01*
X86938025Y-58045028D01*
X86975347Y-58288930D01*
X87052003Y-58523460D01*
X87165935Y-58742321D01*
X87314083Y-58939636D01*
X87492468Y-59110104D01*
X87496740Y-59113018D01*
X87496741Y-59113019D01*
X87525893Y-59132905D01*
X87696300Y-59249149D01*
X87743454Y-59271037D01*
X87915409Y-59350856D01*
X87915413Y-59350857D01*
X87920104Y-59353035D01*
X88157871Y-59418974D01*
X88163008Y-59419523D01*
X88355957Y-59440144D01*
X88355965Y-59440144D01*
X88359292Y-59440500D01*
X88502554Y-59440500D01*
X88505127Y-59440288D01*
X88505138Y-59440288D01*
X88680760Y-59425849D01*
X88680766Y-59425848D01*
X88685911Y-59425425D01*
X88925217Y-59365316D01*
X89071514Y-59301704D01*
X89146744Y-59268993D01*
X89146745Y-59268993D01*
X89151493Y-59266928D01*
X89358661Y-59132905D01*
X89380516Y-59113019D01*
X89416536Y-59080243D01*
X89541158Y-58966846D01*
X89544357Y-58962795D01*
X89544361Y-58962791D01*
X89690881Y-58777264D01*
X89690884Y-58777259D01*
X89694082Y-58773210D01*
X89696577Y-58768691D01*
X89810830Y-58561722D01*
X89810832Y-58561718D01*
X89813327Y-58557198D01*
X89825275Y-58523460D01*
X89893965Y-58329485D01*
X89893966Y-58329481D01*
X89895691Y-58324610D01*
X89938961Y-58081694D01*
X89941975Y-57834972D01*
X89904653Y-57591070D01*
X89827997Y-57356540D01*
X89714065Y-57137679D01*
X89565917Y-56940364D01*
X89387532Y-56769896D01*
X89359212Y-56750577D01*
X89187979Y-56633770D01*
X89187980Y-56633770D01*
X89183700Y-56630851D01*
X89019491Y-56554628D01*
X88964591Y-56529144D01*
X88964587Y-56529143D01*
X88959896Y-56526965D01*
X88722129Y-56461026D01*
X88716992Y-56460477D01*
X88524043Y-56439856D01*
X88524035Y-56439856D01*
X88520708Y-56439500D01*
X88377446Y-56439500D01*
X88374873Y-56439712D01*
X88374862Y-56439712D01*
X88199240Y-56454151D01*
X88199234Y-56454152D01*
X88194089Y-56454575D01*
X87954783Y-56514684D01*
X87728507Y-56613072D01*
X87521339Y-56747095D01*
X87517514Y-56750575D01*
X87517512Y-56750577D01*
X87496281Y-56769896D01*
X87338842Y-56913154D01*
X87335643Y-56917205D01*
X87335639Y-56917209D01*
X87189119Y-57102736D01*
X87189116Y-57102741D01*
X87185918Y-57106790D01*
X87183425Y-57111306D01*
X87183423Y-57111309D01*
X87171150Y-57133543D01*
X87066673Y-57322802D01*
X87064949Y-57327671D01*
X87064947Y-57327675D01*
X87052984Y-57361458D01*
X86984309Y-57555390D01*
X86941039Y-57798306D01*
X86938025Y-58045028D01*
X79502000Y-58045028D01*
X79502000Y-50656000D01*
X79522002Y-50587879D01*
X79575658Y-50541386D01*
X79628000Y-50530000D01*
X98172000Y-50530000D01*
X98240121Y-50550002D01*
G37*
%TD.AperFunction*%
%TD*%
%TA.AperFunction,Conductor*%
%TO.N,Net-(C21-Pad1)*%
G36*
X147695142Y-101874002D02*
G01*
X147741635Y-101927658D01*
X147751739Y-101997932D01*
X147722245Y-102062512D01*
X147703725Y-102079963D01*
X147551996Y-102196388D01*
X147551990Y-102196393D01*
X147549828Y-102198052D01*
X147211799Y-102507799D01*
X146902052Y-102845828D01*
X146622945Y-103209568D01*
X146376602Y-103596249D01*
X146164898Y-104002929D01*
X145989444Y-104426512D01*
X145851575Y-104863776D01*
X145752341Y-105311392D01*
X145692497Y-105765953D01*
X145677500Y-106109437D01*
X145677501Y-112838562D01*
X145692497Y-113182047D01*
X145752341Y-113636608D01*
X145851575Y-114084224D01*
X145989444Y-114521488D01*
X146164898Y-114945071D01*
X146376602Y-115351751D01*
X146622945Y-115738432D01*
X146902052Y-116102172D01*
X147211799Y-116440201D01*
X147549828Y-116749948D01*
X147551990Y-116751607D01*
X147551996Y-116751612D01*
X147675762Y-116846581D01*
X147913568Y-117029055D01*
X148300249Y-117275398D01*
X148706929Y-117487102D01*
X149130512Y-117662556D01*
X149133132Y-117663382D01*
X149133140Y-117663385D01*
X149565146Y-117799596D01*
X149565151Y-117799597D01*
X149567776Y-117800425D01*
X150015392Y-117899659D01*
X150018111Y-117900017D01*
X150018117Y-117900018D01*
X150188628Y-117922466D01*
X150469953Y-117959503D01*
X150472702Y-117959623D01*
X150472713Y-117959624D01*
X150812061Y-117974440D01*
X150812065Y-117974440D01*
X150813437Y-117974500D01*
X154178000Y-117974500D01*
X157542562Y-117974499D01*
X157543934Y-117974439D01*
X157543939Y-117974439D01*
X157608854Y-117971605D01*
X157886047Y-117959503D01*
X158167372Y-117922466D01*
X158337883Y-117900018D01*
X158337889Y-117900017D01*
X158340608Y-117899659D01*
X158788224Y-117800425D01*
X158790849Y-117799597D01*
X158790854Y-117799596D01*
X159222860Y-117663385D01*
X159222868Y-117663382D01*
X159225488Y-117662556D01*
X159649071Y-117487102D01*
X160055751Y-117275398D01*
X160442432Y-117029055D01*
X160680238Y-116846581D01*
X160804004Y-116751612D01*
X160804010Y-116751607D01*
X160806172Y-116749948D01*
X161144201Y-116440201D01*
X161325104Y-116242780D01*
X161385872Y-116206070D01*
X161456841Y-116208041D01*
X161515479Y-116248068D01*
X161543167Y-116313443D01*
X161544000Y-116327905D01*
X161544000Y-140606000D01*
X161523998Y-140674121D01*
X161470342Y-140720614D01*
X161418000Y-140732000D01*
X86775905Y-140732000D01*
X86707784Y-140711998D01*
X86661291Y-140658342D01*
X86651187Y-140588068D01*
X86680681Y-140523488D01*
X86717725Y-140494237D01*
X86755226Y-140474715D01*
X86903751Y-140397398D01*
X87290432Y-140151055D01*
X87528238Y-139968581D01*
X87652004Y-139873612D01*
X87652010Y-139873607D01*
X87654172Y-139871948D01*
X87992201Y-139562201D01*
X88301948Y-139224172D01*
X88581055Y-138860432D01*
X88827398Y-138473751D01*
X89039102Y-138067071D01*
X89214556Y-137643488D01*
X89352425Y-137206224D01*
X89451659Y-136758608D01*
X89511503Y-136304047D01*
X89526500Y-135960563D01*
X89526499Y-129231438D01*
X89511503Y-128887953D01*
X89451659Y-128433392D01*
X89352425Y-127985776D01*
X89214556Y-127548512D01*
X89039102Y-127124929D01*
X88827398Y-126718249D01*
X88581055Y-126331568D01*
X88301948Y-125967828D01*
X87992201Y-125629799D01*
X87654172Y-125320052D01*
X87652010Y-125318393D01*
X87652004Y-125318388D01*
X87528238Y-125223419D01*
X87290432Y-125040945D01*
X86903751Y-124794602D01*
X86497071Y-124582898D01*
X86073488Y-124407444D01*
X86070868Y-124406618D01*
X86070860Y-124406615D01*
X85638854Y-124270404D01*
X85638849Y-124270403D01*
X85636224Y-124269575D01*
X85188608Y-124170341D01*
X85185889Y-124169983D01*
X85185883Y-124169982D01*
X85015372Y-124147534D01*
X84734047Y-124110497D01*
X84731298Y-124110377D01*
X84731287Y-124110376D01*
X84391939Y-124095560D01*
X84391935Y-124095560D01*
X84390563Y-124095500D01*
X84389187Y-124095500D01*
X81026001Y-124095501D01*
X77661438Y-124095501D01*
X77660066Y-124095561D01*
X77660061Y-124095561D01*
X77595146Y-124098395D01*
X77317953Y-124110497D01*
X77036628Y-124147534D01*
X76866117Y-124169982D01*
X76866111Y-124169983D01*
X76863392Y-124170341D01*
X76415776Y-124269575D01*
X76413151Y-124270403D01*
X76413146Y-124270404D01*
X75981140Y-124406615D01*
X75981132Y-124406618D01*
X75978512Y-124407444D01*
X75554929Y-124582898D01*
X75148249Y-124794602D01*
X74761568Y-125040945D01*
X74523762Y-125223419D01*
X74399996Y-125318388D01*
X74399990Y-125318393D01*
X74397828Y-125320052D01*
X74059799Y-125629799D01*
X73750052Y-125967828D01*
X73470945Y-126331568D01*
X73224602Y-126718249D01*
X73012898Y-127124929D01*
X72837444Y-127548512D01*
X72699575Y-127985776D01*
X72600341Y-128433392D01*
X72540497Y-128887953D01*
X72525500Y-129231437D01*
X72525501Y-135960562D01*
X72540497Y-136304047D01*
X72600341Y-136758608D01*
X72699575Y-137206224D01*
X72837444Y-137643488D01*
X73012898Y-138067071D01*
X73224602Y-138473751D01*
X73470945Y-138860432D01*
X73750052Y-139224172D01*
X74059799Y-139562201D01*
X74397828Y-139871948D01*
X74399990Y-139873607D01*
X74399996Y-139873612D01*
X74523762Y-139968581D01*
X74761568Y-140151055D01*
X75148249Y-140397398D01*
X75296774Y-140474715D01*
X75334275Y-140494237D01*
X75385463Y-140543433D01*
X75401928Y-140612495D01*
X75378441Y-140679494D01*
X75322460Y-140723159D01*
X75276095Y-140732000D01*
X64626000Y-140732000D01*
X64557879Y-140711998D01*
X64511386Y-140658342D01*
X64500000Y-140606000D01*
X64500000Y-101980000D01*
X64520002Y-101911879D01*
X64573658Y-101865386D01*
X64626000Y-101854000D01*
X147627021Y-101854000D01*
X147695142Y-101874002D01*
G37*
%TD.AperFunction*%
%TD*%
M02*
