%TF.GenerationSoftware,KiCad,Pcbnew,(6.0.1)*%
%TF.CreationDate,2022-06-01T15:29:14+03:00*%
%TF.ProjectId,Power,506f7765-722e-46b6-9963-61645f706362,rev?*%
%TF.SameCoordinates,Original*%
%TF.FileFunction,Copper,L4,Bot*%
%TF.FilePolarity,Positive*%
%FSLAX46Y46*%
G04 Gerber Fmt 4.6, Leading zero omitted, Abs format (unit mm)*
G04 Created by KiCad (PCBNEW (6.0.1)) date 2022-06-01 15:29:14*
%MOMM*%
%LPD*%
G01*
G04 APERTURE LIST*
G04 Aperture macros list*
%AMRoundRect*
0 Rectangle with rounded corners*
0 $1 Rounding radius*
0 $2 $3 $4 $5 $6 $7 $8 $9 X,Y pos of 4 corners*
0 Add a 4 corners polygon primitive as box body*
4,1,4,$2,$3,$4,$5,$6,$7,$8,$9,$2,$3,0*
0 Add four circle primitives for the rounded corners*
1,1,$1+$1,$2,$3*
1,1,$1+$1,$4,$5*
1,1,$1+$1,$6,$7*
1,1,$1+$1,$8,$9*
0 Add four rect primitives between the rounded corners*
20,1,$1+$1,$2,$3,$4,$5,0*
20,1,$1+$1,$4,$5,$6,$7,0*
20,1,$1+$1,$6,$7,$8,$9,0*
20,1,$1+$1,$8,$9,$2,$3,0*%
G04 Aperture macros list end*
%TA.AperFunction,ComponentPad*%
%ADD10RoundRect,0.250001X-0.499999X0.499999X-0.499999X-0.499999X0.499999X-0.499999X0.499999X0.499999X0*%
%TD*%
%TA.AperFunction,ComponentPad*%
%ADD11C,1.500000*%
%TD*%
%TA.AperFunction,ComponentPad*%
%ADD12RoundRect,0.250001X0.499999X0.499999X-0.499999X0.499999X-0.499999X-0.499999X0.499999X-0.499999X0*%
%TD*%
%TA.AperFunction,WasherPad*%
%ADD13C,10.000000*%
%TD*%
%TA.AperFunction,ComponentPad*%
%ADD14RoundRect,3.250000X-3.250000X-3.250000X3.250000X-3.250000X3.250000X3.250000X-3.250000X3.250000X0*%
%TD*%
%TA.AperFunction,ComponentPad*%
%ADD15C,2.500000*%
%TD*%
%TA.AperFunction,ComponentPad*%
%ADD16RoundRect,0.250001X-0.499999X-0.499999X0.499999X-0.499999X0.499999X0.499999X-0.499999X0.499999X0*%
%TD*%
%TA.AperFunction,SMDPad,CuDef*%
%ADD17RoundRect,0.250000X-0.450000X0.350000X-0.450000X-0.350000X0.450000X-0.350000X0.450000X0.350000X0*%
%TD*%
%TA.AperFunction,ComponentPad*%
%ADD18O,2.500000X2.000000*%
%TD*%
%TA.AperFunction,ComponentPad*%
%ADD19O,1.500000X2.000000*%
%TD*%
%TA.AperFunction,SMDPad,CuDef*%
%ADD20RoundRect,0.250000X0.475000X-0.337500X0.475000X0.337500X-0.475000X0.337500X-0.475000X-0.337500X0*%
%TD*%
%TA.AperFunction,SMDPad,CuDef*%
%ADD21RoundRect,0.250000X0.337500X0.475000X-0.337500X0.475000X-0.337500X-0.475000X0.337500X-0.475000X0*%
%TD*%
%TA.AperFunction,ViaPad*%
%ADD22C,0.800000*%
%TD*%
%TA.AperFunction,Conductor*%
%ADD23C,0.500000*%
%TD*%
G04 APERTURE END LIST*
D10*
%TO.P,J3,1,Pin_1*%
%TO.N,LPSR_IN*%
X218500000Y-87956000D03*
D11*
%TO.P,J3,2,Pin_2*%
X218500000Y-90956000D03*
%TO.P,J3,3,Pin_3*%
X218500000Y-93956000D03*
%TO.P,J3,4,Pin_4*%
X218500000Y-96956000D03*
%TO.P,J3,5,Pin_5*%
X215500000Y-87956000D03*
%TO.P,J3,6,Pin_6*%
X215500000Y-90956000D03*
%TO.P,J3,7,Pin_7*%
X215500000Y-93956000D03*
%TO.P,J3,8,Pin_8*%
X215500000Y-96956000D03*
%TD*%
D12*
%TO.P,J9,1,Pin_1*%
%TO.N,GND*%
X191746000Y-131826000D03*
D11*
%TO.P,J9,2,Pin_2*%
%TO.N,Current_Measure*%
X188746000Y-131826000D03*
%TO.P,J9,3,Pin_3*%
%TO.N,GND*%
X191746000Y-128826000D03*
%TO.P,J9,4,Pin_4*%
%TO.N,Current_Measure*%
X188746000Y-128826000D03*
%TD*%
D12*
%TO.P,J10,1,Pin_1*%
%TO.N,GNDPWR*%
X179300000Y-131826000D03*
D11*
%TO.P,J10,2,Pin_2*%
X176300000Y-131826000D03*
%TO.P,J10,3,Pin_3*%
%TO.N,Voltage_IN*%
X179300000Y-128826000D03*
%TO.P,J10,4,Pin_4*%
%TO.N,Voltage_OUT*%
X176300000Y-128826000D03*
%TD*%
D13*
%TO.P,D2,*%
%TO.N,*%
X81026000Y-69596000D03*
D14*
%TO.P,D2,1,E1*%
%TO.N,Net-(D2-Pad1)*%
X81026000Y-86596000D03*
%TO.P,D2,2,E2*%
%TO.N,Net-(C21-Pad1)*%
X81026000Y-109596000D03*
%TO.P,D2,3,K1*%
%TO.N,unconnected-(D2-Pad3)*%
X81026000Y-132596000D03*
%TD*%
D15*
%TO.P,C24,1*%
%TO.N,Voltage_IN*%
X200894000Y-65031000D03*
X180594000Y-65031000D03*
%TO.P,C24,2*%
%TO.N,GNDPWR*%
X180594000Y-117531000D03*
X200894000Y-117531000D03*
%TD*%
D16*
%TO.P,J1,1,Pin_1*%
%TO.N,Voltage_OUT*%
X91440000Y-54000000D03*
D11*
%TO.P,J1,2,Pin_2*%
X94440000Y-54000000D03*
%TO.P,J1,3,Pin_3*%
X91440000Y-57000000D03*
%TO.P,J1,4,Pin_4*%
X94440000Y-57000000D03*
%TD*%
D16*
%TO.P,J6,1,Pin_1*%
%TO.N,GNDPWR*%
X165840000Y-54000000D03*
D11*
%TO.P,J6,2,Pin_2*%
X168840000Y-54000000D03*
%TO.P,J6,3,Pin_3*%
X171840000Y-54000000D03*
%TO.P,J6,4,Pin_4*%
X174840000Y-54000000D03*
%TO.P,J6,5,Pin_5*%
X165840000Y-57000000D03*
%TO.P,J6,6,Pin_6*%
X168840000Y-57000000D03*
%TO.P,J6,7,Pin_7*%
X171840000Y-57000000D03*
%TO.P,J6,8,Pin_8*%
X174840000Y-57000000D03*
%TD*%
D12*
%TO.P,J8,1,Pin_1*%
%TO.N,+5V*%
X204192000Y-131826000D03*
D11*
%TO.P,J8,2,Pin_2*%
%TO.N,GND*%
X201192000Y-131826000D03*
%TO.P,J8,3,Pin_3*%
%TO.N,+5V*%
X204192000Y-128826000D03*
%TO.P,J8,4,Pin_4*%
%TO.N,GND*%
X201192000Y-128826000D03*
%TD*%
D15*
%TO.P,C21,1*%
%TO.N,Net-(C21-Pad1)*%
X107462000Y-117595000D03*
X127762000Y-117595000D03*
%TO.P,C21,2*%
%TO.N,GNDPWR*%
X107462000Y-65095000D03*
X127762000Y-65095000D03*
%TD*%
D10*
%TO.P,J4,1,Pin_1*%
%TO.N,Voltage_IN*%
X218500000Y-69414000D03*
D11*
%TO.P,J4,2,Pin_2*%
X218500000Y-72414000D03*
%TO.P,J4,3,Pin_3*%
X218500000Y-75414000D03*
%TO.P,J4,4,Pin_4*%
X218500000Y-78414000D03*
%TO.P,J4,5,Pin_5*%
X215500000Y-69414000D03*
%TO.P,J4,6,Pin_6*%
X215500000Y-72414000D03*
%TO.P,J4,7,Pin_7*%
X215500000Y-75414000D03*
%TO.P,J4,8,Pin_8*%
X215500000Y-78414000D03*
%TD*%
D13*
%TO.P,D1,*%
%TO.N,*%
X154178000Y-69474000D03*
D14*
%TO.P,D1,1,E1*%
%TO.N,LPSR_OUT*%
X154178000Y-86474000D03*
%TO.P,D1,2,E2*%
%TO.N,GNDPWR*%
X154178000Y-109474000D03*
%TO.P,D1,3,K1*%
%TO.N,Net-(C21-Pad1)*%
X154178000Y-132474000D03*
%TD*%
D16*
%TO.P,J5,1,Pin_1*%
%TO.N,Voltage_IN*%
X221414000Y-54000000D03*
D11*
%TO.P,J5,2,Pin_2*%
X224414000Y-54000000D03*
%TO.P,J5,3,Pin_3*%
X227414000Y-54000000D03*
%TO.P,J5,4,Pin_4*%
X230414000Y-54000000D03*
%TO.P,J5,5,Pin_5*%
X221414000Y-57000000D03*
%TO.P,J5,6,Pin_6*%
X224414000Y-57000000D03*
%TO.P,J5,7,Pin_7*%
X227414000Y-57000000D03*
%TO.P,J5,8,Pin_8*%
X230414000Y-57000000D03*
%TD*%
D16*
%TO.P,J2,1,Pin_1*%
%TO.N,GNDPWR*%
X106262000Y-54000000D03*
D11*
%TO.P,J2,2,Pin_2*%
X109262000Y-54000000D03*
%TO.P,J2,3,Pin_3*%
X106262000Y-57000000D03*
%TO.P,J2,4,Pin_4*%
X109262000Y-57000000D03*
%TD*%
D17*
%TO.P,R4,1*%
%TO.N,Net-(D4-Pad11)*%
X180086000Y-104410000D03*
%TO.P,R4,2*%
%TO.N,Current_Measure*%
X180086000Y-106410000D03*
%TD*%
D18*
%TO.P,D4,1,INPUT_CURRENT*%
%TO.N,LPSR_IN*%
X186690000Y-83312000D03*
%TO.P,D4,2,INPUT_CURRENT*%
X186690000Y-85852000D03*
%TO.P,D4,3,INPUT_CURRENT*%
X186690000Y-88392000D03*
%TO.P,D4,4,INPUT_CURRENT*%
X186690000Y-90932000D03*
%TO.P,D4,5,OUTPUT_CURRENT*%
%TO.N,LPSR_OUT*%
X173990000Y-83312000D03*
%TO.P,D4,6,OUTPUT_CURRENT*%
X173990000Y-85852000D03*
%TO.P,D4,7,OUTPUT_CURRENT*%
X173990000Y-88392000D03*
%TO.P,D4,8,OUTPUT_CURRENT*%
X173990000Y-90932000D03*
D19*
%TO.P,D4,9,+Uc*%
%TO.N,+5V*%
X184150000Y-101102000D03*
%TO.P,D4,10,GND*%
%TO.N,GND*%
X182245000Y-101102000D03*
%TO.P,D4,11,Vout*%
%TO.N,Net-(D4-Pad11)*%
X180340000Y-101102000D03*
%TO.P,D4,12,Vref*%
%TO.N,unconnected-(D4-Pad12)*%
X178435000Y-101102000D03*
%TO.P,D4,13,OCD*%
%TO.N,unconnected-(D4-Pad13)*%
X176530000Y-101102000D03*
%TD*%
D20*
%TO.P,C7,1*%
%TO.N,Current_Measure*%
X182372000Y-106447500D03*
%TO.P,C7,2*%
%TO.N,GND*%
X182372000Y-104372500D03*
%TD*%
D21*
%TO.P,C3,1*%
%TO.N,+5V*%
X186711500Y-104648000D03*
%TO.P,C3,2*%
%TO.N,GND*%
X184636500Y-104648000D03*
%TD*%
D22*
%TO.N,Current_Measure*%
X182372000Y-108204000D03*
%TO.N,+5V*%
X186711500Y-108182500D03*
%TO.N,GND*%
X184658000Y-108204000D03*
%TD*%
D23*
%TO.N,Current_Measure*%
X180086000Y-106410000D02*
X182334500Y-106410000D01*
X182372000Y-106447500D02*
X182372000Y-108204000D01*
X182334500Y-106410000D02*
X182372000Y-106447500D01*
%TO.N,+5V*%
X186711500Y-104648000D02*
X186711500Y-102129500D01*
X186711500Y-102129500D02*
X185684000Y-101102000D01*
X185684000Y-101102000D02*
X184150000Y-101102000D01*
X186711500Y-104648000D02*
X186711500Y-108182500D01*
%TO.N,GND*%
X184361000Y-104372500D02*
X184636500Y-104648000D01*
X182372000Y-104372500D02*
X184361000Y-104372500D01*
X182245000Y-104245500D02*
X182372000Y-104372500D01*
X182245000Y-101102000D02*
X182245000Y-104245500D01*
X184636500Y-104648000D02*
X184636500Y-108182500D01*
X184636500Y-108182500D02*
X184658000Y-108204000D01*
%TO.N,Net-(D4-Pad11)*%
X180340000Y-101102000D02*
X180340000Y-104156000D01*
X180340000Y-104156000D02*
X180086000Y-104410000D01*
%TD*%
%TA.AperFunction,Conductor*%
%TO.N,GNDPWR*%
G36*
X188664121Y-51550002D02*
G01*
X188710614Y-51603658D01*
X188722000Y-51656000D01*
X188722000Y-77090000D01*
X188701998Y-77158121D01*
X188648342Y-77204614D01*
X188596000Y-77216000D01*
X168910000Y-77216000D01*
X168910000Y-111506000D01*
X208186000Y-111506000D01*
X208254121Y-111526002D01*
X208300614Y-111579658D01*
X208312000Y-111632000D01*
X208312000Y-125450977D01*
X208291998Y-125519098D01*
X208238342Y-125565591D01*
X208168068Y-125575695D01*
X208132352Y-125564985D01*
X208125207Y-125561622D01*
X208117905Y-125558186D01*
X208117901Y-125558184D01*
X208114315Y-125556497D01*
X207815079Y-125459269D01*
X207506015Y-125400312D01*
X207412511Y-125394429D01*
X207272578Y-125385625D01*
X207272562Y-125385624D01*
X207270583Y-125385500D01*
X207113417Y-125385500D01*
X207111438Y-125385624D01*
X207111422Y-125385625D01*
X206971489Y-125394429D01*
X206877985Y-125400312D01*
X206568921Y-125459269D01*
X206269685Y-125556497D01*
X206266099Y-125558184D01*
X206266095Y-125558186D01*
X205988579Y-125688775D01*
X205988572Y-125688779D01*
X205984993Y-125690463D01*
X205719337Y-125859053D01*
X205476906Y-126059610D01*
X205322065Y-126224499D01*
X205260853Y-126260463D01*
X205185063Y-126255877D01*
X205182952Y-126255067D01*
X205179493Y-126253494D01*
X204863288Y-126153491D01*
X204718802Y-126126321D01*
X204541083Y-126092901D01*
X204541078Y-126092900D01*
X204537359Y-126092201D01*
X204206428Y-126070511D01*
X204202648Y-126070719D01*
X204202647Y-126070719D01*
X204104888Y-126076099D01*
X203875288Y-126088735D01*
X203871561Y-126089396D01*
X203871557Y-126089396D01*
X203606350Y-126136397D01*
X203548735Y-126146608D01*
X203545110Y-126147713D01*
X203545105Y-126147714D01*
X203296529Y-126223475D01*
X203231500Y-126243294D01*
X202928179Y-126377391D01*
X202810937Y-126447143D01*
X202756230Y-126479690D01*
X202687460Y-126497330D01*
X202626254Y-126479010D01*
X202484625Y-126392729D01*
X202484626Y-126392729D01*
X202481393Y-126390760D01*
X202360909Y-126335979D01*
X202182945Y-126255063D01*
X202182937Y-126255060D01*
X202179493Y-126253494D01*
X201863288Y-126153491D01*
X201718802Y-126126321D01*
X201541083Y-126092901D01*
X201541078Y-126092900D01*
X201537359Y-126092201D01*
X201206428Y-126070511D01*
X201202648Y-126070719D01*
X201202647Y-126070719D01*
X201104888Y-126076099D01*
X200875288Y-126088735D01*
X200871561Y-126089396D01*
X200871557Y-126089396D01*
X200606350Y-126136397D01*
X200548735Y-126146608D01*
X200545110Y-126147713D01*
X200545105Y-126147714D01*
X200296529Y-126223475D01*
X200231500Y-126243294D01*
X200205819Y-126254647D01*
X200135430Y-126263897D01*
X200071212Y-126233622D01*
X200063025Y-126225659D01*
X199909809Y-126062501D01*
X199909808Y-126062500D01*
X199907094Y-126059610D01*
X199664663Y-125859053D01*
X199399007Y-125690463D01*
X199395428Y-125688779D01*
X199395421Y-125688775D01*
X199117905Y-125558186D01*
X199117901Y-125558184D01*
X199114315Y-125556497D01*
X198815079Y-125459269D01*
X198506015Y-125400312D01*
X198412511Y-125394429D01*
X198272578Y-125385625D01*
X198272562Y-125385624D01*
X198270583Y-125385500D01*
X198113417Y-125385500D01*
X198111438Y-125385624D01*
X198111422Y-125385625D01*
X197971489Y-125394429D01*
X197877985Y-125400312D01*
X197568921Y-125459269D01*
X197269685Y-125556497D01*
X197266099Y-125558184D01*
X197266095Y-125558186D01*
X196988579Y-125688775D01*
X196988572Y-125688779D01*
X196984993Y-125690463D01*
X196719337Y-125859053D01*
X196716285Y-125861578D01*
X196549316Y-125999707D01*
X196484078Y-126027717D01*
X196414053Y-126016010D01*
X196388684Y-125999707D01*
X196221715Y-125861578D01*
X196218663Y-125859053D01*
X195953007Y-125690463D01*
X195949428Y-125688779D01*
X195949421Y-125688775D01*
X195671905Y-125558186D01*
X195671901Y-125558184D01*
X195668315Y-125556497D01*
X195369079Y-125459269D01*
X195060015Y-125400312D01*
X194966511Y-125394429D01*
X194826578Y-125385625D01*
X194826562Y-125385624D01*
X194824583Y-125385500D01*
X194667417Y-125385500D01*
X194665438Y-125385624D01*
X194665422Y-125385625D01*
X194525489Y-125394429D01*
X194431985Y-125400312D01*
X194122921Y-125459269D01*
X193823685Y-125556497D01*
X193820099Y-125558184D01*
X193820095Y-125558186D01*
X193542579Y-125688775D01*
X193542572Y-125688779D01*
X193538993Y-125690463D01*
X193273337Y-125859053D01*
X193030906Y-126059610D01*
X192876065Y-126224499D01*
X192814853Y-126260463D01*
X192739063Y-126255877D01*
X192736952Y-126255067D01*
X192733493Y-126253494D01*
X192417288Y-126153491D01*
X192272802Y-126126321D01*
X192095083Y-126092901D01*
X192095078Y-126092900D01*
X192091359Y-126092201D01*
X191760428Y-126070511D01*
X191756648Y-126070719D01*
X191756647Y-126070719D01*
X191658888Y-126076099D01*
X191429288Y-126088735D01*
X191425561Y-126089396D01*
X191425557Y-126089396D01*
X191160350Y-126136397D01*
X191102735Y-126146608D01*
X191099110Y-126147713D01*
X191099105Y-126147714D01*
X190850529Y-126223475D01*
X190785500Y-126243294D01*
X190482179Y-126377391D01*
X190364937Y-126447143D01*
X190310230Y-126479690D01*
X190241460Y-126497330D01*
X190180254Y-126479010D01*
X190038625Y-126392729D01*
X190038626Y-126392729D01*
X190035393Y-126390760D01*
X189914909Y-126335979D01*
X189736945Y-126255063D01*
X189736937Y-126255060D01*
X189733493Y-126253494D01*
X189417288Y-126153491D01*
X189272802Y-126126321D01*
X189095083Y-126092901D01*
X189095078Y-126092900D01*
X189091359Y-126092201D01*
X188760428Y-126070511D01*
X188756648Y-126070719D01*
X188756647Y-126070719D01*
X188658888Y-126076099D01*
X188429288Y-126088735D01*
X188425561Y-126089396D01*
X188425557Y-126089396D01*
X188160350Y-126136397D01*
X188102735Y-126146608D01*
X188099110Y-126147713D01*
X188099105Y-126147714D01*
X187850529Y-126223475D01*
X187785500Y-126243294D01*
X187759819Y-126254647D01*
X187689430Y-126263897D01*
X187625212Y-126233622D01*
X187617025Y-126225659D01*
X187463809Y-126062501D01*
X187463808Y-126062500D01*
X187461094Y-126059610D01*
X187218663Y-125859053D01*
X186953007Y-125690463D01*
X186949428Y-125688779D01*
X186949421Y-125688775D01*
X186671905Y-125558186D01*
X186671901Y-125558184D01*
X186668315Y-125556497D01*
X186369079Y-125459269D01*
X186060015Y-125400312D01*
X185966511Y-125394429D01*
X185826578Y-125385625D01*
X185826562Y-125385624D01*
X185824583Y-125385500D01*
X185667417Y-125385500D01*
X185665438Y-125385624D01*
X185665422Y-125385625D01*
X185525489Y-125394429D01*
X185431985Y-125400312D01*
X185122921Y-125459269D01*
X184823685Y-125556497D01*
X184820099Y-125558184D01*
X184820095Y-125558186D01*
X184542579Y-125688775D01*
X184542572Y-125688779D01*
X184538993Y-125690463D01*
X184273337Y-125859053D01*
X184270285Y-125861578D01*
X184103316Y-125999707D01*
X184038078Y-126027717D01*
X183968053Y-126016010D01*
X183942684Y-125999707D01*
X183775715Y-125861578D01*
X183772663Y-125859053D01*
X183507007Y-125690463D01*
X183503428Y-125688779D01*
X183503421Y-125688775D01*
X183225905Y-125558186D01*
X183225901Y-125558184D01*
X183222315Y-125556497D01*
X182923079Y-125459269D01*
X182614015Y-125400312D01*
X182520511Y-125394429D01*
X182380578Y-125385625D01*
X182380562Y-125385624D01*
X182378583Y-125385500D01*
X182221417Y-125385500D01*
X182219438Y-125385624D01*
X182219422Y-125385625D01*
X182079489Y-125394429D01*
X181985985Y-125400312D01*
X181676921Y-125459269D01*
X181377685Y-125556497D01*
X181374099Y-125558184D01*
X181374095Y-125558186D01*
X181096579Y-125688775D01*
X181096572Y-125688779D01*
X181092993Y-125690463D01*
X180827337Y-125859053D01*
X180584906Y-126059610D01*
X180430065Y-126224499D01*
X180368853Y-126260463D01*
X180293063Y-126255877D01*
X180290952Y-126255067D01*
X180287493Y-126253494D01*
X179971288Y-126153491D01*
X179826802Y-126126321D01*
X179649083Y-126092901D01*
X179649078Y-126092900D01*
X179645359Y-126092201D01*
X179314428Y-126070511D01*
X179310648Y-126070719D01*
X179310647Y-126070719D01*
X179212888Y-126076099D01*
X178983288Y-126088735D01*
X178979561Y-126089396D01*
X178979557Y-126089396D01*
X178714350Y-126136397D01*
X178656735Y-126146608D01*
X178653110Y-126147713D01*
X178653105Y-126147714D01*
X178404529Y-126223475D01*
X178339500Y-126243294D01*
X178036179Y-126377391D01*
X177918937Y-126447143D01*
X177864230Y-126479690D01*
X177795460Y-126497330D01*
X177734254Y-126479010D01*
X177592625Y-126392729D01*
X177592626Y-126392729D01*
X177589393Y-126390760D01*
X177468909Y-126335979D01*
X177290945Y-126255063D01*
X177290937Y-126255060D01*
X177287493Y-126253494D01*
X176971288Y-126153491D01*
X176826802Y-126126321D01*
X176649083Y-126092901D01*
X176649078Y-126092900D01*
X176645359Y-126092201D01*
X176314428Y-126070511D01*
X176310648Y-126070719D01*
X176310647Y-126070719D01*
X176212888Y-126076099D01*
X175983288Y-126088735D01*
X175979561Y-126089396D01*
X175979557Y-126089396D01*
X175714350Y-126136397D01*
X175656735Y-126146608D01*
X175653110Y-126147713D01*
X175653105Y-126147714D01*
X175404529Y-126223475D01*
X175339500Y-126243294D01*
X175313819Y-126254647D01*
X175243430Y-126263897D01*
X175179212Y-126233622D01*
X175171025Y-126225659D01*
X175017809Y-126062501D01*
X175017808Y-126062500D01*
X175015094Y-126059610D01*
X174772663Y-125859053D01*
X174507007Y-125690463D01*
X174503428Y-125688779D01*
X174503421Y-125688775D01*
X174225905Y-125558186D01*
X174225901Y-125558184D01*
X174222315Y-125556497D01*
X173923079Y-125459269D01*
X173614015Y-125400312D01*
X173520511Y-125394429D01*
X173380578Y-125385625D01*
X173380562Y-125385624D01*
X173378583Y-125385500D01*
X173221417Y-125385500D01*
X173219438Y-125385624D01*
X173219422Y-125385625D01*
X173079489Y-125394429D01*
X172985985Y-125400312D01*
X172676921Y-125459269D01*
X172377685Y-125556497D01*
X172374099Y-125558184D01*
X172374095Y-125558186D01*
X172096579Y-125688775D01*
X172096572Y-125688779D01*
X172092993Y-125690463D01*
X171827337Y-125859053D01*
X171584906Y-126059610D01*
X171369522Y-126288970D01*
X171367195Y-126292172D01*
X171367194Y-126292174D01*
X171202777Y-126518476D01*
X171184584Y-126543516D01*
X171033006Y-126819234D01*
X170917181Y-127111775D01*
X170916197Y-127115609D01*
X170916194Y-127115617D01*
X170867807Y-127304074D01*
X170838934Y-127416527D01*
X170838438Y-127420455D01*
X170838437Y-127420459D01*
X170822783Y-127544375D01*
X170799500Y-127728682D01*
X170799500Y-128043318D01*
X170799997Y-128047249D01*
X170833710Y-128314117D01*
X170838934Y-128355473D01*
X170839920Y-128359312D01*
X170916194Y-128656383D01*
X170916197Y-128656391D01*
X170917181Y-128660225D01*
X171033006Y-128952766D01*
X171184584Y-129228484D01*
X171369522Y-129483030D01*
X171584906Y-129712390D01*
X171827337Y-129912947D01*
X172092993Y-130081537D01*
X172096572Y-130083221D01*
X172096579Y-130083225D01*
X172374095Y-130213814D01*
X172374099Y-130213816D01*
X172377685Y-130215503D01*
X172676921Y-130312731D01*
X172985985Y-130371688D01*
X173079489Y-130377571D01*
X173219422Y-130386375D01*
X173219438Y-130386376D01*
X173221417Y-130386500D01*
X173378583Y-130386500D01*
X173380562Y-130386376D01*
X173380578Y-130386375D01*
X173520511Y-130377571D01*
X173614015Y-130371688D01*
X173891542Y-130318747D01*
X173962203Y-130325630D01*
X174015314Y-130366073D01*
X174211780Y-130623505D01*
X174211785Y-130623510D01*
X174214080Y-130626518D01*
X174445496Y-130864073D01*
X174703775Y-131072107D01*
X174707000Y-131074118D01*
X174707001Y-131074119D01*
X174978830Y-131243646D01*
X174985176Y-131247604D01*
X175285623Y-131388024D01*
X175289232Y-131389207D01*
X175536035Y-131470113D01*
X175600763Y-131491332D01*
X175926032Y-131556032D01*
X175929804Y-131556319D01*
X175929812Y-131556320D01*
X176252941Y-131580900D01*
X176252946Y-131580900D01*
X176256718Y-131581187D01*
X176588031Y-131566432D01*
X176915172Y-131511981D01*
X176918806Y-131510915D01*
X176918810Y-131510914D01*
X177083451Y-131462613D01*
X177233401Y-131418622D01*
X177538111Y-131287709D01*
X177737289Y-131172017D01*
X177806239Y-131155098D01*
X177867251Y-131174059D01*
X177985176Y-131247604D01*
X178285623Y-131388024D01*
X178289232Y-131389207D01*
X178536035Y-131470113D01*
X178600763Y-131491332D01*
X178926032Y-131556032D01*
X178929804Y-131556319D01*
X178929812Y-131556320D01*
X179252941Y-131580900D01*
X179252946Y-131580900D01*
X179256718Y-131581187D01*
X179588031Y-131566432D01*
X179915172Y-131511981D01*
X179918806Y-131510915D01*
X179918810Y-131510914D01*
X180083451Y-131462613D01*
X180233401Y-131418622D01*
X180538111Y-131287709D01*
X180824885Y-131121137D01*
X180827911Y-131118853D01*
X180827918Y-131118848D01*
X181086545Y-130923604D01*
X181089572Y-130921319D01*
X181328335Y-130691150D01*
X181537718Y-130433964D01*
X181575126Y-130374676D01*
X181628391Y-130327739D01*
X181705297Y-130318144D01*
X181985985Y-130371688D01*
X182079489Y-130377571D01*
X182219422Y-130386375D01*
X182219438Y-130386376D01*
X182221417Y-130386500D01*
X182378583Y-130386500D01*
X182380562Y-130386376D01*
X182380578Y-130386375D01*
X182520511Y-130377571D01*
X182614015Y-130371688D01*
X182923079Y-130312731D01*
X183222315Y-130215503D01*
X183225901Y-130213816D01*
X183225905Y-130213814D01*
X183503421Y-130083225D01*
X183503428Y-130083221D01*
X183507007Y-130081537D01*
X183772663Y-129912947D01*
X183942684Y-129772293D01*
X184007922Y-129744283D01*
X184077947Y-129755990D01*
X184103316Y-129772293D01*
X184273337Y-129912947D01*
X184538993Y-130081537D01*
X184542572Y-130083221D01*
X184542579Y-130083225D01*
X184820095Y-130213814D01*
X184820099Y-130213816D01*
X184823685Y-130215503D01*
X185122921Y-130312731D01*
X185431985Y-130371688D01*
X185525489Y-130377571D01*
X185665422Y-130386375D01*
X185665438Y-130386376D01*
X185667417Y-130386500D01*
X185824583Y-130386500D01*
X185826562Y-130386376D01*
X185826578Y-130386375D01*
X185966511Y-130377571D01*
X186060015Y-130371688D01*
X186106178Y-130362882D01*
X186178731Y-130349042D01*
X186249393Y-130355925D01*
X186305117Y-130399919D01*
X186328209Y-130467055D01*
X186316767Y-130525561D01*
X186178700Y-130825051D01*
X186177541Y-130828651D01*
X186177538Y-130828658D01*
X186078205Y-131137119D01*
X186077043Y-131140728D01*
X186076324Y-131144444D01*
X186076322Y-131144452D01*
X186014766Y-131462613D01*
X186014765Y-131462622D01*
X186014047Y-131466332D01*
X186013780Y-131470108D01*
X186013779Y-131470113D01*
X185990892Y-131793356D01*
X185990624Y-131797145D01*
X186007114Y-132128376D01*
X186007755Y-132132107D01*
X186007756Y-132132115D01*
X186055552Y-132410268D01*
X186063277Y-132455227D01*
X186158300Y-132772964D01*
X186290807Y-133076983D01*
X186292730Y-133080254D01*
X186292732Y-133080258D01*
X186456956Y-133359612D01*
X186456961Y-133359620D01*
X186458879Y-133362882D01*
X186461180Y-133365897D01*
X186657780Y-133623505D01*
X186657785Y-133623510D01*
X186660080Y-133626518D01*
X186891496Y-133864073D01*
X187149775Y-134072107D01*
X187153000Y-134074118D01*
X187153001Y-134074119D01*
X187422128Y-134241961D01*
X187431176Y-134247604D01*
X187731623Y-134388024D01*
X188046763Y-134491332D01*
X188372032Y-134556032D01*
X188375804Y-134556319D01*
X188375812Y-134556320D01*
X188698941Y-134580900D01*
X188698946Y-134580900D01*
X188702718Y-134581187D01*
X189034031Y-134566432D01*
X189361172Y-134511981D01*
X189364806Y-134510915D01*
X189364810Y-134510914D01*
X189506786Y-134469262D01*
X189679401Y-134418622D01*
X189689380Y-134414335D01*
X189980615Y-134289211D01*
X189984111Y-134287709D01*
X189995365Y-134281172D01*
X190064317Y-134264255D01*
X190121262Y-134280785D01*
X190121583Y-134280969D01*
X190125057Y-134283277D01*
X190128812Y-134285108D01*
X190128813Y-134285109D01*
X190211646Y-134325509D01*
X190393767Y-134414335D01*
X190397738Y-134415656D01*
X190397743Y-134415658D01*
X190536407Y-134461785D01*
X190677449Y-134508704D01*
X190681556Y-134509487D01*
X190681558Y-134509488D01*
X190697888Y-134512603D01*
X190971120Y-134564725D01*
X191163645Y-134576500D01*
X191746000Y-134576500D01*
X192328354Y-134576499D01*
X192330266Y-134576382D01*
X192330268Y-134576382D01*
X192516874Y-134564970D01*
X192520880Y-134564725D01*
X192524818Y-134563974D01*
X192524824Y-134563973D01*
X192810442Y-134509488D01*
X192810444Y-134509487D01*
X192814551Y-134508704D01*
X192955593Y-134461785D01*
X193094257Y-134415658D01*
X193094262Y-134415656D01*
X193098233Y-134414335D01*
X193366943Y-134283277D01*
X193615958Y-134117831D01*
X193840905Y-133920905D01*
X194037831Y-133695958D01*
X194203277Y-133446943D01*
X194334335Y-133178233D01*
X194428704Y-132894551D01*
X194484725Y-132600880D01*
X194496500Y-132408355D01*
X194496499Y-131243646D01*
X194489124Y-131123043D01*
X194484970Y-131055126D01*
X194484725Y-131051120D01*
X194449499Y-130866457D01*
X194429488Y-130761558D01*
X194429487Y-130761556D01*
X194428704Y-130757449D01*
X194385149Y-130626518D01*
X194356529Y-130540483D01*
X194354006Y-130469531D01*
X194390243Y-130408479D01*
X194453735Y-130376709D01*
X194483996Y-130374960D01*
X194565144Y-130380066D01*
X194665422Y-130386375D01*
X194665438Y-130386376D01*
X194667417Y-130386500D01*
X194824583Y-130386500D01*
X194826562Y-130386376D01*
X194826578Y-130386375D01*
X194966511Y-130377571D01*
X195060015Y-130371688D01*
X195369079Y-130312731D01*
X195668315Y-130215503D01*
X195671901Y-130213816D01*
X195671905Y-130213814D01*
X195949421Y-130083225D01*
X195949428Y-130083221D01*
X195953007Y-130081537D01*
X196218663Y-129912947D01*
X196388684Y-129772293D01*
X196453922Y-129744283D01*
X196523947Y-129755990D01*
X196549316Y-129772293D01*
X196719337Y-129912947D01*
X196984993Y-130081537D01*
X196988572Y-130083221D01*
X196988579Y-130083225D01*
X197266095Y-130213814D01*
X197266099Y-130213816D01*
X197269685Y-130215503D01*
X197568921Y-130312731D01*
X197877985Y-130371688D01*
X197971489Y-130377571D01*
X198111422Y-130386375D01*
X198111438Y-130386376D01*
X198113417Y-130386500D01*
X198270583Y-130386500D01*
X198272562Y-130386376D01*
X198272578Y-130386375D01*
X198412511Y-130377571D01*
X198506015Y-130371688D01*
X198552178Y-130362882D01*
X198624731Y-130349042D01*
X198695393Y-130355925D01*
X198751117Y-130399919D01*
X198774209Y-130467055D01*
X198762767Y-130525561D01*
X198624700Y-130825051D01*
X198623541Y-130828651D01*
X198623538Y-130828658D01*
X198524205Y-131137119D01*
X198523043Y-131140728D01*
X198522324Y-131144444D01*
X198522322Y-131144452D01*
X198460766Y-131462613D01*
X198460765Y-131462622D01*
X198460047Y-131466332D01*
X198459780Y-131470108D01*
X198459779Y-131470113D01*
X198436892Y-131793356D01*
X198436624Y-131797145D01*
X198453114Y-132128376D01*
X198453755Y-132132107D01*
X198453756Y-132132115D01*
X198501552Y-132410268D01*
X198509277Y-132455227D01*
X198604300Y-132772964D01*
X198736807Y-133076983D01*
X198738730Y-133080254D01*
X198738732Y-133080258D01*
X198902956Y-133359612D01*
X198902961Y-133359620D01*
X198904879Y-133362882D01*
X198907180Y-133365897D01*
X199103780Y-133623505D01*
X199103785Y-133623510D01*
X199106080Y-133626518D01*
X199337496Y-133864073D01*
X199595775Y-134072107D01*
X199599000Y-134074118D01*
X199599001Y-134074119D01*
X199868128Y-134241961D01*
X199877176Y-134247604D01*
X200177623Y-134388024D01*
X200492763Y-134491332D01*
X200818032Y-134556032D01*
X200821804Y-134556319D01*
X200821812Y-134556320D01*
X201144941Y-134580900D01*
X201144946Y-134580900D01*
X201148718Y-134581187D01*
X201480031Y-134566432D01*
X201807172Y-134511981D01*
X201810806Y-134510915D01*
X201810810Y-134510914D01*
X201952786Y-134469262D01*
X202125401Y-134418622D01*
X202135380Y-134414335D01*
X202426615Y-134289211D01*
X202430111Y-134287709D01*
X202441365Y-134281172D01*
X202510317Y-134264255D01*
X202567262Y-134280785D01*
X202567583Y-134280969D01*
X202571057Y-134283277D01*
X202574812Y-134285108D01*
X202574813Y-134285109D01*
X202657646Y-134325509D01*
X202839767Y-134414335D01*
X202843738Y-134415656D01*
X202843743Y-134415658D01*
X202982407Y-134461785D01*
X203123449Y-134508704D01*
X203127556Y-134509487D01*
X203127558Y-134509488D01*
X203143888Y-134512603D01*
X203417120Y-134564725D01*
X203609645Y-134576500D01*
X204192000Y-134576500D01*
X204774354Y-134576499D01*
X204776266Y-134576382D01*
X204776268Y-134576382D01*
X204962874Y-134564970D01*
X204966880Y-134564725D01*
X204970818Y-134563974D01*
X204970824Y-134563973D01*
X205256442Y-134509488D01*
X205256444Y-134509487D01*
X205260551Y-134508704D01*
X205401593Y-134461785D01*
X205540257Y-134415658D01*
X205540262Y-134415656D01*
X205544233Y-134414335D01*
X205812943Y-134283277D01*
X206061958Y-134117831D01*
X206286905Y-133920905D01*
X206483831Y-133695958D01*
X206649277Y-133446943D01*
X206780335Y-133178233D01*
X206874704Y-132894551D01*
X206930725Y-132600880D01*
X206942500Y-132408355D01*
X206942499Y-131243646D01*
X206935124Y-131123043D01*
X206930970Y-131055126D01*
X206930725Y-131051120D01*
X206895499Y-130866457D01*
X206875488Y-130761558D01*
X206875487Y-130761556D01*
X206874704Y-130757449D01*
X206831149Y-130626518D01*
X206802529Y-130540483D01*
X206800006Y-130469531D01*
X206836243Y-130408479D01*
X206899735Y-130376709D01*
X206929996Y-130374960D01*
X207011144Y-130380066D01*
X207111422Y-130386375D01*
X207111438Y-130386376D01*
X207113417Y-130386500D01*
X207270583Y-130386500D01*
X207272562Y-130386376D01*
X207272578Y-130386375D01*
X207412511Y-130377571D01*
X207506015Y-130371688D01*
X207815079Y-130312731D01*
X208114315Y-130215503D01*
X208117901Y-130213816D01*
X208117905Y-130213814D01*
X208125207Y-130210378D01*
X208132351Y-130207016D01*
X208202503Y-130196108D01*
X208267417Y-130224861D01*
X208306482Y-130284144D01*
X208312000Y-130321023D01*
X208312000Y-139606000D01*
X208291998Y-139674121D01*
X208238342Y-139720614D01*
X208186000Y-139732000D01*
X161149767Y-139732000D01*
X161081646Y-139711998D01*
X161035153Y-139658342D01*
X161025049Y-139588068D01*
X161054543Y-139523488D01*
X161064637Y-139513108D01*
X161144201Y-139440201D01*
X161453948Y-139102172D01*
X161733055Y-138738432D01*
X161979398Y-138351751D01*
X162191102Y-137945071D01*
X162366556Y-137521488D01*
X162504425Y-137084224D01*
X162603659Y-136636608D01*
X162663503Y-136182047D01*
X162678500Y-135838563D01*
X162678499Y-129109438D01*
X162663503Y-128765953D01*
X162609968Y-128359312D01*
X162604018Y-128314117D01*
X162604017Y-128314111D01*
X162603659Y-128311392D01*
X162504425Y-127863776D01*
X162503596Y-127861146D01*
X162367385Y-127429140D01*
X162367382Y-127429132D01*
X162366556Y-127426512D01*
X162191102Y-127002929D01*
X161979398Y-126596249D01*
X161733055Y-126209568D01*
X161550581Y-125971762D01*
X161455612Y-125847996D01*
X161455607Y-125847990D01*
X161453948Y-125845828D01*
X161144201Y-125507799D01*
X160806172Y-125198052D01*
X160804010Y-125196393D01*
X160804004Y-125196388D01*
X160680238Y-125101419D01*
X160442432Y-124918945D01*
X160055751Y-124672602D01*
X159649071Y-124460898D01*
X159225488Y-124285444D01*
X159222868Y-124284618D01*
X159222860Y-124284615D01*
X158790854Y-124148404D01*
X158790849Y-124148403D01*
X158788224Y-124147575D01*
X158340608Y-124048341D01*
X158337889Y-124047983D01*
X158337883Y-124047982D01*
X158167372Y-124025534D01*
X157886047Y-123988497D01*
X157883298Y-123988377D01*
X157883287Y-123988376D01*
X157543939Y-123973560D01*
X157543935Y-123973560D01*
X157542563Y-123973500D01*
X157541187Y-123973500D01*
X154178001Y-123973501D01*
X150813438Y-123973501D01*
X150812066Y-123973561D01*
X150812061Y-123973561D01*
X150747146Y-123976395D01*
X150469953Y-123988497D01*
X150188628Y-124025534D01*
X150018117Y-124047982D01*
X150018111Y-124047983D01*
X150015392Y-124048341D01*
X149567776Y-124147575D01*
X149565151Y-124148403D01*
X149565146Y-124148404D01*
X149133140Y-124284615D01*
X149133132Y-124284618D01*
X149130512Y-124285444D01*
X148706929Y-124460898D01*
X148300249Y-124672602D01*
X147913568Y-124918945D01*
X147675762Y-125101419D01*
X147551996Y-125196388D01*
X147551990Y-125196393D01*
X147549828Y-125198052D01*
X147211799Y-125507799D01*
X146902052Y-125845828D01*
X146900393Y-125847990D01*
X146900388Y-125847996D01*
X146805419Y-125971762D01*
X146622945Y-126209568D01*
X146376602Y-126596249D01*
X146164898Y-127002929D01*
X145989444Y-127426512D01*
X145988618Y-127429132D01*
X145988615Y-127429140D01*
X145852404Y-127861146D01*
X145851575Y-127863776D01*
X145752341Y-128311392D01*
X145751983Y-128314111D01*
X145751982Y-128314117D01*
X145746032Y-128359312D01*
X145692497Y-128765953D01*
X145677500Y-129109437D01*
X145677501Y-135838562D01*
X145692497Y-136182047D01*
X145752341Y-136636608D01*
X145851575Y-137084224D01*
X145989444Y-137521488D01*
X146164898Y-137945071D01*
X146376602Y-138351751D01*
X146622945Y-138738432D01*
X146902052Y-139102172D01*
X147211799Y-139440201D01*
X147291359Y-139513104D01*
X147328068Y-139573872D01*
X147326097Y-139644841D01*
X147286070Y-139703479D01*
X147220695Y-139731167D01*
X147206233Y-139732000D01*
X102488000Y-139732000D01*
X102419879Y-139711998D01*
X102373386Y-139658342D01*
X102362000Y-139606000D01*
X102362000Y-117583637D01*
X104206746Y-117583637D01*
X104224559Y-117935269D01*
X104225096Y-117938624D01*
X104225097Y-117938630D01*
X104229986Y-117969152D01*
X104280243Y-118282920D01*
X104373149Y-118622524D01*
X104502187Y-118950108D01*
X104665850Y-119261840D01*
X104667751Y-119264669D01*
X104667757Y-119264679D01*
X104848851Y-119534173D01*
X104862223Y-119554073D01*
X105089007Y-119823388D01*
X105091467Y-119825739D01*
X105091470Y-119825742D01*
X105341089Y-120064283D01*
X105341096Y-120064289D01*
X105343552Y-120066636D01*
X105622878Y-120280971D01*
X105625796Y-120282745D01*
X105920803Y-120462112D01*
X105920808Y-120462115D01*
X105923718Y-120463884D01*
X106242553Y-120613237D01*
X106245771Y-120614339D01*
X106245774Y-120614340D01*
X106572430Y-120726180D01*
X106572438Y-120726182D01*
X106575653Y-120727283D01*
X106919122Y-120804687D01*
X106967474Y-120810196D01*
X107265559Y-120844159D01*
X107265567Y-120844159D01*
X107268942Y-120844544D01*
X107272346Y-120844562D01*
X107272349Y-120844562D01*
X107464330Y-120845567D01*
X107621019Y-120846388D01*
X107624405Y-120846038D01*
X107624407Y-120846038D01*
X107967845Y-120810547D01*
X107967853Y-120810546D01*
X107971237Y-120810196D01*
X107974570Y-120809481D01*
X107974573Y-120809481D01*
X108144021Y-120773155D01*
X108315498Y-120736393D01*
X108649774Y-120625842D01*
X108970156Y-120479835D01*
X109063584Y-120424362D01*
X109269950Y-120301831D01*
X109269955Y-120301828D01*
X109272895Y-120300082D01*
X109298349Y-120280971D01*
X109551718Y-120090737D01*
X109551727Y-120090730D01*
X109554450Y-120088685D01*
X109811527Y-119848116D01*
X110041120Y-119581190D01*
X110145855Y-119428799D01*
X110238612Y-119293838D01*
X110238617Y-119293831D01*
X110240542Y-119291029D01*
X110242154Y-119288035D01*
X110242159Y-119288027D01*
X110405838Y-118984040D01*
X110407460Y-118981028D01*
X110539922Y-118654814D01*
X110550058Y-118619233D01*
X110635444Y-118319479D01*
X110636378Y-118316201D01*
X110695701Y-117969152D01*
X110697774Y-117935269D01*
X110717085Y-117619522D01*
X110717195Y-117617726D01*
X110717274Y-117595000D01*
X110716659Y-117583637D01*
X124506746Y-117583637D01*
X124524559Y-117935269D01*
X124525096Y-117938624D01*
X124525097Y-117938630D01*
X124529986Y-117969152D01*
X124580243Y-118282920D01*
X124673149Y-118622524D01*
X124802187Y-118950108D01*
X124965850Y-119261840D01*
X124967751Y-119264669D01*
X124967757Y-119264679D01*
X125148851Y-119534173D01*
X125162223Y-119554073D01*
X125389007Y-119823388D01*
X125391467Y-119825739D01*
X125391470Y-119825742D01*
X125641089Y-120064283D01*
X125641096Y-120064289D01*
X125643552Y-120066636D01*
X125922878Y-120280971D01*
X125925796Y-120282745D01*
X126220803Y-120462112D01*
X126220808Y-120462115D01*
X126223718Y-120463884D01*
X126542553Y-120613237D01*
X126545771Y-120614339D01*
X126545774Y-120614340D01*
X126872430Y-120726180D01*
X126872438Y-120726182D01*
X126875653Y-120727283D01*
X127219122Y-120804687D01*
X127267474Y-120810196D01*
X127565559Y-120844159D01*
X127565567Y-120844159D01*
X127568942Y-120844544D01*
X127572346Y-120844562D01*
X127572349Y-120844562D01*
X127764330Y-120845567D01*
X127921019Y-120846388D01*
X127924405Y-120846038D01*
X127924407Y-120846038D01*
X128267845Y-120810547D01*
X128267853Y-120810546D01*
X128271237Y-120810196D01*
X128274570Y-120809481D01*
X128274573Y-120809481D01*
X128444021Y-120773155D01*
X128615498Y-120736393D01*
X128949774Y-120625842D01*
X129270156Y-120479835D01*
X129363584Y-120424362D01*
X129569950Y-120301831D01*
X129569955Y-120301828D01*
X129572895Y-120300082D01*
X129598349Y-120280971D01*
X129851718Y-120090737D01*
X129851727Y-120090730D01*
X129854450Y-120088685D01*
X130111527Y-119848116D01*
X130341120Y-119581190D01*
X130445855Y-119428799D01*
X130538612Y-119293838D01*
X130538617Y-119293831D01*
X130540542Y-119291029D01*
X130542154Y-119288035D01*
X130542159Y-119288027D01*
X130705838Y-118984040D01*
X130707460Y-118981028D01*
X130839922Y-118654814D01*
X130850058Y-118619233D01*
X130935444Y-118319479D01*
X130936378Y-118316201D01*
X130995701Y-117969152D01*
X130997774Y-117935269D01*
X131017085Y-117619522D01*
X131017195Y-117617726D01*
X131017274Y-117595000D01*
X130998234Y-117243433D01*
X130941336Y-116895978D01*
X130847246Y-116556700D01*
X130845988Y-116553538D01*
X130845985Y-116553530D01*
X130718324Y-116232734D01*
X130718320Y-116232726D01*
X130717064Y-116229569D01*
X130552314Y-115918410D01*
X130354923Y-115626864D01*
X130347258Y-115617825D01*
X130260951Y-115516056D01*
X130127200Y-115358342D01*
X129871808Y-115115984D01*
X129869101Y-115113922D01*
X129869093Y-115113915D01*
X129711051Y-114993521D01*
X129591735Y-114902626D01*
X129561913Y-114884636D01*
X129293174Y-114722522D01*
X129293168Y-114722519D01*
X129290259Y-114720764D01*
X128970904Y-114572524D01*
X128804156Y-114516083D01*
X128640635Y-114460734D01*
X128640630Y-114460733D01*
X128637408Y-114459642D01*
X128413265Y-114409950D01*
X128297001Y-114384175D01*
X128296997Y-114384174D01*
X128293671Y-114383437D01*
X128150813Y-114367666D01*
X127947096Y-114345175D01*
X127947089Y-114345175D01*
X127943714Y-114344802D01*
X127940315Y-114344796D01*
X127940314Y-114344796D01*
X127774777Y-114344507D01*
X127591632Y-114344187D01*
X127461131Y-114358134D01*
X127244927Y-114381239D01*
X127244921Y-114381240D01*
X127241543Y-114381601D01*
X127238220Y-114382325D01*
X127238217Y-114382326D01*
X126900862Y-114455881D01*
X126900860Y-114455882D01*
X126897542Y-114456605D01*
X126563654Y-114568323D01*
X126243784Y-114715447D01*
X126240850Y-114717203D01*
X126240848Y-114717204D01*
X126152052Y-114770348D01*
X125941674Y-114896256D01*
X125660858Y-115108635D01*
X125404622Y-115350099D01*
X125175963Y-115617825D01*
X125174035Y-115620652D01*
X125174033Y-115620654D01*
X125167871Y-115629688D01*
X124977555Y-115908680D01*
X124975948Y-115911690D01*
X124975946Y-115911693D01*
X124970751Y-115921422D01*
X124811720Y-116219262D01*
X124680397Y-116545937D01*
X124679475Y-116549217D01*
X124679474Y-116549220D01*
X124677372Y-116556700D01*
X124585124Y-116884884D01*
X124527013Y-117232138D01*
X124506746Y-117583637D01*
X110716659Y-117583637D01*
X110698234Y-117243433D01*
X110641336Y-116895978D01*
X110547246Y-116556700D01*
X110545988Y-116553538D01*
X110545985Y-116553530D01*
X110418324Y-116232734D01*
X110418320Y-116232726D01*
X110417064Y-116229569D01*
X110252314Y-115918410D01*
X110054923Y-115626864D01*
X110047258Y-115617825D01*
X109960951Y-115516056D01*
X109827200Y-115358342D01*
X109571808Y-115115984D01*
X109569101Y-115113922D01*
X109569093Y-115113915D01*
X109411051Y-114993521D01*
X109291735Y-114902626D01*
X109261913Y-114884636D01*
X108993174Y-114722522D01*
X108993168Y-114722519D01*
X108990259Y-114720764D01*
X108670904Y-114572524D01*
X108504156Y-114516083D01*
X108340635Y-114460734D01*
X108340630Y-114460733D01*
X108337408Y-114459642D01*
X108113265Y-114409950D01*
X107997001Y-114384175D01*
X107996997Y-114384174D01*
X107993671Y-114383437D01*
X107850813Y-114367666D01*
X107647096Y-114345175D01*
X107647089Y-114345175D01*
X107643714Y-114344802D01*
X107640315Y-114344796D01*
X107640314Y-114344796D01*
X107474777Y-114344507D01*
X107291632Y-114344187D01*
X107161131Y-114358134D01*
X106944927Y-114381239D01*
X106944921Y-114381240D01*
X106941543Y-114381601D01*
X106938220Y-114382325D01*
X106938217Y-114382326D01*
X106600862Y-114455881D01*
X106600860Y-114455882D01*
X106597542Y-114456605D01*
X106263654Y-114568323D01*
X105943784Y-114715447D01*
X105940850Y-114717203D01*
X105940848Y-114717204D01*
X105852052Y-114770348D01*
X105641674Y-114896256D01*
X105360858Y-115108635D01*
X105104622Y-115350099D01*
X104875963Y-115617825D01*
X104874035Y-115620652D01*
X104874033Y-115620654D01*
X104867871Y-115629688D01*
X104677555Y-115908680D01*
X104675948Y-115911690D01*
X104675946Y-115911693D01*
X104670751Y-115921422D01*
X104511720Y-116219262D01*
X104380397Y-116545937D01*
X104379475Y-116549217D01*
X104379474Y-116549220D01*
X104377372Y-116556700D01*
X104285124Y-116884884D01*
X104227013Y-117232138D01*
X104206746Y-117583637D01*
X102362000Y-117583637D01*
X102362000Y-83109437D01*
X145677500Y-83109437D01*
X145677501Y-89838562D01*
X145692497Y-90182047D01*
X145752341Y-90636608D01*
X145851575Y-91084224D01*
X145989444Y-91521488D01*
X146164898Y-91945071D01*
X146376602Y-92351751D01*
X146622945Y-92738432D01*
X146902052Y-93102172D01*
X147211799Y-93440201D01*
X147549828Y-93749948D01*
X147551990Y-93751607D01*
X147551996Y-93751612D01*
X147660894Y-93835172D01*
X147913568Y-94029055D01*
X148300249Y-94275398D01*
X148706929Y-94487102D01*
X149130512Y-94662556D01*
X149133132Y-94663382D01*
X149133140Y-94663385D01*
X149565146Y-94799596D01*
X149565151Y-94799597D01*
X149567776Y-94800425D01*
X150015392Y-94899659D01*
X150018111Y-94900017D01*
X150018117Y-94900018D01*
X150188628Y-94922466D01*
X150469953Y-94959503D01*
X150472702Y-94959623D01*
X150472713Y-94959624D01*
X150812061Y-94974440D01*
X150812065Y-94974440D01*
X150813437Y-94974500D01*
X154178000Y-94974500D01*
X157542562Y-94974499D01*
X157543934Y-94974439D01*
X157543939Y-94974439D01*
X157608854Y-94971605D01*
X157886047Y-94959503D01*
X158167372Y-94922466D01*
X158337883Y-94900018D01*
X158337889Y-94900017D01*
X158340608Y-94899659D01*
X158788224Y-94800425D01*
X158790849Y-94799597D01*
X158790854Y-94799596D01*
X159222860Y-94663385D01*
X159222868Y-94663382D01*
X159225488Y-94662556D01*
X159649071Y-94487102D01*
X160055751Y-94275398D01*
X160442432Y-94029055D01*
X160695106Y-93835172D01*
X160804004Y-93751612D01*
X160804010Y-93751607D01*
X160806172Y-93749948D01*
X161144201Y-93440201D01*
X161453948Y-93102172D01*
X161733055Y-92738432D01*
X161979398Y-92351751D01*
X162191102Y-91945071D01*
X162366556Y-91521488D01*
X162504425Y-91084224D01*
X162603659Y-90636608D01*
X162663503Y-90182047D01*
X162678500Y-89838563D01*
X162678499Y-83109438D01*
X162663503Y-82765953D01*
X162603659Y-82311392D01*
X162504425Y-81863776D01*
X162503596Y-81861146D01*
X162367385Y-81429140D01*
X162367382Y-81429132D01*
X162366556Y-81426512D01*
X162191102Y-81002929D01*
X161979398Y-80596249D01*
X161733055Y-80209568D01*
X161453948Y-79845828D01*
X161144201Y-79507799D01*
X160806172Y-79198052D01*
X160804010Y-79196393D01*
X160804004Y-79196388D01*
X160680238Y-79101419D01*
X160442432Y-78918945D01*
X160055751Y-78672602D01*
X159649071Y-78460898D01*
X159225488Y-78285444D01*
X159222868Y-78284618D01*
X159222860Y-78284615D01*
X158790854Y-78148404D01*
X158790849Y-78148403D01*
X158788224Y-78147575D01*
X158340608Y-78048341D01*
X158337889Y-78047983D01*
X158337883Y-78047982D01*
X158167372Y-78025534D01*
X157886047Y-77988497D01*
X157883298Y-77988377D01*
X157883287Y-77988376D01*
X157543939Y-77973560D01*
X157543935Y-77973560D01*
X157542563Y-77973500D01*
X157541187Y-77973500D01*
X154178001Y-77973501D01*
X150813438Y-77973501D01*
X150812066Y-77973561D01*
X150812061Y-77973561D01*
X150747146Y-77976395D01*
X150469953Y-77988497D01*
X150188628Y-78025534D01*
X150018117Y-78047982D01*
X150018111Y-78047983D01*
X150015392Y-78048341D01*
X149567776Y-78147575D01*
X149565151Y-78148403D01*
X149565146Y-78148404D01*
X149133140Y-78284615D01*
X149133132Y-78284618D01*
X149130512Y-78285444D01*
X148706929Y-78460898D01*
X148300249Y-78672602D01*
X147913568Y-78918945D01*
X147675762Y-79101419D01*
X147551996Y-79196388D01*
X147551990Y-79196393D01*
X147549828Y-79198052D01*
X147211799Y-79507799D01*
X146902052Y-79845828D01*
X146622945Y-80209568D01*
X146376602Y-80596249D01*
X146164898Y-81002929D01*
X145989444Y-81426512D01*
X145988618Y-81429132D01*
X145988615Y-81429140D01*
X145852404Y-81861146D01*
X145851575Y-81863776D01*
X145752341Y-82311392D01*
X145692497Y-82765953D01*
X145677500Y-83109437D01*
X102362000Y-83109437D01*
X102362000Y-69547359D01*
X147172985Y-69547359D01*
X147197170Y-70060197D01*
X147258849Y-70569886D01*
X147357691Y-71073689D01*
X147358304Y-71075928D01*
X147358304Y-71075930D01*
X147434827Y-71355648D01*
X147493166Y-71568900D01*
X147664545Y-72052859D01*
X147870908Y-72522968D01*
X148111147Y-72976699D01*
X148383971Y-73411618D01*
X148687915Y-73825388D01*
X149021346Y-74215786D01*
X149382474Y-74580716D01*
X149769360Y-74918218D01*
X149771195Y-74919596D01*
X149771199Y-74919599D01*
X150178068Y-75225085D01*
X150178077Y-75225091D01*
X150179924Y-75226478D01*
X150611962Y-75503841D01*
X150613992Y-75504943D01*
X151061130Y-75747720D01*
X151061139Y-75747724D01*
X151063153Y-75748818D01*
X151065246Y-75749763D01*
X151065248Y-75749764D01*
X151528963Y-75959140D01*
X151528977Y-75959146D01*
X151531075Y-75960093D01*
X152013213Y-76136530D01*
X152015440Y-76137164D01*
X152015445Y-76137166D01*
X152504755Y-76276550D01*
X152504761Y-76276551D01*
X152506978Y-76277183D01*
X152509239Y-76277651D01*
X152509238Y-76277651D01*
X153007466Y-76380830D01*
X153007476Y-76380832D01*
X153009718Y-76381296D01*
X153518734Y-76448309D01*
X153769249Y-76462754D01*
X154028993Y-76477731D01*
X154029005Y-76477731D01*
X154031290Y-76477863D01*
X154033590Y-76477827D01*
X154033596Y-76477827D01*
X154542302Y-76469835D01*
X154542312Y-76469834D01*
X154544634Y-76469798D01*
X154582376Y-76466430D01*
X155053706Y-76424365D01*
X155053718Y-76424363D01*
X155056009Y-76424159D01*
X155562669Y-76341191D01*
X156061891Y-76221338D01*
X156064089Y-76220636D01*
X156064098Y-76220634D01*
X156330123Y-76135734D01*
X156550994Y-76065245D01*
X157027352Y-75873750D01*
X157488407Y-75647882D01*
X157490382Y-75646728D01*
X157490393Y-75646722D01*
X157929698Y-75390012D01*
X157931680Y-75388854D01*
X158354793Y-75098057D01*
X158755472Y-74777052D01*
X159131565Y-74427565D01*
X159481052Y-74051472D01*
X159802057Y-73650793D01*
X160092854Y-73227680D01*
X160240718Y-72974642D01*
X160350722Y-72786393D01*
X160350728Y-72786382D01*
X160351882Y-72784407D01*
X160577750Y-72323352D01*
X160769245Y-71846994D01*
X160925338Y-71357891D01*
X161045191Y-70858669D01*
X161128159Y-70352009D01*
X161154410Y-70057878D01*
X161173621Y-69842615D01*
X161173798Y-69840634D01*
X161183399Y-69474000D01*
X161164586Y-68960937D01*
X161108247Y-68450630D01*
X161014686Y-67945820D01*
X160960121Y-67737831D01*
X160884989Y-67451442D01*
X160884987Y-67451435D01*
X160884405Y-67449217D01*
X160742343Y-67034288D01*
X160718849Y-66965668D01*
X160718846Y-66965661D01*
X160718103Y-66963490D01*
X160516675Y-66491246D01*
X160478369Y-66417028D01*
X160282262Y-66037080D01*
X160282258Y-66037074D01*
X160281200Y-66035023D01*
X160012946Y-65597271D01*
X159713351Y-65180342D01*
X159578981Y-65019637D01*
X177338746Y-65019637D01*
X177356559Y-65371269D01*
X177357096Y-65374624D01*
X177357097Y-65374630D01*
X177361986Y-65405152D01*
X177412243Y-65718920D01*
X177505149Y-66058524D01*
X177634187Y-66386108D01*
X177635770Y-66389123D01*
X177725446Y-66559930D01*
X177797850Y-66697840D01*
X177799751Y-66700669D01*
X177799757Y-66700679D01*
X177974936Y-66961371D01*
X177994223Y-66990073D01*
X178221007Y-67259388D01*
X178223467Y-67261739D01*
X178223470Y-67261742D01*
X178473089Y-67500283D01*
X178473096Y-67500289D01*
X178475552Y-67502636D01*
X178754878Y-67716971D01*
X178757796Y-67718745D01*
X179052803Y-67898112D01*
X179052808Y-67898115D01*
X179055718Y-67899884D01*
X179374553Y-68049237D01*
X179377771Y-68050339D01*
X179377774Y-68050340D01*
X179704430Y-68162180D01*
X179704438Y-68162182D01*
X179707653Y-68163283D01*
X180051122Y-68240687D01*
X180099474Y-68246196D01*
X180397559Y-68280159D01*
X180397567Y-68280159D01*
X180400942Y-68280544D01*
X180404346Y-68280562D01*
X180404349Y-68280562D01*
X180596330Y-68281567D01*
X180753019Y-68282388D01*
X180756405Y-68282038D01*
X180756407Y-68282038D01*
X181099845Y-68246547D01*
X181099853Y-68246546D01*
X181103237Y-68246196D01*
X181106570Y-68245481D01*
X181106573Y-68245481D01*
X181276021Y-68209154D01*
X181447498Y-68172393D01*
X181781774Y-68061842D01*
X182102156Y-67915835D01*
X182195584Y-67860362D01*
X182401950Y-67737831D01*
X182401955Y-67737828D01*
X182404895Y-67736082D01*
X182430349Y-67716971D01*
X182683718Y-67526737D01*
X182683727Y-67526730D01*
X182686450Y-67524685D01*
X182943527Y-67284116D01*
X183173120Y-67017190D01*
X183277855Y-66864799D01*
X183370612Y-66729838D01*
X183370617Y-66729831D01*
X183372542Y-66727029D01*
X183374154Y-66724035D01*
X183374159Y-66724027D01*
X183537838Y-66420040D01*
X183539460Y-66417028D01*
X183671922Y-66090814D01*
X183682058Y-66055233D01*
X183767444Y-65755479D01*
X183768378Y-65752201D01*
X183827701Y-65405152D01*
X183829774Y-65371269D01*
X183849085Y-65055522D01*
X183849195Y-65053726D01*
X183849274Y-65031000D01*
X183830234Y-64679433D01*
X183773336Y-64331978D01*
X183679246Y-63992700D01*
X183677988Y-63989538D01*
X183677985Y-63989530D01*
X183550324Y-63668734D01*
X183550320Y-63668726D01*
X183549064Y-63665569D01*
X183542015Y-63652256D01*
X183385909Y-63357422D01*
X183385907Y-63357419D01*
X183384314Y-63354410D01*
X183186923Y-63062864D01*
X183179258Y-63053825D01*
X182993948Y-62835316D01*
X182959200Y-62794342D01*
X182703808Y-62551984D01*
X182701101Y-62549922D01*
X182701093Y-62549915D01*
X182543051Y-62429521D01*
X182423735Y-62338626D01*
X182393913Y-62320636D01*
X182125174Y-62158522D01*
X182125168Y-62158519D01*
X182122259Y-62156764D01*
X181802904Y-62008524D01*
X181636156Y-61952083D01*
X181472635Y-61896734D01*
X181472630Y-61896733D01*
X181469408Y-61895642D01*
X181245265Y-61845950D01*
X181129001Y-61820175D01*
X181128997Y-61820174D01*
X181125671Y-61819437D01*
X180982813Y-61803666D01*
X180779096Y-61781175D01*
X180779089Y-61781175D01*
X180775714Y-61780802D01*
X180772315Y-61780796D01*
X180772314Y-61780796D01*
X180606777Y-61780507D01*
X180423632Y-61780187D01*
X180293131Y-61794134D01*
X180076927Y-61817239D01*
X180076921Y-61817240D01*
X180073543Y-61817601D01*
X180070220Y-61818325D01*
X180070217Y-61818326D01*
X179732862Y-61891881D01*
X179732860Y-61891882D01*
X179729542Y-61892605D01*
X179395654Y-62004323D01*
X179075784Y-62151447D01*
X179072850Y-62153203D01*
X179072848Y-62153204D01*
X178984052Y-62206348D01*
X178773674Y-62332256D01*
X178492858Y-62544635D01*
X178236622Y-62786099D01*
X178007963Y-63053825D01*
X178006035Y-63056652D01*
X178006033Y-63056654D01*
X177886984Y-63231174D01*
X177809555Y-63344680D01*
X177807948Y-63347690D01*
X177807946Y-63347693D01*
X177645325Y-63652256D01*
X177643720Y-63655262D01*
X177512397Y-63981937D01*
X177511475Y-63985217D01*
X177511474Y-63985220D01*
X177472223Y-64124863D01*
X177417124Y-64320884D01*
X177359013Y-64668138D01*
X177338746Y-65019637D01*
X159578981Y-65019637D01*
X159384026Y-64786473D01*
X159026739Y-64417782D01*
X158926733Y-64328679D01*
X158645130Y-64077780D01*
X158645124Y-64077775D01*
X158643409Y-64076247D01*
X158236096Y-63763705D01*
X158091517Y-63668734D01*
X157808914Y-63483098D01*
X157808905Y-63483093D01*
X157806986Y-63481832D01*
X157358385Y-63232144D01*
X156993702Y-63062864D01*
X156894787Y-63016949D01*
X156894780Y-63016946D01*
X156892701Y-63015981D01*
X156890559Y-63015171D01*
X156890548Y-63015167D01*
X156414586Y-62835316D01*
X156414585Y-62835316D01*
X156412437Y-62834504D01*
X156410236Y-62833852D01*
X156410230Y-62833850D01*
X155922398Y-62689347D01*
X155922389Y-62689345D01*
X155920172Y-62688688D01*
X155418549Y-62579317D01*
X154910264Y-62506977D01*
X154398045Y-62472058D01*
X154395728Y-62472070D01*
X154395724Y-62472070D01*
X154112025Y-62473556D01*
X153884644Y-62474746D01*
X153765696Y-62484107D01*
X153375116Y-62514846D01*
X153375110Y-62514847D01*
X153372819Y-62515027D01*
X153164007Y-62546980D01*
X152867612Y-62592335D01*
X152867609Y-62592336D01*
X152865319Y-62592686D01*
X152863065Y-62593202D01*
X152863061Y-62593203D01*
X152367121Y-62706788D01*
X152367115Y-62706790D01*
X152364869Y-62707304D01*
X152362661Y-62707983D01*
X152362662Y-62707983D01*
X151876361Y-62857589D01*
X151876354Y-62857591D01*
X151874158Y-62858267D01*
X151395821Y-63044763D01*
X150932426Y-63265790D01*
X150930410Y-63266940D01*
X150930406Y-63266942D01*
X150788835Y-63347693D01*
X150486464Y-63520163D01*
X150484561Y-63521442D01*
X150484559Y-63521443D01*
X150121955Y-63765103D01*
X150060330Y-63806513D01*
X150058530Y-63807924D01*
X150058525Y-63807928D01*
X149658134Y-64121874D01*
X149658124Y-64121882D01*
X149656311Y-64123304D01*
X149276579Y-64468834D01*
X149274997Y-64470501D01*
X149274992Y-64470506D01*
X148924770Y-64839564D01*
X148923173Y-64841247D01*
X148597990Y-65238542D01*
X148302778Y-65658586D01*
X148301587Y-65660576D01*
X148046057Y-66087536D01*
X148039122Y-66099123D01*
X148038089Y-66101177D01*
X147877718Y-66420040D01*
X147808438Y-66557787D01*
X147611966Y-67032114D01*
X147450760Y-67519556D01*
X147325686Y-68017496D01*
X147237416Y-68523258D01*
X147186425Y-69034127D01*
X147172985Y-69547359D01*
X102362000Y-69547359D01*
X102362000Y-60450178D01*
X102382002Y-60382057D01*
X102435658Y-60335564D01*
X102505932Y-60325460D01*
X102526936Y-60330345D01*
X102542999Y-60335564D01*
X102638921Y-60366731D01*
X102947985Y-60425688D01*
X103041489Y-60431571D01*
X103181422Y-60440375D01*
X103181438Y-60440376D01*
X103183417Y-60440500D01*
X103340583Y-60440500D01*
X103342562Y-60440376D01*
X103342578Y-60440375D01*
X103482511Y-60431571D01*
X103576015Y-60425688D01*
X103885079Y-60366731D01*
X104184315Y-60269503D01*
X104187901Y-60267816D01*
X104187905Y-60267814D01*
X104465421Y-60137225D01*
X104465428Y-60137221D01*
X104469007Y-60135537D01*
X104734663Y-59966947D01*
X104977094Y-59766390D01*
X105192478Y-59537030D01*
X105377416Y-59282484D01*
X105528994Y-59006766D01*
X105644819Y-58714225D01*
X105645803Y-58710391D01*
X105645806Y-58710383D01*
X105722080Y-58413312D01*
X105723066Y-58409473D01*
X105762500Y-58097318D01*
X109761500Y-58097318D01*
X109800934Y-58409473D01*
X109801920Y-58413312D01*
X109878194Y-58710383D01*
X109878197Y-58710391D01*
X109879181Y-58714225D01*
X109995006Y-59006766D01*
X110146584Y-59282484D01*
X110331522Y-59537030D01*
X110546906Y-59766390D01*
X110789337Y-59966947D01*
X111054993Y-60135537D01*
X111058572Y-60137221D01*
X111058579Y-60137225D01*
X111336095Y-60267814D01*
X111336099Y-60267816D01*
X111339685Y-60269503D01*
X111638921Y-60366731D01*
X111947985Y-60425688D01*
X112041489Y-60431571D01*
X112181422Y-60440375D01*
X112181438Y-60440376D01*
X112183417Y-60440500D01*
X112340583Y-60440500D01*
X112342562Y-60440376D01*
X112342578Y-60440375D01*
X112482511Y-60431571D01*
X112576015Y-60425688D01*
X112885079Y-60366731D01*
X113184315Y-60269503D01*
X113187901Y-60267816D01*
X113187905Y-60267814D01*
X113465421Y-60137225D01*
X113465428Y-60137221D01*
X113469007Y-60135537D01*
X113734663Y-59966947D01*
X113977094Y-59766390D01*
X114192478Y-59537030D01*
X114377416Y-59282484D01*
X114528994Y-59006766D01*
X114644819Y-58714225D01*
X114645803Y-58710391D01*
X114645806Y-58710383D01*
X114722080Y-58413312D01*
X114723066Y-58409473D01*
X114762500Y-58097318D01*
X160339500Y-58097318D01*
X160378934Y-58409473D01*
X160379920Y-58413312D01*
X160456194Y-58710383D01*
X160456197Y-58710391D01*
X160457181Y-58714225D01*
X160573006Y-59006766D01*
X160724584Y-59282484D01*
X160909522Y-59537030D01*
X161124906Y-59766390D01*
X161367337Y-59966947D01*
X161632993Y-60135537D01*
X161636572Y-60137221D01*
X161636579Y-60137225D01*
X161914095Y-60267814D01*
X161914099Y-60267816D01*
X161917685Y-60269503D01*
X162216921Y-60366731D01*
X162525985Y-60425688D01*
X162619489Y-60431571D01*
X162759422Y-60440375D01*
X162759438Y-60440376D01*
X162761417Y-60440500D01*
X162918583Y-60440500D01*
X162920562Y-60440376D01*
X162920578Y-60440375D01*
X163060511Y-60431571D01*
X163154015Y-60425688D01*
X163463079Y-60366731D01*
X163762315Y-60269503D01*
X163765901Y-60267816D01*
X163765905Y-60267814D01*
X164043421Y-60137225D01*
X164043428Y-60137221D01*
X164047007Y-60135537D01*
X164312663Y-59966947D01*
X164555094Y-59766390D01*
X164770478Y-59537030D01*
X164955416Y-59282484D01*
X165106994Y-59006766D01*
X165222819Y-58714225D01*
X165223803Y-58710391D01*
X165223806Y-58710383D01*
X165300080Y-58413312D01*
X165301066Y-58409473D01*
X165340500Y-58097318D01*
X175339500Y-58097318D01*
X175378934Y-58409473D01*
X175379920Y-58413312D01*
X175456194Y-58710383D01*
X175456197Y-58710391D01*
X175457181Y-58714225D01*
X175573006Y-59006766D01*
X175724584Y-59282484D01*
X175909522Y-59537030D01*
X176124906Y-59766390D01*
X176367337Y-59966947D01*
X176632993Y-60135537D01*
X176636572Y-60137221D01*
X176636579Y-60137225D01*
X176914095Y-60267814D01*
X176914099Y-60267816D01*
X176917685Y-60269503D01*
X177216921Y-60366731D01*
X177525985Y-60425688D01*
X177619489Y-60431571D01*
X177759422Y-60440375D01*
X177759438Y-60440376D01*
X177761417Y-60440500D01*
X177918583Y-60440500D01*
X177920562Y-60440376D01*
X177920578Y-60440375D01*
X178060511Y-60431571D01*
X178154015Y-60425688D01*
X178463079Y-60366731D01*
X178762315Y-60269503D01*
X178765901Y-60267816D01*
X178765905Y-60267814D01*
X179043421Y-60137225D01*
X179043428Y-60137221D01*
X179047007Y-60135537D01*
X179312663Y-59966947D01*
X179555094Y-59766390D01*
X179770478Y-59537030D01*
X179955416Y-59282484D01*
X180106994Y-59006766D01*
X180222819Y-58714225D01*
X180223803Y-58710391D01*
X180223806Y-58710383D01*
X180300080Y-58413312D01*
X180301066Y-58409473D01*
X180340500Y-58097318D01*
X180340500Y-57782682D01*
X180301066Y-57470527D01*
X180272193Y-57358074D01*
X180223806Y-57169617D01*
X180223803Y-57169609D01*
X180222819Y-57165775D01*
X180106994Y-56873234D01*
X179955416Y-56597516D01*
X179770478Y-56342970D01*
X179555094Y-56113610D01*
X179312663Y-55913053D01*
X179047007Y-55744463D01*
X179043428Y-55742779D01*
X179043421Y-55742775D01*
X178765905Y-55612186D01*
X178765901Y-55612184D01*
X178762315Y-55610497D01*
X178463079Y-55513269D01*
X178154015Y-55454312D01*
X178060511Y-55448429D01*
X177920578Y-55439625D01*
X177920562Y-55439624D01*
X177918583Y-55439500D01*
X177761417Y-55439500D01*
X177759438Y-55439624D01*
X177759422Y-55439625D01*
X177619489Y-55448429D01*
X177525985Y-55454312D01*
X177216921Y-55513269D01*
X176917685Y-55610497D01*
X176914099Y-55612184D01*
X176914095Y-55612186D01*
X176636579Y-55742775D01*
X176636572Y-55742779D01*
X176632993Y-55744463D01*
X176367337Y-55913053D01*
X176124906Y-56113610D01*
X175909522Y-56342970D01*
X175724584Y-56597516D01*
X175573006Y-56873234D01*
X175457181Y-57165775D01*
X175456197Y-57169609D01*
X175456194Y-57169617D01*
X175407807Y-57358074D01*
X175378934Y-57470527D01*
X175339500Y-57782682D01*
X175339500Y-58097318D01*
X165340500Y-58097318D01*
X165340500Y-57782682D01*
X165301066Y-57470527D01*
X165272193Y-57358074D01*
X165223806Y-57169617D01*
X165223803Y-57169609D01*
X165222819Y-57165775D01*
X165106994Y-56873234D01*
X164955416Y-56597516D01*
X164770478Y-56342970D01*
X164555094Y-56113610D01*
X164312663Y-55913053D01*
X164047007Y-55744463D01*
X164043428Y-55742779D01*
X164043421Y-55742775D01*
X163765905Y-55612186D01*
X163765901Y-55612184D01*
X163762315Y-55610497D01*
X163463079Y-55513269D01*
X163154015Y-55454312D01*
X163060511Y-55448429D01*
X162920578Y-55439625D01*
X162920562Y-55439624D01*
X162918583Y-55439500D01*
X162761417Y-55439500D01*
X162759438Y-55439624D01*
X162759422Y-55439625D01*
X162619489Y-55448429D01*
X162525985Y-55454312D01*
X162216921Y-55513269D01*
X161917685Y-55610497D01*
X161914099Y-55612184D01*
X161914095Y-55612186D01*
X161636579Y-55742775D01*
X161636572Y-55742779D01*
X161632993Y-55744463D01*
X161367337Y-55913053D01*
X161124906Y-56113610D01*
X160909522Y-56342970D01*
X160724584Y-56597516D01*
X160573006Y-56873234D01*
X160457181Y-57165775D01*
X160456197Y-57169609D01*
X160456194Y-57169617D01*
X160407807Y-57358074D01*
X160378934Y-57470527D01*
X160339500Y-57782682D01*
X160339500Y-58097318D01*
X114762500Y-58097318D01*
X114762500Y-57782682D01*
X114723066Y-57470527D01*
X114694193Y-57358074D01*
X114645806Y-57169617D01*
X114645803Y-57169609D01*
X114644819Y-57165775D01*
X114528994Y-56873234D01*
X114377416Y-56597516D01*
X114192478Y-56342970D01*
X113977094Y-56113610D01*
X113734663Y-55913053D01*
X113469007Y-55744463D01*
X113465428Y-55742779D01*
X113465421Y-55742775D01*
X113187905Y-55612186D01*
X113187901Y-55612184D01*
X113184315Y-55610497D01*
X112885079Y-55513269D01*
X112576015Y-55454312D01*
X112482511Y-55448429D01*
X112342578Y-55439625D01*
X112342562Y-55439624D01*
X112340583Y-55439500D01*
X112183417Y-55439500D01*
X112181438Y-55439624D01*
X112181422Y-55439625D01*
X112041489Y-55448429D01*
X111947985Y-55454312D01*
X111638921Y-55513269D01*
X111339685Y-55610497D01*
X111336099Y-55612184D01*
X111336095Y-55612186D01*
X111058579Y-55742775D01*
X111058572Y-55742779D01*
X111054993Y-55744463D01*
X110789337Y-55913053D01*
X110546906Y-56113610D01*
X110331522Y-56342970D01*
X110146584Y-56597516D01*
X109995006Y-56873234D01*
X109879181Y-57165775D01*
X109878197Y-57169609D01*
X109878194Y-57169617D01*
X109829807Y-57358074D01*
X109800934Y-57470527D01*
X109761500Y-57782682D01*
X109761500Y-58097318D01*
X105762500Y-58097318D01*
X105762500Y-57782682D01*
X105723066Y-57470527D01*
X105694193Y-57358074D01*
X105645806Y-57169617D01*
X105645803Y-57169609D01*
X105644819Y-57165775D01*
X105528994Y-56873234D01*
X105377416Y-56597516D01*
X105192478Y-56342970D01*
X104977094Y-56113610D01*
X104734663Y-55913053D01*
X104469007Y-55744463D01*
X104465428Y-55742779D01*
X104465421Y-55742775D01*
X104187905Y-55612186D01*
X104187901Y-55612184D01*
X104184315Y-55610497D01*
X103885079Y-55513269D01*
X103576015Y-55454312D01*
X103482511Y-55448429D01*
X103342578Y-55439625D01*
X103342562Y-55439624D01*
X103340583Y-55439500D01*
X103183417Y-55439500D01*
X103181438Y-55439624D01*
X103181422Y-55439625D01*
X103041489Y-55448429D01*
X102947985Y-55454312D01*
X102638921Y-55513269D01*
X102635144Y-55514496D01*
X102635145Y-55514496D01*
X102526936Y-55549655D01*
X102455968Y-55551682D01*
X102395171Y-55515020D01*
X102363845Y-55451308D01*
X102362000Y-55429822D01*
X102362000Y-51656000D01*
X102382002Y-51587879D01*
X102435658Y-51541386D01*
X102488000Y-51530000D01*
X188596000Y-51530000D01*
X188664121Y-51550002D01*
G37*
%TD.AperFunction*%
%TD*%
M02*
