%TF.GenerationSoftware,KiCad,Pcbnew,(6.0.1)*%
%TF.CreationDate,2022-06-01T15:29:14+03:00*%
%TF.ProjectId,Power,506f7765-722e-46b6-9963-61645f706362,rev?*%
%TF.SameCoordinates,Original*%
%TF.FileFunction,Legend,Top*%
%TF.FilePolarity,Positive*%
%FSLAX46Y46*%
G04 Gerber Fmt 4.6, Leading zero omitted, Abs format (unit mm)*
G04 Created by KiCad (PCBNEW (6.0.1)) date 2022-06-01 15:29:14*
%MOMM*%
%LPD*%
G01*
G04 APERTURE LIST*
%ADD10C,0.150000*%
%ADD11C,0.300000*%
%ADD12C,0.120000*%
G04 APERTURE END LIST*
D10*
X161544000Y-50292000D02*
X234950000Y-50292000D01*
X234950000Y-50292000D02*
X234950000Y-61468000D01*
X234950000Y-61468000D02*
X161544000Y-61468000D01*
X161544000Y-61468000D02*
X161544000Y-50292000D01*
X129286000Y-55372000D02*
X126746000Y-55372000D01*
X126746000Y-55372000D02*
X126746000Y-58166000D01*
X126746000Y-58166000D02*
X129286000Y-58166000D01*
X129286000Y-58166000D02*
X129286000Y-55372000D01*
X85344000Y-50292000D02*
X132588000Y-50292000D01*
X132588000Y-50292000D02*
X132588000Y-61468000D01*
X132588000Y-61468000D02*
X85344000Y-61468000D01*
X85344000Y-61468000D02*
X85344000Y-50292000D01*
X190246000Y-54610000D02*
X195834000Y-54610000D01*
X195834000Y-54610000D02*
X195834000Y-57404000D01*
X195834000Y-57404000D02*
X190246000Y-57404000D01*
X190246000Y-57404000D02*
X190246000Y-54610000D01*
X171958000Y-122174000D02*
X208534000Y-122174000D01*
X208534000Y-122174000D02*
X208534000Y-141224000D01*
X208534000Y-141224000D02*
X171958000Y-141224000D01*
X171958000Y-141224000D02*
X171958000Y-122174000D01*
X196850000Y-54610000D02*
X202438000Y-54610000D01*
X202438000Y-54610000D02*
X202438000Y-57404000D01*
X202438000Y-57404000D02*
X196850000Y-57404000D01*
X196850000Y-57404000D02*
X196850000Y-54610000D01*
X125222000Y-55372000D02*
X122682000Y-55372000D01*
X122682000Y-55372000D02*
X122682000Y-58166000D01*
X122682000Y-58166000D02*
X125222000Y-58166000D01*
X125222000Y-58166000D02*
X125222000Y-55372000D01*
D11*
X203708095Y-135778857D02*
X205231904Y-135778857D01*
X204470000Y-136540761D02*
X204470000Y-135016952D01*
D10*
X199310666Y-58126380D02*
X199310666Y-58840666D01*
X199263047Y-58983523D01*
X199167809Y-59078761D01*
X199024952Y-59126380D01*
X198929714Y-59126380D01*
X200263047Y-58126380D02*
X199786857Y-58126380D01*
X199739238Y-58602571D01*
X199786857Y-58554952D01*
X199882095Y-58507333D01*
X200120190Y-58507333D01*
X200215428Y-58554952D01*
X200263047Y-58602571D01*
X200310666Y-58697809D01*
X200310666Y-58935904D01*
X200263047Y-59031142D01*
X200215428Y-59078761D01*
X200120190Y-59126380D01*
X199882095Y-59126380D01*
X199786857Y-59078761D01*
X199739238Y-59031142D01*
X188571428Y-138744142D02*
X188523809Y-138791761D01*
X188380952Y-138839380D01*
X188285714Y-138839380D01*
X188142857Y-138791761D01*
X188047619Y-138696523D01*
X188000000Y-138601285D01*
X187952380Y-138410809D01*
X187952380Y-138267952D01*
X188000000Y-138077476D01*
X188047619Y-137982238D01*
X188142857Y-137887000D01*
X188285714Y-137839380D01*
X188380952Y-137839380D01*
X188523809Y-137887000D01*
X188571428Y-137934619D01*
X189428571Y-138172714D02*
X189428571Y-138839380D01*
X189000000Y-138172714D02*
X189000000Y-138696523D01*
X189047619Y-138791761D01*
X189142857Y-138839380D01*
X189285714Y-138839380D01*
X189380952Y-138791761D01*
X189428571Y-138744142D01*
X189904761Y-138839380D02*
X189904761Y-138172714D01*
X189904761Y-138363190D02*
X189952380Y-138267952D01*
X190000000Y-138220333D01*
X190095238Y-138172714D01*
X190190476Y-138172714D01*
X190523809Y-138839380D02*
X190523809Y-138172714D01*
X190523809Y-138363190D02*
X190571428Y-138267952D01*
X190619047Y-138220333D01*
X190714285Y-138172714D01*
X190809523Y-138172714D01*
X191523809Y-138791761D02*
X191428571Y-138839380D01*
X191238095Y-138839380D01*
X191142857Y-138791761D01*
X191095238Y-138696523D01*
X191095238Y-138315571D01*
X191142857Y-138220333D01*
X191238095Y-138172714D01*
X191428571Y-138172714D01*
X191523809Y-138220333D01*
X191571428Y-138315571D01*
X191571428Y-138410809D01*
X191095238Y-138506047D01*
X192000000Y-138172714D02*
X192000000Y-138839380D01*
X192000000Y-138267952D02*
X192047619Y-138220333D01*
X192142857Y-138172714D01*
X192285714Y-138172714D01*
X192380952Y-138220333D01*
X192428571Y-138315571D01*
X192428571Y-138839380D01*
X192761904Y-138172714D02*
X193142857Y-138172714D01*
X192904761Y-137839380D02*
X192904761Y-138696523D01*
X192952380Y-138791761D01*
X193047619Y-138839380D01*
X193142857Y-138839380D01*
X187690476Y-140449380D02*
X187690476Y-139449380D01*
X188023809Y-140163666D01*
X188357142Y-139449380D01*
X188357142Y-140449380D01*
X189214285Y-140401761D02*
X189119047Y-140449380D01*
X188928571Y-140449380D01*
X188833333Y-140401761D01*
X188785714Y-140306523D01*
X188785714Y-139925571D01*
X188833333Y-139830333D01*
X188928571Y-139782714D01*
X189119047Y-139782714D01*
X189214285Y-139830333D01*
X189261904Y-139925571D01*
X189261904Y-140020809D01*
X188785714Y-140116047D01*
X190119047Y-140449380D02*
X190119047Y-139925571D01*
X190071428Y-139830333D01*
X189976190Y-139782714D01*
X189785714Y-139782714D01*
X189690476Y-139830333D01*
X190119047Y-140401761D02*
X190023809Y-140449380D01*
X189785714Y-140449380D01*
X189690476Y-140401761D01*
X189642857Y-140306523D01*
X189642857Y-140211285D01*
X189690476Y-140116047D01*
X189785714Y-140068428D01*
X190023809Y-140068428D01*
X190119047Y-140020809D01*
X190547619Y-140401761D02*
X190642857Y-140449380D01*
X190833333Y-140449380D01*
X190928571Y-140401761D01*
X190976190Y-140306523D01*
X190976190Y-140258904D01*
X190928571Y-140163666D01*
X190833333Y-140116047D01*
X190690476Y-140116047D01*
X190595238Y-140068428D01*
X190547619Y-139973190D01*
X190547619Y-139925571D01*
X190595238Y-139830333D01*
X190690476Y-139782714D01*
X190833333Y-139782714D01*
X190928571Y-139830333D01*
X191833333Y-139782714D02*
X191833333Y-140449380D01*
X191404761Y-139782714D02*
X191404761Y-140306523D01*
X191452380Y-140401761D01*
X191547619Y-140449380D01*
X191690476Y-140449380D01*
X191785714Y-140401761D01*
X191833333Y-140354142D01*
X192309523Y-140449380D02*
X192309523Y-139782714D01*
X192309523Y-139973190D02*
X192357142Y-139877952D01*
X192404761Y-139830333D01*
X192500000Y-139782714D01*
X192595238Y-139782714D01*
X193309523Y-140401761D02*
X193214285Y-140449380D01*
X193023809Y-140449380D01*
X192928571Y-140401761D01*
X192880952Y-140306523D01*
X192880952Y-139925571D01*
X192928571Y-139830333D01*
X193023809Y-139782714D01*
X193214285Y-139782714D01*
X193309523Y-139830333D01*
X193357142Y-139925571D01*
X193357142Y-140020809D01*
X192880952Y-140116047D01*
X120817333Y-53554380D02*
X121007809Y-53554380D01*
X121103047Y-53602000D01*
X121198285Y-53697238D01*
X121245904Y-53887714D01*
X121245904Y-54221047D01*
X121198285Y-54411523D01*
X121103047Y-54506761D01*
X121007809Y-54554380D01*
X120817333Y-54554380D01*
X120722095Y-54506761D01*
X120626857Y-54411523D01*
X120579238Y-54221047D01*
X120579238Y-53887714D01*
X120626857Y-53697238D01*
X120722095Y-53602000D01*
X120817333Y-53554380D01*
X122103047Y-53887714D02*
X122103047Y-54554380D01*
X121674476Y-53887714D02*
X121674476Y-54411523D01*
X121722095Y-54506761D01*
X121817333Y-54554380D01*
X121960190Y-54554380D01*
X122055428Y-54506761D01*
X122103047Y-54459142D01*
X122436380Y-53887714D02*
X122817333Y-53887714D01*
X122579238Y-53554380D02*
X122579238Y-54411523D01*
X122626857Y-54506761D01*
X122722095Y-54554380D01*
X122817333Y-54554380D01*
X123150666Y-53887714D02*
X123150666Y-54887714D01*
X123150666Y-53935333D02*
X123245904Y-53887714D01*
X123436380Y-53887714D01*
X123531619Y-53935333D01*
X123579238Y-53982952D01*
X123626857Y-54078190D01*
X123626857Y-54363904D01*
X123579238Y-54459142D01*
X123531619Y-54506761D01*
X123436380Y-54554380D01*
X123245904Y-54554380D01*
X123150666Y-54506761D01*
X124484000Y-53887714D02*
X124484000Y-54554380D01*
X124055428Y-53887714D02*
X124055428Y-54411523D01*
X124103047Y-54506761D01*
X124198285Y-54554380D01*
X124341142Y-54554380D01*
X124436380Y-54506761D01*
X124484000Y-54459142D01*
X124817333Y-53887714D02*
X125198285Y-53887714D01*
X124960190Y-53554380D02*
X124960190Y-54411523D01*
X125007809Y-54506761D01*
X125103047Y-54554380D01*
X125198285Y-54554380D01*
X126150666Y-53554380D02*
X126484000Y-54554380D01*
X126817333Y-53554380D01*
X127293523Y-54554380D02*
X127198285Y-54506761D01*
X127150666Y-54459142D01*
X127103047Y-54363904D01*
X127103047Y-54078190D01*
X127150666Y-53982952D01*
X127198285Y-53935333D01*
X127293523Y-53887714D01*
X127436380Y-53887714D01*
X127531619Y-53935333D01*
X127579238Y-53982952D01*
X127626857Y-54078190D01*
X127626857Y-54363904D01*
X127579238Y-54459142D01*
X127531619Y-54506761D01*
X127436380Y-54554380D01*
X127293523Y-54554380D01*
X128198285Y-54554380D02*
X128103047Y-54506761D01*
X128055428Y-54411523D01*
X128055428Y-53554380D01*
X128436380Y-53887714D02*
X128817333Y-53887714D01*
X128579238Y-53554380D02*
X128579238Y-54411523D01*
X128626857Y-54506761D01*
X128722095Y-54554380D01*
X128817333Y-54554380D01*
X129579238Y-54554380D02*
X129579238Y-54030571D01*
X129531619Y-53935333D01*
X129436380Y-53887714D01*
X129245904Y-53887714D01*
X129150666Y-53935333D01*
X129579238Y-54506761D02*
X129484000Y-54554380D01*
X129245904Y-54554380D01*
X129150666Y-54506761D01*
X129103047Y-54411523D01*
X129103047Y-54316285D01*
X129150666Y-54221047D01*
X129245904Y-54173428D01*
X129484000Y-54173428D01*
X129579238Y-54125809D01*
X130484000Y-53887714D02*
X130484000Y-54697238D01*
X130436380Y-54792476D01*
X130388761Y-54840095D01*
X130293523Y-54887714D01*
X130150666Y-54887714D01*
X130055428Y-54840095D01*
X130484000Y-54506761D02*
X130388761Y-54554380D01*
X130198285Y-54554380D01*
X130103047Y-54506761D01*
X130055428Y-54459142D01*
X130007809Y-54363904D01*
X130007809Y-54078190D01*
X130055428Y-53982952D01*
X130103047Y-53935333D01*
X130198285Y-53887714D01*
X130388761Y-53887714D01*
X130484000Y-53935333D01*
X131341142Y-54506761D02*
X131245904Y-54554380D01*
X131055428Y-54554380D01*
X130960190Y-54506761D01*
X130912571Y-54411523D01*
X130912571Y-54030571D01*
X130960190Y-53935333D01*
X131055428Y-53887714D01*
X131245904Y-53887714D01*
X131341142Y-53935333D01*
X131388761Y-54030571D01*
X131388761Y-54125809D01*
X130912571Y-54221047D01*
D11*
X200406095Y-135778857D02*
X201929904Y-135778857D01*
X198882095Y-56022857D02*
X200405904Y-56022857D01*
X199644000Y-56784761D02*
X199644000Y-55260952D01*
X127254095Y-56784857D02*
X128777904Y-56784857D01*
D10*
X222702380Y-74747333D02*
X222702380Y-75223523D01*
X221702380Y-75223523D01*
X222702380Y-73652095D02*
X221702380Y-73652095D01*
X222702380Y-73175904D02*
X221702380Y-73175904D01*
X222702380Y-72604476D01*
X221702380Y-72604476D01*
X191556285Y-53792380D02*
X191556285Y-52792380D01*
X192032476Y-53125714D02*
X192032476Y-53792380D01*
X192032476Y-53220952D02*
X192080095Y-53173333D01*
X192175333Y-53125714D01*
X192318190Y-53125714D01*
X192413428Y-53173333D01*
X192461047Y-53268571D01*
X192461047Y-53792380D01*
X192937238Y-53125714D02*
X192937238Y-54125714D01*
X192937238Y-53173333D02*
X193032476Y-53125714D01*
X193222952Y-53125714D01*
X193318190Y-53173333D01*
X193365809Y-53220952D01*
X193413428Y-53316190D01*
X193413428Y-53601904D01*
X193365809Y-53697142D01*
X193318190Y-53744761D01*
X193222952Y-53792380D01*
X193032476Y-53792380D01*
X192937238Y-53744761D01*
X194270571Y-53125714D02*
X194270571Y-53792380D01*
X193842000Y-53125714D02*
X193842000Y-53649523D01*
X193889619Y-53744761D01*
X193984857Y-53792380D01*
X194127714Y-53792380D01*
X194222952Y-53744761D01*
X194270571Y-53697142D01*
X194603904Y-53125714D02*
X194984857Y-53125714D01*
X194746761Y-52792380D02*
X194746761Y-53649523D01*
X194794380Y-53744761D01*
X194889619Y-53792380D01*
X194984857Y-53792380D01*
X195937238Y-52792380D02*
X196270571Y-53792380D01*
X196603904Y-52792380D01*
X197080095Y-53792380D02*
X196984857Y-53744761D01*
X196937238Y-53697142D01*
X196889619Y-53601904D01*
X196889619Y-53316190D01*
X196937238Y-53220952D01*
X196984857Y-53173333D01*
X197080095Y-53125714D01*
X197222952Y-53125714D01*
X197318190Y-53173333D01*
X197365809Y-53220952D01*
X197413428Y-53316190D01*
X197413428Y-53601904D01*
X197365809Y-53697142D01*
X197318190Y-53744761D01*
X197222952Y-53792380D01*
X197080095Y-53792380D01*
X197984857Y-53792380D02*
X197889619Y-53744761D01*
X197842000Y-53649523D01*
X197842000Y-52792380D01*
X198222952Y-53125714D02*
X198603904Y-53125714D01*
X198365809Y-52792380D02*
X198365809Y-53649523D01*
X198413428Y-53744761D01*
X198508666Y-53792380D01*
X198603904Y-53792380D01*
X199365809Y-53792380D02*
X199365809Y-53268571D01*
X199318190Y-53173333D01*
X199222952Y-53125714D01*
X199032476Y-53125714D01*
X198937238Y-53173333D01*
X199365809Y-53744761D02*
X199270571Y-53792380D01*
X199032476Y-53792380D01*
X198937238Y-53744761D01*
X198889619Y-53649523D01*
X198889619Y-53554285D01*
X198937238Y-53459047D01*
X199032476Y-53411428D01*
X199270571Y-53411428D01*
X199365809Y-53363809D01*
X200270571Y-53125714D02*
X200270571Y-53935238D01*
X200222952Y-54030476D01*
X200175333Y-54078095D01*
X200080095Y-54125714D01*
X199937238Y-54125714D01*
X199842000Y-54078095D01*
X200270571Y-53744761D02*
X200175333Y-53792380D01*
X199984857Y-53792380D01*
X199889619Y-53744761D01*
X199842000Y-53697142D01*
X199794380Y-53601904D01*
X199794380Y-53316190D01*
X199842000Y-53220952D01*
X199889619Y-53173333D01*
X199984857Y-53125714D01*
X200175333Y-53125714D01*
X200270571Y-53173333D01*
X201127714Y-53744761D02*
X201032476Y-53792380D01*
X200842000Y-53792380D01*
X200746761Y-53744761D01*
X200699142Y-53649523D01*
X200699142Y-53268571D01*
X200746761Y-53173333D01*
X200842000Y-53125714D01*
X201032476Y-53125714D01*
X201127714Y-53173333D01*
X201175333Y-53268571D01*
X201175333Y-53363809D01*
X200699142Y-53459047D01*
X123618666Y-58888380D02*
X123618666Y-59602666D01*
X123571047Y-59745523D01*
X123475809Y-59840761D01*
X123332952Y-59888380D01*
X123237714Y-59888380D01*
X124618666Y-59888380D02*
X124047238Y-59888380D01*
X124332952Y-59888380D02*
X124332952Y-58888380D01*
X124237714Y-59031238D01*
X124142476Y-59126476D01*
X124047238Y-59174095D01*
X127682666Y-58888380D02*
X127682666Y-59602666D01*
X127635047Y-59745523D01*
X127539809Y-59840761D01*
X127396952Y-59888380D01*
X127301714Y-59888380D01*
X128111238Y-58983619D02*
X128158857Y-58936000D01*
X128254095Y-58888380D01*
X128492190Y-58888380D01*
X128587428Y-58936000D01*
X128635047Y-58983619D01*
X128682666Y-59078857D01*
X128682666Y-59174095D01*
X128635047Y-59316952D01*
X128063619Y-59888380D01*
X128682666Y-59888380D01*
X172609142Y-135088380D02*
X172942476Y-136088380D01*
X173275809Y-135088380D01*
X174561523Y-135088380D02*
X174752000Y-135088380D01*
X174847238Y-135136000D01*
X174942476Y-135231238D01*
X174990095Y-135421714D01*
X174990095Y-135755047D01*
X174942476Y-135945523D01*
X174847238Y-136040761D01*
X174752000Y-136088380D01*
X174561523Y-136088380D01*
X174466285Y-136040761D01*
X174371047Y-135945523D01*
X174323428Y-135755047D01*
X174323428Y-135421714D01*
X174371047Y-135231238D01*
X174466285Y-135136000D01*
X174561523Y-135088380D01*
X175418666Y-135088380D02*
X175418666Y-135897904D01*
X175466285Y-135993142D01*
X175513904Y-136040761D01*
X175609142Y-136088380D01*
X175799619Y-136088380D01*
X175894857Y-136040761D01*
X175942476Y-135993142D01*
X175990095Y-135897904D01*
X175990095Y-135088380D01*
X176323428Y-135088380D02*
X176894857Y-135088380D01*
X176609142Y-136088380D02*
X176609142Y-135088380D01*
X175387333Y-137839380D02*
X175720666Y-138839380D01*
X176054000Y-137839380D01*
X176530190Y-138839380D02*
X176434952Y-138791761D01*
X176387333Y-138744142D01*
X176339714Y-138648904D01*
X176339714Y-138363190D01*
X176387333Y-138267952D01*
X176434952Y-138220333D01*
X176530190Y-138172714D01*
X176673047Y-138172714D01*
X176768285Y-138220333D01*
X176815904Y-138267952D01*
X176863523Y-138363190D01*
X176863523Y-138648904D01*
X176815904Y-138744142D01*
X176768285Y-138791761D01*
X176673047Y-138839380D01*
X176530190Y-138839380D01*
X177434952Y-138839380D02*
X177339714Y-138791761D01*
X177292095Y-138696523D01*
X177292095Y-137839380D01*
X177673047Y-138172714D02*
X178054000Y-138172714D01*
X177815904Y-137839380D02*
X177815904Y-138696523D01*
X177863523Y-138791761D01*
X177958761Y-138839380D01*
X178054000Y-138839380D01*
X178815904Y-138839380D02*
X178815904Y-138315571D01*
X178768285Y-138220333D01*
X178673047Y-138172714D01*
X178482571Y-138172714D01*
X178387333Y-138220333D01*
X178815904Y-138791761D02*
X178720666Y-138839380D01*
X178482571Y-138839380D01*
X178387333Y-138791761D01*
X178339714Y-138696523D01*
X178339714Y-138601285D01*
X178387333Y-138506047D01*
X178482571Y-138458428D01*
X178720666Y-138458428D01*
X178815904Y-138410809D01*
X179720666Y-138172714D02*
X179720666Y-138982238D01*
X179673047Y-139077476D01*
X179625428Y-139125095D01*
X179530190Y-139172714D01*
X179387333Y-139172714D01*
X179292095Y-139125095D01*
X179720666Y-138791761D02*
X179625428Y-138839380D01*
X179434952Y-138839380D01*
X179339714Y-138791761D01*
X179292095Y-138744142D01*
X179244476Y-138648904D01*
X179244476Y-138363190D01*
X179292095Y-138267952D01*
X179339714Y-138220333D01*
X179434952Y-138172714D01*
X179625428Y-138172714D01*
X179720666Y-138220333D01*
X180577809Y-138791761D02*
X180482571Y-138839380D01*
X180292095Y-138839380D01*
X180196857Y-138791761D01*
X180149238Y-138696523D01*
X180149238Y-138315571D01*
X180196857Y-138220333D01*
X180292095Y-138172714D01*
X180482571Y-138172714D01*
X180577809Y-138220333D01*
X180625428Y-138315571D01*
X180625428Y-138410809D01*
X180149238Y-138506047D01*
X175244476Y-140449380D02*
X175244476Y-139449380D01*
X175577809Y-140163666D01*
X175911142Y-139449380D01*
X175911142Y-140449380D01*
X176768285Y-140401761D02*
X176673047Y-140449380D01*
X176482571Y-140449380D01*
X176387333Y-140401761D01*
X176339714Y-140306523D01*
X176339714Y-139925571D01*
X176387333Y-139830333D01*
X176482571Y-139782714D01*
X176673047Y-139782714D01*
X176768285Y-139830333D01*
X176815904Y-139925571D01*
X176815904Y-140020809D01*
X176339714Y-140116047D01*
X177673047Y-140449380D02*
X177673047Y-139925571D01*
X177625428Y-139830333D01*
X177530190Y-139782714D01*
X177339714Y-139782714D01*
X177244476Y-139830333D01*
X177673047Y-140401761D02*
X177577809Y-140449380D01*
X177339714Y-140449380D01*
X177244476Y-140401761D01*
X177196857Y-140306523D01*
X177196857Y-140211285D01*
X177244476Y-140116047D01*
X177339714Y-140068428D01*
X177577809Y-140068428D01*
X177673047Y-140020809D01*
X178101619Y-140401761D02*
X178196857Y-140449380D01*
X178387333Y-140449380D01*
X178482571Y-140401761D01*
X178530190Y-140306523D01*
X178530190Y-140258904D01*
X178482571Y-140163666D01*
X178387333Y-140116047D01*
X178244476Y-140116047D01*
X178149238Y-140068428D01*
X178101619Y-139973190D01*
X178101619Y-139925571D01*
X178149238Y-139830333D01*
X178244476Y-139782714D01*
X178387333Y-139782714D01*
X178482571Y-139830333D01*
X179387333Y-139782714D02*
X179387333Y-140449380D01*
X178958761Y-139782714D02*
X178958761Y-140306523D01*
X179006380Y-140401761D01*
X179101619Y-140449380D01*
X179244476Y-140449380D01*
X179339714Y-140401761D01*
X179387333Y-140354142D01*
X179863523Y-140449380D02*
X179863523Y-139782714D01*
X179863523Y-139973190D02*
X179911142Y-139877952D01*
X179958761Y-139830333D01*
X180054000Y-139782714D01*
X180149238Y-139782714D01*
X180863523Y-140401761D02*
X180768285Y-140449380D01*
X180577809Y-140449380D01*
X180482571Y-140401761D01*
X180434952Y-140306523D01*
X180434952Y-139925571D01*
X180482571Y-139830333D01*
X180577809Y-139782714D01*
X180768285Y-139782714D01*
X180863523Y-139830333D01*
X180911142Y-139925571D01*
X180911142Y-140020809D01*
X180434952Y-140116047D01*
X185896476Y-136088380D02*
X185896476Y-135088380D01*
X187325047Y-135088380D02*
X187515523Y-135088380D01*
X187610761Y-135136000D01*
X187706000Y-135231238D01*
X187753619Y-135421714D01*
X187753619Y-135755047D01*
X187706000Y-135945523D01*
X187610761Y-136040761D01*
X187515523Y-136088380D01*
X187325047Y-136088380D01*
X187229809Y-136040761D01*
X187134571Y-135945523D01*
X187086952Y-135755047D01*
X187086952Y-135421714D01*
X187134571Y-135231238D01*
X187229809Y-135136000D01*
X187325047Y-135088380D01*
X188182190Y-135088380D02*
X188182190Y-135897904D01*
X188229809Y-135993142D01*
X188277428Y-136040761D01*
X188372666Y-136088380D01*
X188563142Y-136088380D01*
X188658380Y-136040761D01*
X188706000Y-135993142D01*
X188753619Y-135897904D01*
X188753619Y-135088380D01*
X189086952Y-135088380D02*
X189658380Y-135088380D01*
X189372666Y-136088380D02*
X189372666Y-135088380D01*
X192706666Y-58126380D02*
X192706666Y-58840666D01*
X192659047Y-58983523D01*
X192563809Y-59078761D01*
X192420952Y-59126380D01*
X192325714Y-59126380D01*
X193611428Y-58126380D02*
X193420952Y-58126380D01*
X193325714Y-58174000D01*
X193278095Y-58221619D01*
X193182857Y-58364476D01*
X193135238Y-58554952D01*
X193135238Y-58935904D01*
X193182857Y-59031142D01*
X193230476Y-59078761D01*
X193325714Y-59126380D01*
X193516190Y-59126380D01*
X193611428Y-59078761D01*
X193659047Y-59031142D01*
X193706666Y-58935904D01*
X193706666Y-58697809D01*
X193659047Y-58602571D01*
X193611428Y-58554952D01*
X193516190Y-58507333D01*
X193325714Y-58507333D01*
X193230476Y-58554952D01*
X193182857Y-58602571D01*
X193135238Y-58697809D01*
D11*
X192278095Y-56022857D02*
X193801904Y-56022857D01*
X123190095Y-56784857D02*
X124713904Y-56784857D01*
X123952000Y-57546761D02*
X123952000Y-56022952D01*
D10*
X202247523Y-137839380D02*
X201771333Y-137839380D01*
X201723714Y-138315571D01*
X201771333Y-138267952D01*
X201866571Y-138220333D01*
X202104666Y-138220333D01*
X202199904Y-138267952D01*
X202247523Y-138315571D01*
X202295142Y-138410809D01*
X202295142Y-138648904D01*
X202247523Y-138744142D01*
X202199904Y-138791761D01*
X202104666Y-138839380D01*
X201866571Y-138839380D01*
X201771333Y-138791761D01*
X201723714Y-138744142D01*
X202580857Y-137839380D02*
X202914190Y-138839380D01*
X203247523Y-137839380D01*
X200152285Y-140401761D02*
X200295142Y-140449380D01*
X200533238Y-140449380D01*
X200628476Y-140401761D01*
X200676095Y-140354142D01*
X200723714Y-140258904D01*
X200723714Y-140163666D01*
X200676095Y-140068428D01*
X200628476Y-140020809D01*
X200533238Y-139973190D01*
X200342761Y-139925571D01*
X200247523Y-139877952D01*
X200199904Y-139830333D01*
X200152285Y-139735095D01*
X200152285Y-139639857D01*
X200199904Y-139544619D01*
X200247523Y-139497000D01*
X200342761Y-139449380D01*
X200580857Y-139449380D01*
X200723714Y-139497000D01*
X201580857Y-139782714D02*
X201580857Y-140449380D01*
X201152285Y-139782714D02*
X201152285Y-140306523D01*
X201199904Y-140401761D01*
X201295142Y-140449380D01*
X201438000Y-140449380D01*
X201533238Y-140401761D01*
X201580857Y-140354142D01*
X202057047Y-139782714D02*
X202057047Y-140782714D01*
X202057047Y-139830333D02*
X202152285Y-139782714D01*
X202342761Y-139782714D01*
X202438000Y-139830333D01*
X202485619Y-139877952D01*
X202533238Y-139973190D01*
X202533238Y-140258904D01*
X202485619Y-140354142D01*
X202438000Y-140401761D01*
X202342761Y-140449380D01*
X202152285Y-140449380D01*
X202057047Y-140401761D01*
X202961809Y-139782714D02*
X202961809Y-140782714D01*
X202961809Y-139830333D02*
X203057047Y-139782714D01*
X203247523Y-139782714D01*
X203342761Y-139830333D01*
X203390380Y-139877952D01*
X203438000Y-139973190D01*
X203438000Y-140258904D01*
X203390380Y-140354142D01*
X203342761Y-140401761D01*
X203247523Y-140449380D01*
X203057047Y-140449380D01*
X202961809Y-140401761D01*
X204009428Y-140449380D02*
X203914190Y-140401761D01*
X203866571Y-140306523D01*
X203866571Y-139449380D01*
X204295142Y-139782714D02*
X204533238Y-140449380D01*
X204771333Y-139782714D02*
X204533238Y-140449380D01*
X204438000Y-140687476D01*
X204390380Y-140735095D01*
X204295142Y-140782714D01*
X180387809Y-135088380D02*
X180721142Y-136088380D01*
X181054476Y-135088380D01*
X182149714Y-136088380D02*
X182149714Y-135088380D01*
X182625904Y-136088380D02*
X182625904Y-135088380D01*
X183197333Y-136088380D01*
X183197333Y-135088380D01*
X192024095Y-135136000D02*
X191928857Y-135088380D01*
X191786000Y-135088380D01*
X191643142Y-135136000D01*
X191547904Y-135231238D01*
X191500285Y-135326476D01*
X191452666Y-135516952D01*
X191452666Y-135659809D01*
X191500285Y-135850285D01*
X191547904Y-135945523D01*
X191643142Y-136040761D01*
X191786000Y-136088380D01*
X191881238Y-136088380D01*
X192024095Y-136040761D01*
X192071714Y-135993142D01*
X192071714Y-135659809D01*
X191881238Y-135659809D01*
X192500285Y-136088380D02*
X192500285Y-135088380D01*
X193071714Y-136088380D01*
X193071714Y-135088380D01*
X193547904Y-136088380D02*
X193547904Y-135088380D01*
X193786000Y-135088380D01*
X193928857Y-135136000D01*
X194024095Y-135231238D01*
X194071714Y-135326476D01*
X194119333Y-135516952D01*
X194119333Y-135659809D01*
X194071714Y-135850285D01*
X194024095Y-135945523D01*
X193928857Y-136040761D01*
X193786000Y-136088380D01*
X193547904Y-136088380D01*
X222956380Y-94210000D02*
X222956380Y-94686190D01*
X221956380Y-94686190D01*
X221956380Y-92924285D02*
X221956380Y-92733809D01*
X222004000Y-92638571D01*
X222099238Y-92543333D01*
X222289714Y-92495714D01*
X222623047Y-92495714D01*
X222813523Y-92543333D01*
X222908761Y-92638571D01*
X222956380Y-92733809D01*
X222956380Y-92924285D01*
X222908761Y-93019523D01*
X222813523Y-93114761D01*
X222623047Y-93162380D01*
X222289714Y-93162380D01*
X222099238Y-93114761D01*
X222004000Y-93019523D01*
X221956380Y-92924285D01*
X221956380Y-92067142D02*
X222765904Y-92067142D01*
X222861142Y-92019523D01*
X222908761Y-91971904D01*
X222956380Y-91876666D01*
X222956380Y-91686190D01*
X222908761Y-91590952D01*
X222861142Y-91543333D01*
X222765904Y-91495714D01*
X221956380Y-91495714D01*
X221956380Y-91162380D02*
X221956380Y-90590952D01*
X222956380Y-90876666D02*
X221956380Y-90876666D01*
%TO.C,J3*%
X220178380Y-101933333D02*
X220892666Y-101933333D01*
X221035523Y-101980952D01*
X221130761Y-102076190D01*
X221178380Y-102219047D01*
X221178380Y-102314285D01*
X220178380Y-101552380D02*
X220178380Y-100933333D01*
X220559333Y-101266666D01*
X220559333Y-101123809D01*
X220606952Y-101028571D01*
X220654571Y-100980952D01*
X220749809Y-100933333D01*
X220987904Y-100933333D01*
X221083142Y-100980952D01*
X221130761Y-101028571D01*
X221178380Y-101123809D01*
X221178380Y-101409523D01*
X221130761Y-101504761D01*
X221083142Y-101552380D01*
%TO.C,J9*%
X189912666Y-123404380D02*
X189912666Y-124118666D01*
X189865047Y-124261523D01*
X189769809Y-124356761D01*
X189626952Y-124404380D01*
X189531714Y-124404380D01*
X190436476Y-124404380D02*
X190626952Y-124404380D01*
X190722190Y-124356761D01*
X190769809Y-124309142D01*
X190865047Y-124166285D01*
X190912666Y-123975809D01*
X190912666Y-123594857D01*
X190865047Y-123499619D01*
X190817428Y-123452000D01*
X190722190Y-123404380D01*
X190531714Y-123404380D01*
X190436476Y-123452000D01*
X190388857Y-123499619D01*
X190341238Y-123594857D01*
X190341238Y-123832952D01*
X190388857Y-123928190D01*
X190436476Y-123975809D01*
X190531714Y-124023428D01*
X190722190Y-124023428D01*
X190817428Y-123975809D01*
X190865047Y-123928190D01*
X190912666Y-123832952D01*
%TO.C,L1*%
X69429333Y-80462380D02*
X68953142Y-80462380D01*
X68953142Y-79462380D01*
X70286476Y-80462380D02*
X69715047Y-80462380D01*
X70000761Y-80462380D02*
X70000761Y-79462380D01*
X69905523Y-79605238D01*
X69810285Y-79700476D01*
X69715047Y-79748095D01*
%TO.C,J10*%
X177244476Y-123404380D02*
X177244476Y-124118666D01*
X177196857Y-124261523D01*
X177101619Y-124356761D01*
X176958761Y-124404380D01*
X176863523Y-124404380D01*
X178244476Y-124404380D02*
X177673047Y-124404380D01*
X177958761Y-124404380D02*
X177958761Y-123404380D01*
X177863523Y-123547238D01*
X177768285Y-123642476D01*
X177673047Y-123690095D01*
X178863523Y-123404380D02*
X178958761Y-123404380D01*
X179054000Y-123452000D01*
X179101619Y-123499619D01*
X179149238Y-123594857D01*
X179196857Y-123785333D01*
X179196857Y-124023428D01*
X179149238Y-124213904D01*
X179101619Y-124309142D01*
X179054000Y-124356761D01*
X178958761Y-124404380D01*
X178863523Y-124404380D01*
X178768285Y-124356761D01*
X178720666Y-124309142D01*
X178673047Y-124213904D01*
X178625428Y-124023428D01*
X178625428Y-123785333D01*
X178673047Y-123594857D01*
X178720666Y-123499619D01*
X178768285Y-123452000D01*
X178863523Y-123404380D01*
%TO.C,D2*%
X90447904Y-109672380D02*
X90447904Y-108672380D01*
X90686000Y-108672380D01*
X90828857Y-108720000D01*
X90924095Y-108815238D01*
X90971714Y-108910476D01*
X91019333Y-109100952D01*
X91019333Y-109243809D01*
X90971714Y-109434285D01*
X90924095Y-109529523D01*
X90828857Y-109624761D01*
X90686000Y-109672380D01*
X90447904Y-109672380D01*
X91400285Y-108767619D02*
X91447904Y-108720000D01*
X91543142Y-108672380D01*
X91781238Y-108672380D01*
X91876476Y-108720000D01*
X91924095Y-108767619D01*
X91971714Y-108862857D01*
X91971714Y-108958095D01*
X91924095Y-109100952D01*
X91352666Y-109672380D01*
X91971714Y-109672380D01*
%TO.C,F1*%
X76882666Y-56490571D02*
X76549333Y-56490571D01*
X76549333Y-57014380D02*
X76549333Y-56014380D01*
X77025523Y-56014380D01*
X77930285Y-57014380D02*
X77358857Y-57014380D01*
X77644571Y-57014380D02*
X77644571Y-56014380D01*
X77549333Y-56157238D01*
X77454095Y-56252476D01*
X77358857Y-56300095D01*
%TO.C,C24*%
X201795142Y-121515142D02*
X201747523Y-121562761D01*
X201604666Y-121610380D01*
X201509428Y-121610380D01*
X201366571Y-121562761D01*
X201271333Y-121467523D01*
X201223714Y-121372285D01*
X201176095Y-121181809D01*
X201176095Y-121038952D01*
X201223714Y-120848476D01*
X201271333Y-120753238D01*
X201366571Y-120658000D01*
X201509428Y-120610380D01*
X201604666Y-120610380D01*
X201747523Y-120658000D01*
X201795142Y-120705619D01*
X202176095Y-120705619D02*
X202223714Y-120658000D01*
X202318952Y-120610380D01*
X202557047Y-120610380D01*
X202652285Y-120658000D01*
X202699904Y-120705619D01*
X202747523Y-120800857D01*
X202747523Y-120896095D01*
X202699904Y-121038952D01*
X202128476Y-121610380D01*
X202747523Y-121610380D01*
X203604666Y-120943714D02*
X203604666Y-121610380D01*
X203366571Y-120562761D02*
X203128476Y-121277047D01*
X203747523Y-121277047D01*
%TO.C,J1*%
X86280666Y-51014380D02*
X86280666Y-51728666D01*
X86233047Y-51871523D01*
X86137809Y-51966761D01*
X85994952Y-52014380D01*
X85899714Y-52014380D01*
X87280666Y-52014380D02*
X86709238Y-52014380D01*
X86994952Y-52014380D02*
X86994952Y-51014380D01*
X86899714Y-51157238D01*
X86804476Y-51252476D01*
X86709238Y-51300095D01*
%TO.C,J6*%
X179244666Y-51014380D02*
X179244666Y-51728666D01*
X179197047Y-51871523D01*
X179101809Y-51966761D01*
X178958952Y-52014380D01*
X178863714Y-52014380D01*
X180149428Y-51014380D02*
X179958952Y-51014380D01*
X179863714Y-51062000D01*
X179816095Y-51109619D01*
X179720857Y-51252476D01*
X179673238Y-51442952D01*
X179673238Y-51823904D01*
X179720857Y-51919142D01*
X179768476Y-51966761D01*
X179863714Y-52014380D01*
X180054190Y-52014380D01*
X180149428Y-51966761D01*
X180197047Y-51919142D01*
X180244666Y-51823904D01*
X180244666Y-51585809D01*
X180197047Y-51490571D01*
X180149428Y-51442952D01*
X180054190Y-51395333D01*
X179863714Y-51395333D01*
X179768476Y-51442952D01*
X179720857Y-51490571D01*
X179673238Y-51585809D01*
%TO.C,J8*%
X202104666Y-123404380D02*
X202104666Y-124118666D01*
X202057047Y-124261523D01*
X201961809Y-124356761D01*
X201818952Y-124404380D01*
X201723714Y-124404380D01*
X202723714Y-123832952D02*
X202628476Y-123785333D01*
X202580857Y-123737714D01*
X202533238Y-123642476D01*
X202533238Y-123594857D01*
X202580857Y-123499619D01*
X202628476Y-123452000D01*
X202723714Y-123404380D01*
X202914190Y-123404380D01*
X203009428Y-123452000D01*
X203057047Y-123499619D01*
X203104666Y-123594857D01*
X203104666Y-123642476D01*
X203057047Y-123737714D01*
X203009428Y-123785333D01*
X202914190Y-123832952D01*
X202723714Y-123832952D01*
X202628476Y-123880571D01*
X202580857Y-123928190D01*
X202533238Y-124023428D01*
X202533238Y-124213904D01*
X202580857Y-124309142D01*
X202628476Y-124356761D01*
X202723714Y-124404380D01*
X202914190Y-124404380D01*
X203009428Y-124356761D01*
X203057047Y-124309142D01*
X203104666Y-124213904D01*
X203104666Y-124023428D01*
X203057047Y-123928190D01*
X203009428Y-123880571D01*
X202914190Y-123832952D01*
%TO.C,C21*%
X128389142Y-121515142D02*
X128341523Y-121562761D01*
X128198666Y-121610380D01*
X128103428Y-121610380D01*
X127960571Y-121562761D01*
X127865333Y-121467523D01*
X127817714Y-121372285D01*
X127770095Y-121181809D01*
X127770095Y-121038952D01*
X127817714Y-120848476D01*
X127865333Y-120753238D01*
X127960571Y-120658000D01*
X128103428Y-120610380D01*
X128198666Y-120610380D01*
X128341523Y-120658000D01*
X128389142Y-120705619D01*
X128770095Y-120705619D02*
X128817714Y-120658000D01*
X128912952Y-120610380D01*
X129151047Y-120610380D01*
X129246285Y-120658000D01*
X129293904Y-120705619D01*
X129341523Y-120800857D01*
X129341523Y-120896095D01*
X129293904Y-121038952D01*
X128722476Y-121610380D01*
X129341523Y-121610380D01*
X130293904Y-121610380D02*
X129722476Y-121610380D01*
X130008190Y-121610380D02*
X130008190Y-120610380D01*
X129912952Y-120753238D01*
X129817714Y-120848476D01*
X129722476Y-120896095D01*
%TO.C,J4*%
X220178380Y-64849333D02*
X220892666Y-64849333D01*
X221035523Y-64896952D01*
X221130761Y-64992190D01*
X221178380Y-65135047D01*
X221178380Y-65230285D01*
X220511714Y-63944571D02*
X221178380Y-63944571D01*
X220130761Y-64182666D02*
X220845047Y-64420761D01*
X220845047Y-63801714D01*
%TO.C,D1*%
X164107904Y-109926380D02*
X164107904Y-108926380D01*
X164346000Y-108926380D01*
X164488857Y-108974000D01*
X164584095Y-109069238D01*
X164631714Y-109164476D01*
X164679333Y-109354952D01*
X164679333Y-109497809D01*
X164631714Y-109688285D01*
X164584095Y-109783523D01*
X164488857Y-109878761D01*
X164346000Y-109926380D01*
X164107904Y-109926380D01*
X165631714Y-109926380D02*
X165060285Y-109926380D01*
X165346000Y-109926380D02*
X165346000Y-108926380D01*
X165250761Y-109069238D01*
X165155523Y-109164476D01*
X165060285Y-109212095D01*
%TO.C,J5*%
X216436666Y-51014380D02*
X216436666Y-51728666D01*
X216389047Y-51871523D01*
X216293809Y-51966761D01*
X216150952Y-52014380D01*
X216055714Y-52014380D01*
X217389047Y-51014380D02*
X216912857Y-51014380D01*
X216865238Y-51490571D01*
X216912857Y-51442952D01*
X217008095Y-51395333D01*
X217246190Y-51395333D01*
X217341428Y-51442952D01*
X217389047Y-51490571D01*
X217436666Y-51585809D01*
X217436666Y-51823904D01*
X217389047Y-51919142D01*
X217341428Y-51966761D01*
X217246190Y-52014380D01*
X217008095Y-52014380D01*
X216912857Y-51966761D01*
X216865238Y-51919142D01*
%TO.C,J2*%
X113966666Y-51014380D02*
X113966666Y-51728666D01*
X113919047Y-51871523D01*
X113823809Y-51966761D01*
X113680952Y-52014380D01*
X113585714Y-52014380D01*
X114395238Y-51109619D02*
X114442857Y-51062000D01*
X114538095Y-51014380D01*
X114776190Y-51014380D01*
X114871428Y-51062000D01*
X114919047Y-51109619D01*
X114966666Y-51204857D01*
X114966666Y-51300095D01*
X114919047Y-51442952D01*
X114347619Y-52014380D01*
X114966666Y-52014380D01*
D12*
%TO.C,J3*%
X221080000Y-100391000D02*
X215320000Y-100391000D01*
X213490000Y-84521000D02*
X213490000Y-100391000D01*
X213800000Y-84521000D02*
X213490000Y-84521000D01*
X221080000Y-98971000D02*
X221080000Y-100391000D01*
X215320000Y-84521000D02*
X221080000Y-84521000D01*
X220580000Y-98971000D02*
X221080000Y-98971000D01*
X221080000Y-84521000D02*
X221080000Y-85941000D01*
X220580000Y-85941000D02*
X220580000Y-98971000D01*
X213490000Y-100391000D02*
X213800000Y-100391000D01*
X221080000Y-85941000D02*
X220580000Y-85941000D01*
%TO.C,J9*%
X185311000Y-134406000D02*
X185311000Y-128646000D01*
X195181000Y-128646000D02*
X195181000Y-134406000D01*
X193761000Y-134406000D02*
X193761000Y-133906000D01*
X186731000Y-133906000D02*
X186731000Y-134406000D01*
X186731000Y-134406000D02*
X185311000Y-134406000D01*
X195181000Y-134406000D02*
X193761000Y-134406000D01*
X193761000Y-133906000D02*
X186731000Y-133906000D01*
X185311000Y-126816000D02*
X185311000Y-127126000D01*
X195181000Y-127126000D02*
X195181000Y-126816000D01*
X195181000Y-126816000D02*
X185311000Y-126816000D01*
%TO.C,L1*%
X74676000Y-78740000D02*
X74676000Y-77470000D01*
X64516000Y-63500000D02*
X65786000Y-63500000D01*
X74676000Y-63500000D02*
X73406000Y-63500000D01*
X74676000Y-64770000D02*
X74676000Y-63500000D01*
X64516000Y-64770000D02*
X64516000Y-63500000D01*
X64516000Y-77470000D02*
X64516000Y-78740000D01*
X64516000Y-78740000D02*
X65786000Y-78740000D01*
X73406000Y-78740000D02*
X74676000Y-78740000D01*
%TO.C,J10*%
X172865000Y-134406000D02*
X172865000Y-128646000D01*
X174285000Y-133906000D02*
X174285000Y-134406000D01*
X174285000Y-134406000D02*
X172865000Y-134406000D01*
X182735000Y-134406000D02*
X181315000Y-134406000D01*
X182735000Y-128646000D02*
X182735000Y-134406000D01*
X181315000Y-133906000D02*
X174285000Y-133906000D01*
X182735000Y-126816000D02*
X172865000Y-126816000D01*
X172865000Y-126816000D02*
X172865000Y-127126000D01*
X181315000Y-134406000D02*
X181315000Y-133906000D01*
X182735000Y-127126000D02*
X182735000Y-126816000D01*
%TO.C,D2*%
X64026000Y-62596000D02*
X98026000Y-62596000D01*
X98026000Y-62596000D02*
X98026000Y-141356000D01*
X98026000Y-141356000D02*
X64026000Y-141356000D01*
X64026000Y-141356000D02*
X64026000Y-62596000D01*
%TO.C,F1*%
X75163936Y-60892000D02*
X79268064Y-60892000D01*
X75163936Y-57472000D02*
X79268064Y-57472000D01*
%TO.C,C24*%
X171744000Y-62531000D02*
X209764000Y-62531000D01*
X209764000Y-62531000D02*
X209764000Y-120031000D01*
X209764000Y-120031000D02*
X171744000Y-120031000D01*
X171744000Y-120031000D02*
X171744000Y-62531000D01*
%TO.C,J1*%
X88005000Y-59010000D02*
X97875000Y-59010000D01*
X88005000Y-58700000D02*
X88005000Y-59010000D01*
X96455000Y-51420000D02*
X97875000Y-51420000D01*
X97875000Y-59010000D02*
X97875000Y-58700000D01*
X96455000Y-51920000D02*
X96455000Y-51420000D01*
X88005000Y-57180000D02*
X88005000Y-51420000D01*
X89425000Y-51420000D02*
X89425000Y-51920000D01*
X88005000Y-51420000D02*
X89425000Y-51420000D01*
X89425000Y-51920000D02*
X96455000Y-51920000D01*
X97875000Y-51420000D02*
X97875000Y-57180000D01*
%TO.C,J6*%
X162405000Y-59010000D02*
X178275000Y-59010000D01*
X162405000Y-57180000D02*
X162405000Y-51420000D01*
X178275000Y-59010000D02*
X178275000Y-58700000D01*
X176855000Y-51920000D02*
X176855000Y-51420000D01*
X163825000Y-51920000D02*
X176855000Y-51920000D01*
X178275000Y-51420000D02*
X178275000Y-57180000D01*
X162405000Y-58700000D02*
X162405000Y-59010000D01*
X163825000Y-51420000D02*
X163825000Y-51920000D01*
X176855000Y-51420000D02*
X178275000Y-51420000D01*
X162405000Y-51420000D02*
X163825000Y-51420000D01*
%TO.C,J8*%
X199177000Y-133906000D02*
X199177000Y-134406000D01*
X199177000Y-134406000D02*
X197757000Y-134406000D01*
X207627000Y-128646000D02*
X207627000Y-134406000D01*
X206207000Y-134406000D02*
X206207000Y-133906000D01*
X197757000Y-126816000D02*
X197757000Y-127126000D01*
X207627000Y-127126000D02*
X207627000Y-126816000D01*
X206207000Y-133906000D02*
X199177000Y-133906000D01*
X207627000Y-126816000D02*
X197757000Y-126816000D01*
X207627000Y-134406000D02*
X206207000Y-134406000D01*
X197757000Y-134406000D02*
X197757000Y-128646000D01*
%TO.C,C21*%
X136612000Y-120095000D02*
X98592000Y-120095000D01*
X98592000Y-120095000D02*
X98592000Y-62595000D01*
X98592000Y-62595000D02*
X136612000Y-62595000D01*
X136612000Y-62595000D02*
X136612000Y-120095000D01*
%TO.C,J4*%
X220580000Y-80429000D02*
X221080000Y-80429000D01*
X221080000Y-67399000D02*
X220580000Y-67399000D01*
X221080000Y-81849000D02*
X215320000Y-81849000D01*
X215320000Y-65979000D02*
X221080000Y-65979000D01*
X221080000Y-80429000D02*
X221080000Y-81849000D01*
X220580000Y-67399000D02*
X220580000Y-80429000D01*
X213800000Y-65979000D02*
X213490000Y-65979000D01*
X213490000Y-65979000D02*
X213490000Y-81849000D01*
X213490000Y-81849000D02*
X213800000Y-81849000D01*
X221080000Y-65979000D02*
X221080000Y-67399000D01*
%TO.C,D1*%
X137178000Y-62474000D02*
X171178000Y-62474000D01*
X171178000Y-62474000D02*
X171178000Y-141234000D01*
X171178000Y-141234000D02*
X137178000Y-141234000D01*
X137178000Y-141234000D02*
X137178000Y-62474000D01*
%TO.C,J5*%
X233849000Y-59010000D02*
X233849000Y-58700000D01*
X219399000Y-51920000D02*
X232429000Y-51920000D01*
X232429000Y-51920000D02*
X232429000Y-51420000D01*
X217979000Y-59010000D02*
X233849000Y-59010000D01*
X217979000Y-51420000D02*
X219399000Y-51420000D01*
X219399000Y-51420000D02*
X219399000Y-51920000D01*
X233849000Y-51420000D02*
X233849000Y-57180000D01*
X217979000Y-58700000D02*
X217979000Y-59010000D01*
X217979000Y-57180000D02*
X217979000Y-51420000D01*
X232429000Y-51420000D02*
X233849000Y-51420000D01*
%TO.C,J2*%
X104247000Y-51420000D02*
X104247000Y-51920000D01*
X111277000Y-51920000D02*
X111277000Y-51420000D01*
X112697000Y-59010000D02*
X112697000Y-58700000D01*
X111277000Y-51420000D02*
X112697000Y-51420000D01*
X102827000Y-58700000D02*
X102827000Y-59010000D01*
X102827000Y-57180000D02*
X102827000Y-51420000D01*
X102827000Y-59010000D02*
X112697000Y-59010000D01*
X102827000Y-51420000D02*
X104247000Y-51420000D01*
X104247000Y-51920000D02*
X111277000Y-51920000D01*
X112697000Y-51420000D02*
X112697000Y-57180000D01*
%TD*%
M02*
