%TF.GenerationSoftware,KiCad,Pcbnew,(6.0.1)*%
%TF.CreationDate,2022-06-01T15:29:15+03:00*%
%TF.ProjectId,Power,506f7765-722e-46b6-9963-61645f706362,rev?*%
%TF.SameCoordinates,Original*%
%TF.FileFunction,Legend,Bot*%
%TF.FilePolarity,Positive*%
%FSLAX46Y46*%
G04 Gerber Fmt 4.6, Leading zero omitted, Abs format (unit mm)*
G04 Created by KiCad (PCBNEW (6.0.1)) date 2022-06-01 15:29:15*
%MOMM*%
%LPD*%
G01*
G04 APERTURE LIST*
%ADD10C,0.150000*%
%ADD11C,0.120000*%
G04 APERTURE END LIST*
D10*
%TO.C,R4*%
X179998666Y-110180380D02*
X180332000Y-109704190D01*
X180570095Y-110180380D02*
X180570095Y-109180380D01*
X180189142Y-109180380D01*
X180093904Y-109228000D01*
X180046285Y-109275619D01*
X179998666Y-109370857D01*
X179998666Y-109513714D01*
X180046285Y-109608952D01*
X180093904Y-109656571D01*
X180189142Y-109704190D01*
X180570095Y-109704190D01*
X179141523Y-109513714D02*
X179141523Y-110180380D01*
X179379619Y-109132761D02*
X179617714Y-109847047D01*
X178998666Y-109847047D01*
%TO.C,D4*%
X181078095Y-78938380D02*
X181078095Y-77938380D01*
X180840000Y-77938380D01*
X180697142Y-77986000D01*
X180601904Y-78081238D01*
X180554285Y-78176476D01*
X180506666Y-78366952D01*
X180506666Y-78509809D01*
X180554285Y-78700285D01*
X180601904Y-78795523D01*
X180697142Y-78890761D01*
X180840000Y-78938380D01*
X181078095Y-78938380D01*
X179649523Y-78271714D02*
X179649523Y-78938380D01*
X179887619Y-77890761D02*
X180125714Y-78605047D01*
X179506666Y-78605047D01*
%TO.C,C7*%
X182538666Y-110085142D02*
X182586285Y-110132761D01*
X182729142Y-110180380D01*
X182824380Y-110180380D01*
X182967238Y-110132761D01*
X183062476Y-110037523D01*
X183110095Y-109942285D01*
X183157714Y-109751809D01*
X183157714Y-109608952D01*
X183110095Y-109418476D01*
X183062476Y-109323238D01*
X182967238Y-109228000D01*
X182824380Y-109180380D01*
X182729142Y-109180380D01*
X182586285Y-109228000D01*
X182538666Y-109275619D01*
X182205333Y-109180380D02*
X181538666Y-109180380D01*
X181967238Y-110180380D01*
%TO.C,C3*%
X185840666Y-107291142D02*
X185888285Y-107338761D01*
X186031142Y-107386380D01*
X186126380Y-107386380D01*
X186269238Y-107338761D01*
X186364476Y-107243523D01*
X186412095Y-107148285D01*
X186459714Y-106957809D01*
X186459714Y-106814952D01*
X186412095Y-106624476D01*
X186364476Y-106529238D01*
X186269238Y-106434000D01*
X186126380Y-106386380D01*
X186031142Y-106386380D01*
X185888285Y-106434000D01*
X185840666Y-106481619D01*
X185507333Y-106386380D02*
X184888285Y-106386380D01*
X185221619Y-106767333D01*
X185078761Y-106767333D01*
X184983523Y-106814952D01*
X184935904Y-106862571D01*
X184888285Y-106957809D01*
X184888285Y-107195904D01*
X184935904Y-107291142D01*
X184983523Y-107338761D01*
X185078761Y-107386380D01*
X185364476Y-107386380D01*
X185459714Y-107338761D01*
X185507333Y-107291142D01*
D11*
%TO.C,R4*%
X180821000Y-105182936D02*
X180821000Y-105637064D01*
X179351000Y-105182936D02*
X179351000Y-105637064D01*
%TO.C,D4*%
X188340000Y-80312000D02*
X172340000Y-80312000D01*
X172340000Y-103312000D02*
X188340000Y-103312000D01*
X172340000Y-80312000D02*
X172340000Y-103312000D01*
X188340000Y-103312000D02*
X188340000Y-80312000D01*
%TO.C,C7*%
X183107000Y-105671252D02*
X183107000Y-105148748D01*
X181637000Y-105671252D02*
X181637000Y-105148748D01*
%TO.C,C3*%
X185935252Y-103913000D02*
X185412748Y-103913000D01*
X185935252Y-105383000D02*
X185412748Y-105383000D01*
%TD*%
M02*
